<svg width="41" height="14" viewBox="0 0 41 14" fill="none" xmlns="http://www.w3.org/2000/svg">
<path fill-rule="evenodd" clip-rule="evenodd" d="M16.5698 0.242843L14.4863 13.7667H17.8182L19.9018 0.242843H16.5698ZM11.6842 0.242843L8.50747 9.54459L8.1317 7.54148L8.04872 7.09243C7.37135 5.56822 6.3611 4.21512 5.09219 3.13255C4.6235 2.73763 4.12814 2.3755 3.60962 2.04873L6.49681 13.766H9.96705L15.2687 0.242125L11.6842 0.242843ZM24.6886 3.99724C24.6886 2.46832 27.9336 2.66483 29.3587 3.49431L29.834 0.589868C28.8749 0.227133 27.8618 0.0277473 26.8369 0C25.1844 0 21.2565 0.764098 21.2565 4.47718C21.2565 7.97149 25.8651 8.01496 25.8651 9.84923C25.8651 11.6835 21.7314 11.3559 20.3688 10.1988L19.873 13.2347C21.0566 13.7594 22.3402 14.0202 23.6346 13.9988C25.9082 13.9988 29.339 12.7544 29.339 9.36892C29.3382 5.85342 24.6883 5.5258 24.6883 3.99724H24.6886ZM38.2858 0.242843H35.6066C35.276 0.223803 34.948 0.311496 34.6711 0.492987C34.3941 0.674479 34.1828 0.940163 34.0683 1.25086L29.099 13.7671H32.5721L33.2669 11.7582H37.5026L37.8935 13.7671H40.9531L38.2858 0.242843ZM34.2264 8.98275L35.9773 3.9218L36.9623 8.98275H34.2264Z" fill="#2A3480"/>
<path fill-rule="evenodd" clip-rule="evenodd" d="M7.08848 1.44844C7.08848 1.44844 6.9491 0.282349 5.46293 0.282349H0.0632254L0 0.501484C1.85524 0.965551 3.58945 1.82193 5.08573 3.01291C6.49809 4.12518 7.58763 5.5946 8.24164 7.26916L7.08848 1.44844Z" fill="#F6AC1D"/>
</svg>
