<svg width="22" height="22" viewBox="0 0 22 22" fill="none" xmlns="http://www.w3.org/2000/svg">
<path d="M11.9167 8.25001H10.0834V6.41668H11.9167M11.9167 15.5833H10.0834V10.0833H11.9167M11 1.83334C9.79626 1.83334 8.60426 2.07045 7.49211 2.53111C6.37996 2.99178 5.36943 3.66699 4.51823 4.5182C2.79915 6.23728 1.83337 8.56886 1.83337 11C1.83337 13.4312 2.79915 15.7627 4.51823 17.4818C5.36943 18.333 6.37996 19.0082 7.49211 19.4689C8.60426 19.9296 9.79626 20.1667 11 20.1667C13.4312 20.1667 15.7628 19.2009 17.4819 17.4818C19.2009 15.7627 20.1667 13.4312 20.1667 11C20.1667 9.79623 19.9296 8.60423 19.4689 7.49208C19.0083 6.37993 18.3331 5.3694 17.4819 4.5182C16.6306 3.66699 15.6201 2.99178 14.508 2.53111C13.3958 2.07045 12.2038 1.83334 11 1.83334Z" fill="white"/>
</svg>
