<svg width="23" height="23" viewBox="0 0 23 23" fill="none" xmlns="http://www.w3.org/2000/svg">
<path d="M11.5 0.5625C14.4011 0.5625 17.1833 1.71492 19.2346 3.76625C21.2859 5.81757 22.4383 8.59977 22.4383 11.5008C22.4383 14.4018 21.2859 17.184 19.2346 19.2353C17.1833 21.2866 14.4011 22.4391 11.5 22.4391C8.59904 22.4391 5.81684 21.2866 3.76552 19.2353C1.71419 17.184 0.561768 14.4018 0.561768 11.5008C0.561768 8.59977 1.71419 5.81757 3.76552 3.76625C5.81684 1.71492 8.59904 0.5625 11.5 0.5625ZM13.1407 7.27813C13.9532 7.27813 14.6125 6.71406 14.6125 5.87813C14.6125 5.04219 13.9516 4.47813 13.1407 4.47813C12.3282 4.47813 11.6719 5.04219 11.6719 5.87813C11.6719 6.71406 12.3282 7.27813 13.1407 7.27813ZM13.4266 16.0703C13.4266 15.9031 13.4844 15.4688 13.4516 15.2219L12.1672 16.7C11.9016 16.9797 11.5688 17.1734 11.4125 17.1219C11.3417 17.0958 11.2824 17.0453 11.2455 16.9794C11.2085 16.9135 11.1963 16.8366 11.211 16.7625L13.3516 10C13.5266 9.14219 13.0454 8.35938 12.0251 8.25938C10.9485 8.25938 9.36411 9.35156 8.40005 10.7375C8.40005 10.9031 8.3688 11.3156 8.40161 11.5625L9.68442 10.0828C9.95005 9.80625 10.2594 9.61094 10.4157 9.66406C10.4927 9.69169 10.5557 9.7484 10.5914 9.82202C10.627 9.89564 10.6324 9.98029 10.6063 10.0578L8.48443 16.7875C8.23911 17.575 8.70317 18.3469 9.82817 18.5219C11.4844 18.5219 12.4625 17.4563 13.4282 16.0703H13.4266Z" fill="#E63946"/>
</svg>
