<svg width="17" height="19" viewBox="0 0 17 19" fill="none" xmlns="http://www.w3.org/2000/svg">
<path d="M8.50004 0.5C5.6938 0.5 3.41075 2.5187 3.41075 5V7.7H2.39289C1.85299 7.7 1.3352 7.88964 0.953425 8.22721C0.571654 8.56477 0.357178 9.02261 0.357178 9.5V16.7C0.357178 17.1774 0.571654 17.6352 0.953425 17.9728C1.3352 18.3104 1.85299 18.5 2.39289 18.5H14.6072C15.1471 18.5 15.6649 18.3104 16.0466 17.9728C16.4284 17.6352 16.6429 17.1774 16.6429 16.7V9.5C16.6429 9.02261 16.4284 8.56477 16.0466 8.22721C15.6649 7.88964 15.1471 7.7 14.6072 7.7H13.5893V5C13.5893 2.5187 11.3063 0.5 8.50004 0.5ZM5.44646 5C5.44646 3.5114 6.8165 2.3 8.50004 2.3C10.1836 2.3 11.5536 3.5114 11.5536 5V7.7H5.44646V5ZM9.51789 14.6507V16.7H7.48218V14.6507C7.12632 14.4705 6.84058 14.1992 6.66263 13.8725C6.48468 13.5458 6.42288 13.1792 6.48537 12.8208C6.54787 12.4624 6.73173 12.1292 7.01271 11.8651C7.29368 11.601 7.65859 11.4184 8.0593 11.3414C8.35694 11.2832 8.66556 11.2848 8.96239 11.3462C9.25923 11.4075 9.53671 11.5269 9.77438 11.6957C10.012 11.8645 10.2038 12.0783 10.3356 12.3213C10.4674 12.5644 10.5358 12.8305 10.5357 13.1C10.5352 13.4148 10.4408 13.7238 10.2621 13.9961C10.0834 14.2683 9.8267 14.4941 9.51789 14.6507Z" fill="#F8F8F8"/>
</svg>
