<svg width="28" height="28" viewBox="0 0 28 28" fill="none" xmlns="http://www.w3.org/2000/svg">
<path d="M19.8334 21C18.5384 21 17.5001 22.0383 17.5001 23.3333C17.5001 23.9522 17.7459 24.5456 18.1835 24.9832C18.6211 25.4208 19.2146 25.6666 19.8334 25.6666C20.4523 25.6666 21.0457 25.4208 21.4833 24.9832C21.9209 24.5456 22.1667 23.9522 22.1667 23.3333C22.1667 22.7145 21.9209 22.121 21.4833 21.6834C21.0457 21.2458 20.4523 21 19.8334 21ZM1.16675 2.33331V4.66665H3.50008L7.70008 13.5216L6.11341 16.38C5.93841 16.7066 5.83342 17.0916 5.83342 17.5C5.83342 18.1188 6.07925 18.7123 6.51683 19.1499C6.95442 19.5875 7.54791 19.8333 8.16675 19.8333H22.1667V17.5H8.65675C8.57939 17.5 8.50521 17.4693 8.45051 17.4146C8.39581 17.3599 8.36508 17.2857 8.36508 17.2083C8.36508 17.15 8.37675 17.1033 8.40008 17.0683L9.45008 15.1666H18.1418C19.0168 15.1666 19.7867 14.6766 20.1834 13.965L24.3601 6.41665C24.4417 6.22998 24.5001 6.03165 24.5001 5.83331C24.5001 5.52389 24.3772 5.22715 24.1584 5.00836C23.9396 4.78956 23.6428 4.66665 23.3334 4.66665H6.07841L4.98175 2.33331M8.16675 21C6.87175 21 5.83342 22.0383 5.83342 23.3333C5.83342 23.9522 6.07925 24.5456 6.51683 24.9832C6.95442 25.4208 7.54791 25.6666 8.16675 25.6666C8.78559 25.6666 9.37908 25.4208 9.81666 24.9832C10.2542 24.5456 10.5001 23.9522 10.5001 23.3333C10.5001 22.7145 10.2542 22.121 9.81666 21.6834C9.37908 21.2458 8.78559 21 8.16675 21Z" fill="#001462"/>
</svg>
