<svg width="327" height="193" viewBox="0 0 327 193" fill="none" xmlns="http://www.w3.org/2000/svg">
<path d="M327 18.1977V174.31C327 184.355 318.233 192.508 307.432 192.508H19.5675C8.76663 192.508 0 184.355 0 174.31V18.1977C0 8.15292 8.76663 0 19.5675 0H307.442C311.307 0 314.92 1.04501 317.943 2.85577C323.387 6.07189 327 11.7474 327 18.1977Z" fill="url(#paint0_linear_1045_10)"/>
<path d="M327 18.1977V136.735C296.244 147.581 261.575 143.924 253.157 130.149C246.986 120.051 259.57 112.177 256.073 93.5468C254.407 84.7183 250.038 78.268 243.809 72.1781C235.469 63.9891 223.777 56.4668 210.883 44.7374C202.591 37.1971 182.268 18.7112 171.187 0H307.432C311.298 0 314.911 1.04502 317.943 2.86478C323.396 6.0719 327 11.7384 327 18.1977Z" fill="url(#paint1_linear_1045_10)"/>
<path d="M327 59.2865V174.31C327 184.355 318.243 192.499 307.442 192.499H19.5677C8.76683 192.499 0.0098877 184.355 0.0098877 174.31V85.9884C5.64765 80.7994 12.2444 75.9436 19.9261 71.8537C43.349 59.3585 65.9872 60.1964 110.305 62.3675C163.699 64.98 167.457 73.4843 205.052 74.5653C220.522 75.0157 233.115 73.9527 243.809 72.178C279.854 66.1151 294.133 51.6921 323.125 58.2955C324.414 58.5928 325.702 58.9171 327 59.2865Z" fill="url(#paint2_linear_1045_10)"/>
<path d="M100.734 0C95.4061 48.368 52.7547 86.457 0 88.9524V18.1977C0 8.15292 8.76663 0 19.5675 0H100.734Z" fill="url(#paint3_linear_1045_10)"/>
<path opacity="0.33" d="M242.734 192.499H105.19L164.609 137.239C169.753 132.465 178.161 132.465 183.305 137.239L242.734 192.499Z" fill="url(#paint4_linear_1045_10)"/>
<path opacity="0.27" d="M327 172.175V174.301C327 184.346 318.233 192.499 307.432 192.499H19.5675C8.76663 192.499 0 184.346 0 174.301V102.718C5.42465 100.033 11.6921 97.9881 18.7151 97.2674C34.989 95.6188 47.7563 101.925 62.7516 109.555C91.5119 124.195 96.0357 135.771 112.3 145.392C143.589 163.905 169.298 146.212 222.401 147.437C262.408 148.374 304.895 159.725 327 172.175Z" fill="url(#paint5_linear_1045_10)"/>
<path opacity="0.53" d="M327 18.1977V174.31C327 184.355 318.233 192.508 307.432 192.508H19.5675C8.76663 192.508 0 184.355 0 174.31V18.1977C0 8.15292 8.76663 0 19.5675 0H307.442C311.307 0 314.92 1.04501 317.943 2.85577C323.387 6.07189 327 11.7474 327 18.1977Z" fill="url(#paint6_linear_1045_10)"/>
<path d="M34.3981 31.7289H27.9466V36.1251H34.1269V37.8278H27.9466V43.5754H26.0093V30.0172H34.3981V31.7289Z" fill="white"/>
<path d="M37.4787 32.1342C37.1299 32.1342 36.8393 32.0261 36.6068 31.8009C36.3743 31.5847 36.2484 31.3144 36.2484 31.0081C36.2484 30.7018 36.3647 30.4316 36.6068 30.2064C36.8393 29.9811 37.1299 29.864 37.4787 29.864C37.808 29.864 38.0986 29.9811 38.3311 30.2064C38.5636 30.4316 38.6895 30.7018 38.6895 31.0081C38.6895 31.3144 38.5733 31.5847 38.3311 31.8009C38.0986 32.0171 37.8177 32.1342 37.4787 32.1342ZM36.5681 43.5753V33.8909H38.3795V43.5753H36.5681Z" fill="white"/>
<path d="M46.3323 33.6386C47.5529 33.6386 48.5312 33.999 49.2674 34.7107C50.0036 35.4314 50.3717 36.3953 50.3717 37.6205V43.5662H48.5603V37.7196C48.5603 36.9358 48.3278 36.3232 47.8725 35.8908C47.4172 35.4584 46.7779 35.2422 45.9739 35.2422C45.073 35.2422 44.3465 35.5034 43.7847 36.0259C43.2228 36.5484 42.9516 37.3502 42.9516 38.4403V43.5662H41.1401V33.8909H42.9516V35.2872C43.6878 34.1881 44.8212 33.6386 46.3323 33.6386Z" fill="white"/>
<path d="M61.502 33.8909H63.3134V43.5753H61.502V41.9087C60.6011 43.1879 59.2837 43.8275 57.5691 43.8275C56.1161 43.8275 54.8665 43.332 53.8397 42.3501C52.8128 41.3591 52.2994 40.161 52.2994 38.7376C52.2994 37.3142 52.8128 36.116 53.8397 35.1251C54.8665 34.1341 56.1064 33.6476 57.5691 33.6476C59.2934 33.6476 60.6011 34.2873 61.502 35.5665V33.8909ZM57.8016 42.1969C58.8575 42.1969 59.739 41.8636 60.4461 41.197C61.1532 40.5303 61.5117 39.7105 61.5117 38.7286C61.5117 37.7466 61.1532 36.9268 60.4461 36.2602C59.739 35.5935 58.8575 35.2602 57.8016 35.2602C56.7554 35.2602 55.8836 35.5935 55.1764 36.2602C54.4693 36.9268 54.1109 37.7466 54.1109 38.7286C54.1109 39.7105 54.4693 40.5303 55.1764 41.197C55.8836 41.8636 56.7554 42.1969 57.8016 42.1969Z" fill="white"/>
<path d="M70.9564 43.8275C69.3871 43.8275 68.0794 43.3411 67.0429 42.3681C65.9967 41.3952 65.4833 40.188 65.4833 38.7376C65.4833 37.2872 66.0064 36.08 67.0429 35.1071C68.0794 34.1341 69.3871 33.6476 70.9564 33.6476C71.9832 33.6476 72.9034 33.8729 73.7268 34.3323C74.5502 34.7917 75.1605 35.4043 75.5576 36.1791L74.0368 36.9899C73.7752 36.4764 73.3684 36.062 72.8162 35.7467C72.2641 35.4314 71.6441 35.2782 70.9564 35.2782C69.9102 35.2782 69.0481 35.6115 68.3409 36.2692C67.6338 36.9268 67.2947 37.7466 67.2947 38.7286C67.2947 39.6925 67.6435 40.5123 68.3409 41.1699C69.0384 41.8276 69.9102 42.1609 70.9564 42.1609C71.6538 42.1609 72.2738 42.0078 72.8259 41.7015C73.3781 41.3952 73.8043 40.9898 74.0949 40.4763L75.6351 41.3051C75.1895 42.0708 74.5502 42.6744 73.7171 43.1339C72.8937 43.5933 71.9638 43.8275 70.9564 43.8275Z" fill="white"/>
<path d="M78.3475 32.1342C77.9988 32.1342 77.7082 32.0261 77.4757 31.8009C77.2432 31.5847 77.1173 31.3144 77.1173 31.0081C77.1173 30.7018 77.2336 30.4316 77.4757 30.2064C77.7082 29.9811 77.9988 29.864 78.3475 29.864C78.6769 29.864 78.9675 29.9811 79.2 30.2064C79.4325 30.4316 79.5584 30.7018 79.5584 31.0081C79.5584 31.3144 79.4422 31.5847 79.2 31.8009C78.9578 32.0171 78.6769 32.1342 78.3475 32.1342ZM77.4273 43.5753V33.8909H79.2387V43.5753H77.4273Z" fill="white"/>
<path d="M33.1484 81.4212V82.9527L30.8042 82.8536L32.1701 84.6013L30.6977 85.4211L29.5352 83.4572L28.3728 85.4211L26.9295 84.6013L28.2663 82.8536L25.9414 82.9527V81.4212L28.2663 81.5383L26.9295 79.7636L28.3728 78.9438L29.5352 80.9077L30.6977 78.9438L32.1701 79.7636L30.8042 81.5383L33.1484 81.4212Z" fill="white"/>
<path d="M45.2377 81.4211V82.9526L42.8934 82.8535L44.2593 84.6012L42.7869 85.421L41.6245 83.4571L40.462 85.421L39.0187 84.6012L40.3555 82.8535L38.0306 82.9526V81.4211L40.3555 81.5382L39.0187 79.7635L40.462 78.9437L41.6245 80.9076L42.7869 78.9437L44.2593 79.7635L42.8934 81.5382L45.2377 81.4211Z" fill="white"/>
<path d="M57.3366 81.4211V82.9526L54.9923 82.8535L56.3582 84.6012L54.8858 85.421L53.7233 83.4571L52.5609 85.421L51.1176 84.6012L52.4544 82.8535L50.1295 82.9526V81.4211L52.4544 81.5382L51.1176 79.7635L52.5609 78.9437L53.7233 80.9076L54.8858 78.9437L56.3582 79.7635L54.9923 81.5382L57.3366 81.4211Z" fill="white"/>
<path d="M69.4356 81.4211V82.9526L67.0913 82.8535L68.4572 84.6012L66.9848 85.421L65.8224 83.4571L64.6599 85.421L63.2166 84.6012L64.5534 82.8535L62.2285 82.9526V81.4211L64.5534 81.5382L63.2166 79.7635L64.6599 78.9437L65.8224 80.9076L66.9848 78.9437L68.4572 79.7635L67.0913 81.5382L69.4356 81.4211Z" fill="white"/>
<path d="M89.9136 81.4211V82.9526L87.5694 82.8535L88.9352 84.6012L87.4628 85.421L86.3004 83.4571L85.1379 85.421L83.6946 84.6012L85.0314 82.8535L82.7065 82.9526V81.4211L85.0314 81.5382L83.6946 79.7635L85.1379 78.9437L86.3004 80.9076L87.4628 78.9437L88.9352 79.7635L87.5694 81.5382L89.9136 81.4211Z" fill="white"/>
<path d="M102.012 81.4211V82.9526L99.6682 82.8535L101.034 84.6012L99.5617 85.421L98.3993 83.4571L97.2368 85.421L95.7935 84.6012L97.1303 82.8535L94.8054 82.9526V81.4211L97.1303 81.5382L95.7935 79.7635L97.2368 78.9437L98.3993 80.9076L99.5617 78.9437L101.034 79.7635L99.6682 81.5382L102.012 81.4211Z" fill="white"/>
<path d="M114.111 81.4211V82.9526L111.767 82.8535L113.133 84.6012L111.661 85.421L110.498 83.4571L109.336 85.421L107.892 84.6012L109.229 82.8535L106.904 82.9526V81.4211L109.229 81.5382L107.892 79.7635L109.336 78.9437L110.498 80.9076L111.661 78.9437L113.133 79.7635L111.767 81.5382L114.111 81.4211Z" fill="white"/>
<path d="M126.201 81.4211V82.9526L123.856 82.8535L125.222 84.6012L123.75 85.421L122.587 83.4571L121.425 85.421L119.982 84.6012L121.318 82.8535L118.994 82.9526V81.4211L121.318 81.5382L119.982 79.7635L121.425 78.9437L122.587 80.9076L123.75 78.9437L125.222 79.7635L123.856 81.5382L126.201 81.4211Z" fill="white"/>
<path d="M146.688 81.4211V82.9526L144.344 82.8535L145.71 84.6012L144.238 85.421L143.075 83.4571L141.913 85.421L140.469 84.6012L141.806 82.8535L139.481 82.9526V81.4211L141.806 81.5382L140.469 79.7635L141.913 78.9437L143.075 80.9076L144.238 78.9437L145.71 79.7635L144.344 81.5382L146.688 81.4211Z" fill="white"/>
<path d="M158.778 81.4211V82.9526L156.433 82.8535L157.799 84.6012L156.327 85.421L155.164 83.4571L154.002 85.421L152.559 84.6012L153.895 82.8535L151.571 82.9526V81.4211L153.895 81.5382L152.559 79.7635L154.002 78.9437L155.164 80.9076L156.327 78.9437L157.799 79.7635L156.433 81.5382L158.778 81.4211Z" fill="white"/>
<path d="M170.876 81.4211V82.9526L168.532 82.8535L169.898 84.6012L168.426 85.421L167.263 83.4571L166.101 85.421L164.657 84.6012L165.994 82.8535L163.669 82.9526V81.4211L165.994 81.5382L164.657 79.7635L166.101 78.9437L167.263 80.9076L168.426 78.9437L169.898 79.7635L168.532 81.5382L170.876 81.4211Z" fill="white"/>
<path d="M182.975 81.4211V82.9526L180.631 82.8535L181.997 84.6012L180.525 85.421L179.362 83.4571L178.2 85.421L176.756 84.6012L178.093 82.8535L175.768 82.9526V81.4211L178.093 81.5382L176.756 79.7635L178.2 78.9437L179.362 80.9076L180.525 78.9437L181.997 79.7635L180.631 81.5382L182.975 81.4211Z" fill="white"/>
<path d="M195.694 96.0514V94.2316L202.068 88.1867C203.773 86.6012 204.626 85.2409 204.626 84.1058C204.626 83.1598 204.316 82.4301 203.696 81.8986C203.076 81.3671 202.32 81.1058 201.429 81.1058C199.724 81.1058 198.484 81.8536 197.719 83.358L195.704 82.259C196.266 81.1689 197.06 80.3491 198.068 79.7906C199.075 79.232 200.189 78.9528 201.41 78.9528C202.921 78.9528 204.238 79.4212 205.352 80.3401C206.466 81.268 207.028 82.5112 207.028 84.0787C207.028 85.7724 205.953 87.6192 203.802 89.6191L199.201 93.8893H207.367V96.0514H195.694Z" fill="white"/>
<path d="M218.178 86.1417C219.553 86.3849 220.686 86.9345 221.558 87.7993C222.44 88.6641 222.876 89.7632 222.876 91.0875C222.876 92.7181 222.275 94.0063 221.074 94.9523C219.873 95.8982 218.41 96.3666 216.686 96.3666C215.31 96.3666 214.09 96.0783 213.024 95.4928C211.959 94.9072 211.203 94.0694 210.757 92.9613L212.772 91.8532C213.305 93.4027 214.613 94.1775 216.696 94.1775C217.809 94.1775 218.72 93.9072 219.427 93.3577C220.134 92.8172 220.483 92.0514 220.483 91.0785C220.483 90.1055 220.134 89.3398 219.427 88.7903C218.72 88.2407 217.809 87.9615 216.696 87.9615H216.076L215.117 86.5921L219.292 81.34H211.271V79.25H222.101L222.091 81.2229L218.178 86.1417Z" fill="white"/>
<path d="M240.7 90.7722V92.8622H238.51V96.0513H236.108V92.8622H226.896V90.7722L233.367 79.259H235.943L229.472 90.7722H236.098V86.0246H238.501V90.7722H240.7Z" fill="white"/>
<path d="M250.135 85.8084C251.84 85.8084 253.283 86.2768 254.455 87.2138C255.637 88.1507 256.228 89.4389 256.228 91.0875C256.228 92.7181 255.627 94.0064 254.426 94.9523C253.225 95.8982 251.762 96.3666 250.038 96.3666C248.662 96.3666 247.432 96.0603 246.347 95.4477C245.262 94.8352 244.507 93.9433 244.08 92.7722L246.115 91.6911C246.357 92.5109 246.822 93.1235 247.509 93.5469C248.197 93.9703 249.04 94.1865 250.038 94.1865C251.171 94.1865 252.091 93.9163 252.799 93.3667C253.506 92.8172 253.854 92.0605 253.854 91.0875C253.854 90.1146 253.506 89.3488 252.799 88.7993C252.091 88.2498 251.191 87.9705 250.086 87.9705H244.981L245.63 79.259H255.53V81.3491H247.819L247.5 85.8084H250.135Z" fill="white"/>
<path d="M27.472 141.924C26.4161 141.924 25.5443 141.6 24.8565 140.951C24.1688 140.302 23.8297 139.51 23.8297 138.564C23.8297 137.618 24.1688 136.825 24.8565 136.176C25.5443 135.528 26.4161 135.203 27.472 135.203C28.1113 135.203 28.6925 135.348 29.2253 135.627C29.7581 135.915 30.1746 136.294 30.4749 136.771L29.6709 137.203C29.4675 136.843 29.1769 136.564 28.7797 136.348C28.3825 136.131 27.9466 136.032 27.472 136.032C26.668 136.032 26.0189 136.276 25.5055 136.753C25.0018 137.23 24.7403 137.834 24.7403 138.555C24.7403 139.266 24.9921 139.87 25.5055 140.347C26.0093 140.825 26.668 141.068 27.472 141.068C27.9466 141.068 28.3825 140.96 28.7797 140.753C29.1769 140.537 29.4675 140.257 29.6709 139.906L30.4749 140.329C30.1843 140.807 29.7678 141.194 29.235 141.483C28.7022 141.771 28.1113 141.924 27.472 141.924Z" fill="white"/>
<path d="M35.5315 137.176H36.3936V141.807H35.5315V141.014C35.0956 141.627 34.4756 141.933 33.6523 141.933C32.9548 141.933 32.3639 141.699 31.8699 141.221C31.3758 140.753 31.1337 140.176 31.1337 139.492C31.1337 138.816 31.3758 138.239 31.8699 137.762C32.3639 137.293 32.9548 137.05 33.6523 137.05C34.4756 137.05 35.1053 137.357 35.5315 137.969V137.176ZM33.7588 141.14C34.2625 141.14 34.6888 140.978 35.0181 140.663C35.3571 140.347 35.5218 139.951 35.5218 139.483C35.5218 139.014 35.3571 138.618 35.0181 138.302C34.6791 137.987 34.2625 137.825 33.7588 137.825C33.2648 137.825 32.8386 137.987 32.5092 138.302C32.1702 138.618 32.0055 139.014 32.0055 139.483C32.0055 139.951 32.1702 140.347 32.5092 140.663C32.8482 140.987 33.2648 141.14 33.7588 141.14Z" fill="white"/>
<path d="M38.5731 137.951C38.854 137.375 39.3771 137.086 40.123 137.086V137.924C39.6967 137.906 39.3383 138.014 39.0284 138.239C38.7281 138.465 38.5731 138.834 38.5731 139.338V141.789H37.7109V137.158H38.5731V137.951Z" fill="white"/>
<path d="M44.8212 135.32H45.6833V141.798H44.8212V141.005C44.3853 141.618 43.7653 141.924 42.9419 141.924C42.2445 141.924 41.6536 141.69 41.1595 141.212C40.6655 140.744 40.4233 140.167 40.4233 139.483C40.4233 138.807 40.6655 138.23 41.1595 137.753C41.6536 137.284 42.2445 137.041 42.9419 137.041C43.7653 137.041 44.395 137.347 44.8212 137.96V135.32ZM43.0582 141.14C43.5619 141.14 43.9881 140.978 44.3175 140.663C44.6565 140.347 44.8212 139.951 44.8212 139.483C44.8212 139.014 44.6565 138.618 44.3175 138.302C43.9784 137.987 43.5619 137.825 43.0582 137.825C42.5641 137.825 42.1379 137.987 41.8086 138.302C41.4695 138.618 41.3048 139.014 41.3048 139.483C41.3048 139.951 41.4695 140.347 41.8086 140.663C42.1379 140.987 42.5545 141.14 43.0582 141.14Z" fill="white"/>
<path d="M53.8881 135.32H54.8083V141.798H53.8881V138.879H50.5073V141.798H49.5774V135.32H50.5073V138.068H53.8881V135.32Z" fill="white"/>
<path d="M60.4074 141.212C59.894 141.681 59.274 141.915 58.5475 141.915C57.821 141.915 57.201 141.681 56.6876 141.212C56.1839 140.744 55.9224 140.167 55.9224 139.483C55.9224 138.798 56.1742 138.221 56.6876 137.753C57.1913 137.284 57.8113 137.05 58.5475 137.05C59.2837 137.05 59.894 137.284 60.4074 137.753C60.9208 138.221 61.1726 138.798 61.1726 139.483C61.1726 140.167 60.9208 140.744 60.4074 141.212ZM58.5475 141.131C59.0415 141.131 59.4678 140.978 59.7971 140.663C60.1362 140.347 60.3008 139.96 60.3008 139.492C60.3008 139.023 60.1362 138.627 59.7971 138.32C59.4581 138.005 59.0415 137.852 58.5475 137.852C58.0535 137.852 57.6466 138.005 57.3076 138.32C56.9685 138.636 56.8039 139.032 56.8039 139.492C56.8039 139.96 56.9685 140.356 57.3076 140.663C57.6466 140.978 58.0535 141.131 58.5475 141.131Z" fill="white"/>
<path d="M62.1995 141.798V135.041H63.0616V141.798H62.1995Z" fill="white"/>
<path d="M68.5055 135.32H69.3676V141.798H68.5055V141.005C68.0696 141.618 67.4496 141.924 66.6263 141.924C65.9288 141.924 65.3379 141.69 64.8439 141.212C64.3498 140.744 64.1077 140.167 64.1077 139.483C64.1077 138.807 64.3498 138.23 64.8439 137.753C65.3379 137.284 65.9288 137.041 66.6263 137.041C67.4496 137.041 68.0793 137.347 68.5055 137.96V135.32ZM66.7328 141.14C67.2365 141.14 67.6628 140.978 67.9921 140.663C68.3311 140.347 68.4958 139.951 68.4958 139.483C68.4958 139.014 68.3311 138.618 67.9921 138.302C67.6531 137.987 67.2365 137.825 66.7328 137.825C66.2388 137.825 65.8126 137.987 65.4832 138.302C65.1442 138.618 64.9795 139.014 64.9795 139.483C64.9795 139.951 65.1442 140.347 65.4832 140.663C65.8222 140.987 66.2388 141.14 66.7328 141.14Z" fill="white"/>
<path d="M71.2954 139.852C71.3826 140.266 71.5861 140.591 71.9057 140.816C72.2254 141.041 72.6225 141.158 73.0972 141.158C73.7559 141.158 74.2306 140.933 74.5309 140.483L75.2671 140.87C74.7827 141.564 74.0562 141.915 73.0778 141.915C72.2835 141.915 71.6442 141.69 71.1501 141.221C70.6561 140.762 70.4139 140.176 70.4139 139.474C70.4139 138.78 70.6561 138.194 71.1405 137.735C71.6248 137.275 72.2544 137.041 73.0197 137.041C73.7462 137.041 74.3468 137.284 74.8021 137.762C75.2671 138.239 75.4899 138.816 75.4899 139.492C75.4899 139.609 75.4802 139.726 75.4608 139.852H71.2954ZM73.0197 137.807C72.5547 137.807 72.1673 137.933 71.867 138.176C71.5667 138.42 71.3729 138.744 71.3051 139.149H74.6277C74.5502 138.708 74.3662 138.374 74.0659 138.149C73.7559 137.924 73.4169 137.807 73.0197 137.807Z" fill="white"/>
<path d="M77.3497 137.951C77.6306 137.375 78.1537 137.086 78.8996 137.086V137.924C78.4734 137.906 78.1149 138.014 77.805 138.239C77.5047 138.465 77.3497 138.834 77.3497 139.338V141.789H76.4875V137.158H77.3497V137.951Z" fill="white"/>
<path d="M84.7117 137.05C85.2929 137.05 85.7676 137.221 86.1163 137.564C86.4651 137.906 86.6394 138.375 86.6394 138.96V141.798H85.7773V139.005C85.7773 138.627 85.6707 138.338 85.4479 138.131C85.2251 137.924 84.9248 137.825 84.5471 137.825C84.1111 137.825 83.7624 137.951 83.5009 138.203C83.2393 138.456 83.1037 138.834 83.1037 139.356V141.807H82.2416V137.176H83.1037V137.843C83.4524 137.311 83.9949 137.05 84.7117 137.05Z" fill="white"/>
<path d="M91.9672 137.176H92.8293V141.807H91.9672V141.014C91.5313 141.627 90.9113 141.933 90.0879 141.933C89.3905 141.933 88.7996 141.699 88.3055 141.221C87.8115 140.753 87.5693 140.176 87.5693 139.492C87.5693 138.816 87.8115 138.239 88.3055 137.762C88.7996 137.293 89.3905 137.05 90.0879 137.05C90.9113 137.05 91.541 137.357 91.9672 137.969V137.176ZM90.1945 141.14C90.6982 141.14 91.1244 140.978 91.4538 140.663C91.7928 140.347 91.9575 139.951 91.9575 139.483C91.9575 139.014 91.7928 138.618 91.4538 138.302C91.1147 137.987 90.6982 137.825 90.1945 137.825C89.7004 137.825 89.2742 137.987 88.9449 138.302C88.6058 138.618 88.4412 139.014 88.4412 139.483C88.4412 139.951 88.6058 140.347 88.9449 140.663C89.2839 140.987 89.7004 141.14 90.1945 141.14Z" fill="white"/>
<path d="M99.5229 137.05C100.085 137.05 100.53 137.221 100.879 137.555C101.228 137.888 101.392 138.347 101.392 138.924V141.798H100.53V138.951C100.53 138.591 100.433 138.311 100.23 138.122C100.027 137.924 99.7651 137.825 99.4357 137.825C99.0676 137.825 98.7673 137.942 98.5445 138.167C98.3217 138.393 98.2152 138.753 98.2152 139.23V141.807H97.353V138.96C97.353 138.6 97.2562 138.32 97.0721 138.131C96.8784 137.933 96.6265 137.834 96.2972 137.834C95.9291 137.834 95.6288 137.951 95.3866 138.185C95.1444 138.42 95.0185 138.771 95.0185 139.239V141.816H94.1564V137.185H95.0185V137.807C95.3575 137.311 95.8516 137.068 96.5006 137.068C97.169 137.068 97.6533 137.33 97.9633 137.852C98.3024 137.311 98.8255 137.05 99.5229 137.05Z" fill="white"/>
<path d="M103.204 139.852C103.291 140.266 103.495 140.591 103.814 140.816C104.134 141.041 104.531 141.158 105.006 141.158C105.664 141.158 106.139 140.933 106.439 140.483L107.176 140.87C106.691 141.564 105.965 141.915 104.986 141.915C104.192 141.915 103.553 141.69 103.059 141.221C102.565 140.762 102.323 140.176 102.323 139.474C102.323 138.78 102.565 138.194 103.049 137.735C103.533 137.275 104.163 137.041 104.928 137.041C105.655 137.041 106.255 137.284 106.711 137.762C107.176 138.239 107.398 138.816 107.398 139.492C107.398 139.609 107.389 139.726 107.369 139.852H103.204ZM104.928 137.807C104.463 137.807 104.076 137.933 103.776 138.176C103.475 138.42 103.282 138.744 103.214 139.149H106.527C106.449 138.708 106.265 138.374 105.965 138.149C105.674 137.924 105.325 137.807 104.928 137.807Z" fill="white"/>
<path d="M30.6106 151.104H32.7126V161.013H31.1143L26.5518 154.951V161.013H24.4497V151.104H26.048L30.6106 157.14V151.104Z" fill="white"/>
<path d="M41.0822 160.131C40.2975 160.851 39.3482 161.212 38.2245 161.212C37.1008 161.212 36.1418 160.851 35.3669 160.131C34.5919 159.41 34.2045 158.527 34.2045 157.473C34.2045 156.428 34.5919 155.545 35.3669 154.815C36.1418 154.095 37.0912 153.734 38.2245 153.734C39.3482 153.734 40.3072 154.095 41.0822 154.815C41.8668 155.536 42.2543 156.419 42.2543 157.473C42.2543 158.527 41.8571 159.41 41.0822 160.131ZM36.7424 158.878C37.1299 159.248 37.6239 159.428 38.2148 159.428C38.8057 159.428 39.2998 159.248 39.6872 158.878C40.0844 158.509 40.2781 158.041 40.2781 157.473C40.2781 156.906 40.0844 156.437 39.6872 156.077C39.2901 155.707 38.7961 155.527 38.2148 155.527C37.6336 155.527 37.1396 155.707 36.7424 156.077C36.355 156.446 36.1612 156.915 36.1612 157.473C36.1612 158.041 36.355 158.509 36.7424 158.878Z" fill="white"/>
<path d="M52.0477 153.743C52.9195 153.743 53.6169 154.005 54.14 154.536C54.6631 155.068 54.9247 155.77 54.9247 156.662V161.022H52.9582V156.788C52.9582 156.365 52.842 156.032 52.6192 155.797C52.3964 155.563 52.0767 155.446 51.6796 155.446C51.234 155.446 50.8852 155.581 50.6334 155.86C50.3815 156.14 50.2653 156.527 50.2653 157.05V161.031H48.3085V156.797C48.3085 156.374 48.1923 156.041 47.9695 155.806C47.7467 155.572 47.427 155.455 47.0299 155.455C46.5939 155.455 46.2452 155.59 45.9837 155.869C45.7221 156.14 45.5962 156.536 45.5962 157.059V161.04H43.6298V153.96H45.5962V154.707C46.0515 154.077 46.7586 153.761 47.7079 153.761C48.6379 153.761 49.3353 154.104 49.7809 154.779C50.2943 154.077 51.0499 153.743 52.0477 153.743Z" fill="white"/>
<path d="M62.3835 153.942H64.3499V161.022H62.3835V160.185C61.7926 160.869 60.9692 161.221 59.9036 161.221C58.8865 161.221 58.0147 160.86 57.2882 160.14C56.5617 159.419 56.2032 158.536 56.2032 157.482C56.2032 156.437 56.5617 155.554 57.2882 154.824C58.0147 154.104 58.8865 153.743 59.9036 153.743C60.9692 153.743 61.7926 154.086 62.3835 154.779V153.942ZM58.7606 158.914C59.1577 159.284 59.6615 159.473 60.2717 159.473C60.882 159.473 61.3857 159.284 61.7829 158.914C62.18 158.545 62.3835 158.059 62.3835 157.473C62.3835 156.887 62.18 156.41 61.7829 156.041C61.3857 155.671 60.882 155.482 60.2717 155.482C59.6615 155.482 59.1577 155.671 58.7606 156.041C58.3634 156.41 58.1697 156.896 58.1697 157.473C58.1697 158.059 58.3731 158.545 58.7606 158.914Z" fill="white"/>
<path d="M70.3655 153.743C71.1986 153.743 71.8863 154.005 72.4288 154.518C72.9713 155.041 73.2425 155.752 73.2425 156.671V161.013H71.2761V156.896C71.2761 156.428 71.1404 156.068 70.8692 155.815C70.598 155.563 70.2299 155.437 69.7746 155.437C69.2709 155.437 68.864 155.581 68.554 155.878C68.2538 156.176 68.0988 156.608 68.0988 157.194V161.013H66.1323V153.933H68.0988V154.725C68.5734 154.068 69.329 153.743 70.3655 153.743Z" fill="white"/>
<path d="M89.2356 151.104V161.013H87.1529V154.59L84.15 159.185L83.9078 159.194L80.9146 154.617V161.022H78.8125V151.113H80.9727L84.024 155.788L87.0657 151.113H89.2356V151.104Z" fill="white"/>
<path d="M96.9075 153.942H98.874V161.022H96.9075V160.185C96.3166 160.869 95.4932 161.221 94.4277 161.221C93.4106 161.221 92.5387 160.86 91.8122 160.14C91.0857 159.419 90.7273 158.536 90.7273 157.482C90.7273 156.437 91.0857 155.554 91.8122 154.824C92.5387 154.104 93.4106 153.743 94.4277 153.743C95.4932 153.743 96.3166 154.086 96.9075 154.779V153.942ZM93.2846 158.914C93.6818 159.284 94.1855 159.473 94.7958 159.473C95.4061 159.473 95.9098 159.284 96.3069 158.914C96.7041 158.545 96.9075 158.059 96.9075 157.473C96.9075 156.887 96.7041 156.41 96.3069 156.041C95.9098 155.671 95.4061 155.482 94.7958 155.482C94.1855 155.482 93.6818 155.671 93.2846 156.041C92.8875 156.41 92.6937 156.896 92.6937 157.473C92.6937 158.059 92.8875 158.545 93.2846 158.914Z" fill="white"/>
<path d="M104.88 153.743C105.713 153.743 106.401 154.005 106.943 154.518C107.486 155.041 107.757 155.752 107.757 156.671V161.013H105.79V156.896C105.79 156.428 105.655 156.068 105.384 155.815C105.112 155.563 104.744 155.437 104.289 155.437C103.785 155.437 103.378 155.581 103.068 155.878C102.768 156.176 102.613 156.608 102.613 157.194V161.013H100.647V153.933H102.613V154.725C103.097 154.068 103.853 153.743 104.88 153.743Z" fill="white"/>
<path d="M111.738 159.302H115.119V161.013H109.113V159.797L112.319 155.644H109.258V153.933H114.964V155.149L111.738 159.302Z" fill="white"/>
<path d="M122.588 160.131C121.803 160.851 120.854 161.212 119.73 161.212C118.606 161.212 117.647 160.851 116.872 160.131C116.097 159.41 115.71 158.527 115.71 157.473C115.71 156.428 116.097 155.545 116.872 154.815C117.647 154.095 118.597 153.734 119.73 153.734C120.854 153.734 121.813 154.095 122.588 154.815C123.372 155.536 123.76 156.419 123.76 157.473C123.76 158.527 123.362 159.41 122.588 160.131ZM118.257 158.878C118.645 159.248 119.139 159.428 119.73 159.428C120.321 159.428 120.815 159.248 121.202 158.878C121.599 158.509 121.793 158.041 121.793 157.473C121.793 156.906 121.599 156.437 121.202 156.077C120.805 155.707 120.311 155.527 119.73 155.527C119.149 155.527 118.655 155.707 118.257 156.077C117.87 156.446 117.676 156.915 117.676 157.473C117.667 158.041 117.86 158.509 118.257 158.878Z" fill="white"/>
<path d="M131.625 160.131C130.841 160.851 129.891 161.212 128.768 161.212C127.644 161.212 126.685 160.851 125.91 160.131C125.135 159.41 124.748 158.527 124.748 157.473C124.748 156.428 125.135 155.545 125.91 154.815C126.685 154.095 127.634 153.734 128.768 153.734C129.891 153.734 130.85 154.095 131.625 154.815C132.41 155.536 132.797 156.419 132.797 157.473C132.797 158.527 132.41 159.41 131.625 160.131ZM127.295 158.878C127.683 159.248 128.177 159.428 128.768 159.428C129.359 159.428 129.853 159.248 130.24 158.878C130.637 158.509 130.831 158.041 130.831 157.473C130.831 156.906 130.637 156.437 130.24 156.077C129.843 155.707 129.349 155.527 128.768 155.527C128.187 155.527 127.692 155.707 127.295 156.077C126.908 156.446 126.714 156.915 126.714 157.473C126.714 158.041 126.908 158.509 127.295 158.878Z" fill="white"/>
<path d="M136.149 155.158C136.333 154.707 136.633 154.365 137.05 154.14C137.467 153.915 137.941 153.797 138.455 153.797V155.833C137.854 155.77 137.321 155.878 136.847 156.176C136.372 156.473 136.139 156.95 136.139 157.635V161.022H134.173V153.942H136.139V155.158H136.149Z" fill="white"/>
<path d="M238.927 140.987H242.162V141.798H238.007V135.32H242.114V136.131H238.927V138.122H241.862V138.924H238.927V140.987Z" fill="white"/>
<path d="M247.5 141.798H246.483L245.088 140.05L243.693 141.798H242.676L244.584 139.42L242.792 137.176H243.819L245.097 138.78L246.386 137.176H247.403L245.611 139.42L247.5 141.798Z" fill="white"/>
<path d="M251.055 137.05C251.752 137.05 252.343 137.284 252.837 137.762C253.331 138.23 253.573 138.807 253.573 139.492C253.573 140.167 253.331 140.744 252.837 141.221C252.343 141.69 251.752 141.933 251.055 141.933C250.231 141.933 249.602 141.627 249.176 141.014V143.663H248.313V137.185H249.176V137.978C249.602 137.356 250.231 137.05 251.055 137.05ZM250.948 141.14C251.442 141.14 251.859 140.978 252.198 140.663C252.537 140.347 252.702 139.951 252.702 139.483C252.702 139.014 252.537 138.618 252.198 138.302C251.859 137.987 251.442 137.825 250.948 137.825C250.445 137.825 250.018 137.987 249.689 138.302C249.35 138.618 249.185 139.014 249.185 139.483C249.185 139.951 249.35 140.347 249.689 140.663C250.018 140.987 250.445 141.14 250.948 141.14Z" fill="white"/>
<path d="M255.046 136.33C254.881 136.33 254.736 136.275 254.629 136.176C254.523 136.077 254.465 135.942 254.465 135.798C254.465 135.654 254.523 135.519 254.629 135.411C254.736 135.303 254.881 135.248 255.046 135.248C255.201 135.248 255.336 135.303 255.453 135.411C255.569 135.519 255.617 135.645 255.617 135.798C255.617 135.951 255.559 136.077 255.453 136.176C255.346 136.275 255.201 136.33 255.046 136.33ZM254.61 141.798V137.167H255.472V141.798H254.61Z" fill="white"/>
<path d="M257.661 137.951C257.942 137.375 258.465 137.086 259.211 137.086V137.924C258.785 137.906 258.426 138.014 258.116 138.239C257.816 138.465 257.661 138.834 257.661 139.338V141.789H256.799V137.158H257.661V137.951Z" fill="white"/>
<path d="M263.638 137.176H264.568L262.534 142.086C262.321 142.609 262.02 143.014 261.642 143.284C261.265 143.555 260.819 143.681 260.325 143.654V142.906C260.935 142.951 261.381 142.636 261.662 141.96L261.759 141.789L259.589 137.176H260.519L262.175 140.726L263.638 137.176Z" fill="white"/>
<path d="M270.584 135.32C271.533 135.32 272.318 135.636 272.947 136.257C273.577 136.879 273.887 137.654 273.887 138.555C273.887 139.465 273.577 140.23 272.947 140.852C272.318 141.482 271.533 141.789 270.584 141.789H267.871V135.311H270.584V135.32ZM270.584 140.987C271.291 140.987 271.872 140.753 272.327 140.293C272.783 139.834 273.005 139.257 273.005 138.564C273.005 137.87 272.783 137.293 272.327 136.834C271.872 136.374 271.3 136.14 270.584 136.14H268.792V140.987H270.584Z" fill="white"/>
<path d="M279.04 137.176H279.902V141.807H279.04V141.014C278.604 141.627 277.984 141.933 277.161 141.933C276.463 141.933 275.873 141.699 275.379 141.221C274.885 140.753 274.642 140.176 274.642 139.492C274.642 138.816 274.885 138.239 275.379 137.762C275.873 137.293 276.463 137.05 277.161 137.05C277.984 137.05 278.614 137.356 279.04 137.969V137.176ZM277.277 141.14C277.781 141.14 278.207 140.978 278.536 140.663C278.876 140.347 279.04 139.951 279.04 139.483C279.04 139.014 278.876 138.618 278.536 138.302C278.197 137.987 277.781 137.825 277.277 137.825C276.783 137.825 276.357 137.987 276.028 138.302C275.689 138.618 275.524 139.014 275.524 139.483C275.524 139.951 275.689 140.347 276.028 140.663C276.357 140.987 276.773 141.14 277.277 141.14Z" fill="white"/>
<path d="M283.932 137.951H282.605V140.455C282.605 140.681 282.653 140.843 282.75 140.942C282.847 141.041 282.992 141.086 283.196 141.086C283.399 141.086 283.641 141.086 283.932 141.077V141.798C283.176 141.888 282.624 141.834 282.276 141.627C281.927 141.419 281.752 141.032 281.752 140.455V137.951H280.764V137.176H281.752V136.122L282.615 135.879V137.176H283.942V137.951H283.932Z" fill="white"/>
<path d="M285.317 139.852C285.404 140.266 285.608 140.591 285.928 140.816C286.247 141.041 286.644 141.158 287.119 141.158C287.778 141.158 288.252 140.933 288.553 140.483L289.289 140.87C288.805 141.564 288.078 141.915 287.1 141.915C286.305 141.915 285.666 141.69 285.172 141.221C284.678 140.762 284.436 140.176 284.436 139.474C284.436 138.78 284.678 138.194 285.162 137.735C285.647 137.275 286.276 137.041 287.042 137.041C287.768 137.041 288.369 137.284 288.824 137.762C289.289 138.239 289.512 138.816 289.512 139.492C289.512 139.609 289.502 139.726 289.483 139.852H285.317ZM287.032 137.807C286.567 137.807 286.179 137.933 285.879 138.176C285.579 138.42 285.385 138.744 285.317 139.149H288.64C288.562 138.708 288.378 138.374 288.078 138.149C287.778 137.924 287.429 137.807 287.032 137.807Z" fill="white"/>
<path d="M245.078 159.797C244.361 160.734 243.344 161.203 242.046 161.203C240.748 161.203 239.741 160.734 239.014 159.797C238.297 158.86 237.929 157.617 237.929 156.059C237.929 154.5 238.288 153.257 239.014 152.32C239.731 151.383 240.748 150.915 242.046 150.915C243.344 150.915 244.352 151.383 245.078 152.32C245.795 153.257 246.163 154.5 246.163 156.059C246.163 157.617 245.805 158.86 245.078 159.797ZM240.06 158.905C240.525 159.572 241.194 159.914 242.056 159.914C242.918 159.914 243.586 159.581 244.061 158.905C244.536 158.239 244.768 157.284 244.768 156.059C244.768 154.833 244.536 153.878 244.061 153.203C243.586 152.527 242.918 152.194 242.056 152.194C241.194 152.194 240.525 152.527 240.06 153.203C239.595 153.869 239.363 154.824 239.363 156.059C239.363 157.284 239.595 158.239 240.06 158.905Z" fill="white"/>
<path d="M247.199 161.013V159.941L250.958 156.374C251.965 155.437 252.469 154.635 252.469 153.968C252.469 153.41 252.285 152.978 251.917 152.662C251.549 152.347 251.103 152.194 250.58 152.194C249.573 152.194 248.846 152.635 248.391 153.527L247.199 152.878C247.539 152.239 248.003 151.752 248.594 151.419C249.185 151.086 249.844 150.924 250.571 150.924C251.462 150.924 252.237 151.194 252.895 151.743C253.554 152.293 253.883 153.023 253.883 153.95C253.883 154.95 253.254 156.04 251.985 157.221L249.263 159.734H254.077V161.004H247.199V161.013Z" fill="white"/>
<path d="M256.044 162.41L255.249 162.428L261.342 149.707L262.137 149.689L256.044 162.41Z" fill="white"/>
<path d="M267.513 155.167C268.327 155.311 268.995 155.635 269.508 156.149C270.032 156.662 270.283 157.302 270.283 158.085C270.283 159.049 269.925 159.806 269.218 160.365C268.511 160.923 267.649 161.202 266.631 161.202C265.818 161.202 265.101 161.031 264.471 160.689C263.842 160.347 263.396 159.851 263.135 159.194L264.326 158.545C264.636 159.464 265.411 159.914 266.641 159.914C267.3 159.914 267.842 159.752 268.259 159.437C268.675 159.121 268.879 158.671 268.879 158.094C268.879 157.518 268.675 157.067 268.259 156.743C267.842 156.419 267.3 156.257 266.641 156.257H266.273L265.711 155.446L268.181 152.347H263.444V151.113H269.838L269.828 152.266L267.513 155.167Z" fill="white"/>
<path d="M278.672 159.797C277.955 160.734 276.938 161.203 275.64 161.203C274.342 161.203 273.335 160.734 272.608 159.797C271.891 158.86 271.523 157.617 271.523 156.059C271.523 154.5 271.882 153.257 272.608 152.32C273.325 151.383 274.342 150.915 275.64 150.915C276.938 150.915 277.946 151.383 278.672 152.32C279.389 153.257 279.757 154.5 279.757 156.059C279.757 157.617 279.399 158.86 278.672 159.797ZM273.654 158.905C274.119 159.572 274.788 159.914 275.65 159.914C276.512 159.914 277.18 159.581 277.655 158.905C278.13 158.239 278.362 157.284 278.362 156.059C278.362 154.833 278.13 153.878 277.655 153.203C277.18 152.527 276.512 152.194 275.65 152.194C274.788 152.194 274.119 152.527 273.654 153.203C273.189 153.869 272.957 154.824 272.957 156.059C272.947 157.284 273.18 158.239 273.654 158.905Z" fill="white"/>
<path d="M54.7697 123.825H28.6151C26.9393 123.825 25.5637 122.546 25.5637 120.987V102.979C25.5637 101.42 26.9393 100.141 28.6151 100.141H54.7697C56.4455 100.141 57.821 101.42 57.821 102.979V120.987C57.821 122.546 56.4455 123.825 54.7697 123.825Z" fill="#F6C859"/>
<path d="M37.9726 120.663C37.837 120.663 37.7014 120.591 37.6433 120.474C37.5464 120.303 37.6239 120.096 37.8079 120.005C38.3504 119.744 39.0866 119.267 39.5128 118.429C40.0553 117.366 39.91 116.213 39.6872 116.114C39.6291 116.087 39.4063 116.195 39.2707 116.258C38.9219 116.429 38.4279 116.654 37.8661 116.474C37.3139 116.294 37.0427 115.834 36.9167 115.618C36.074 114.177 35.8124 110.429 36.7036 108.564C37.0039 107.943 37.4011 107.582 37.9048 107.474C38.4182 107.366 38.8347 107.564 39.1641 107.727C39.4353 107.862 39.5806 107.916 39.6581 107.871C40.0069 107.673 39.9972 106.483 39.5128 105.537C39.0866 104.7 38.3504 104.222 37.8079 103.961C37.6239 103.871 37.5561 103.664 37.6433 103.492C37.7401 103.321 37.9629 103.258 38.147 103.339C38.7863 103.646 39.6678 104.222 40.1812 105.24C40.6946 106.24 40.9368 107.961 40.0359 108.465C39.5806 108.718 39.1544 108.51 38.8057 108.348C38.5441 108.222 38.302 108.105 38.0598 108.159C37.7304 108.231 37.5076 108.582 37.372 108.862C36.5874 110.483 36.8102 114.033 37.5561 115.303C37.682 115.519 37.837 115.753 38.0985 115.834C38.3504 115.916 38.5829 115.816 38.9219 115.654C39.2513 115.501 39.6194 115.321 40.0069 115.501C40.8399 115.879 40.7915 117.555 40.1812 118.744C39.6678 119.753 38.7863 120.339 38.147 120.645C38.0889 120.654 38.0307 120.663 37.9726 120.663Z" fill="#7D662D"/>
<path d="M36.8587 109.195H30.136C29.9325 109.195 29.7582 109.042 29.7582 108.844C29.7582 108.645 29.9229 108.492 30.136 108.492H36.8587C37.0621 108.492 37.2365 108.645 37.2365 108.844C37.2365 109.042 37.0621 109.195 36.8587 109.195Z" fill="#7D662D"/>
<path d="M36.8587 115.456H30.136C29.9325 115.456 29.7582 115.303 29.7582 115.105C29.7582 114.907 29.9229 114.753 30.136 114.753H36.8587C37.0621 114.753 37.2365 114.907 37.2365 115.105C37.2365 115.303 37.0621 115.456 36.8587 115.456Z" fill="#7D662D"/>
<path d="M45.819 120.663C45.7609 120.663 45.7027 120.654 45.6446 120.627C45.0053 120.321 44.1238 119.744 43.6104 118.726C43.0001 117.537 42.9517 115.861 43.7847 115.483C44.1722 115.312 44.5403 115.483 44.8697 115.636C45.2087 115.798 45.4412 115.897 45.6931 115.816C45.974 115.726 46.1387 115.447 46.2355 115.285C46.9814 114.015 47.2042 110.474 46.4196 108.844C46.284 108.564 46.0515 108.213 45.7318 108.141C45.5284 108.096 45.4024 107.907 45.4509 107.727C45.4993 107.537 45.7027 107.429 45.8965 107.465C46.4002 107.573 46.7974 107.943 47.0977 108.564C47.9888 110.429 47.737 114.177 46.8845 115.618C46.7586 115.834 46.4874 116.294 45.9352 116.474C45.3734 116.654 44.8794 116.429 44.5306 116.258C44.395 116.195 44.1625 116.087 44.1141 116.114C43.8913 116.213 43.746 117.366 44.2885 118.429C44.7147 119.267 45.4509 119.744 45.9934 120.005C46.1774 120.096 46.2452 120.303 46.158 120.474C46.0902 120.591 45.9546 120.663 45.819 120.663Z" fill="#7D662D"/>
<path d="M44.3273 107.808C44.1723 107.808 44.027 107.718 43.9689 107.573C43.1648 105.339 45.0441 103.619 45.6447 103.33C45.8287 103.24 46.0515 103.312 46.1484 103.483C46.2453 103.655 46.1678 103.862 45.9837 103.952C45.7125 104.078 43.9882 105.456 44.676 107.357C44.7438 107.537 44.6373 107.736 44.4435 107.799C44.4048 107.799 44.366 107.808 44.3273 107.808Z" fill="#7D662D"/>
<path d="M53.6654 109.195H46.9427C46.7393 109.195 46.5649 109.042 46.5649 108.844C46.5649 108.645 46.7296 108.492 46.9427 108.492H53.6654C53.8689 108.492 54.0432 108.645 54.0432 108.844C54.0432 109.042 53.8785 109.195 53.6654 109.195Z" fill="#7D662D"/>
<path d="M53.6654 115.456H46.9427C46.7393 115.456 46.5649 115.303 46.5649 115.105C46.5649 114.907 46.7296 114.753 46.9427 114.753H53.6654C53.8689 114.753 54.0432 114.907 54.0432 115.105C54.0432 115.303 53.8785 115.456 53.6654 115.456Z" fill="#7D662D"/>
<defs>
<linearGradient id="paint0_linear_1045_10" x1="35.7371" y1="215.073" x2="272.753" y2="-39.7841" gradientUnits="userSpaceOnUse">
<stop stop-color="#1B1464"/>
<stop offset="1" stop-color="#83EFFF"/>
</linearGradient>
<linearGradient id="paint1_linear_1045_10" x1="217.486" y1="97.7581" x2="311.708" y2="-3.55615" gradientUnits="userSpaceOnUse">
<stop stop-color="#83EFFF"/>
<stop offset="1" stop-color="#1B1464"/>
</linearGradient>
<linearGradient id="paint2_linear_1045_10" x1="55.9891" y1="233.904" x2="268.756" y2="5.12106" gradientUnits="userSpaceOnUse">
<stop stop-color="#1B1464"/>
<stop offset="1" stop-color="#83EFFF"/>
</linearGradient>
<linearGradient id="paint3_linear_1045_10" x1="-11.3247" y1="78.4172" x2="79.7497" y2="-19.5128" gradientUnits="userSpaceOnUse">
<stop stop-color="#1B1464"/>
<stop offset="1" stop-color="#83EFFF"/>
</linearGradient>
<linearGradient id="paint4_linear_1045_10" x1="139.577" y1="224.479" x2="203.364" y2="155.891" gradientUnits="userSpaceOnUse">
<stop stop-color="#C3976A"/>
<stop offset="1" stop-color="#83EFFF"/>
</linearGradient>
<linearGradient id="paint5_linear_1045_10" x1="60.4844" y1="238.088" x2="216.958" y2="69.8359" gradientUnits="userSpaceOnUse">
<stop stop-color="#1B1464"/>
<stop offset="1" stop-color="#83EFFF"/>
</linearGradient>
<linearGradient id="paint6_linear_1045_10" x1="35.7371" y1="215.073" x2="272.753" y2="-39.7841" gradientUnits="userSpaceOnUse">
<stop stop-color="#064A5B"/>
<stop offset="1" stop-color="#02CAFD"/>
</linearGradient>
</defs>
</svg>
