<svg width="19" height="19" viewBox="0 0 19 19" fill="none" xmlns="http://www.w3.org/2000/svg">
<path d="M8.46464 17.8271L1.17297 10.5354C1.0402 10.3967 0.936128 10.2332 0.866719 10.0542C0.72086 9.6991 0.72086 9.30087 0.866719 8.94582C0.936128 8.76681 1.0402 8.60326 1.17297 8.46457L8.46464 1.1729C8.60061 1.03693 8.76203 0.92907 8.93969 0.855482C9.11734 0.781894 9.30776 0.744018 9.50005 0.744018C9.88841 0.744018 10.2609 0.898292 10.5355 1.1729C10.8101 1.44751 10.9644 1.81996 10.9644 2.20832C10.9644 2.59668 10.8101 2.96913 10.5355 3.24374L5.72297 8.04165L16.7917 8.04165C17.1785 8.04165 17.5494 8.1953 17.8229 8.46879C18.0964 8.74228 18.2501 9.11321 18.2501 9.49998C18.2501 9.88676 18.0964 10.2577 17.8229 10.5312C17.5494 10.8047 17.1785 10.9583 16.7917 10.9583L5.72297 10.9583L10.5355 15.7562C10.6722 15.8918 10.7806 16.0531 10.8547 16.2308C10.9287 16.4085 10.9668 16.5991 10.9668 16.7917C10.9668 16.9842 10.9287 17.1748 10.8547 17.3525C10.7806 17.5302 10.6722 17.6915 10.5355 17.8271C10.3999 17.9638 10.2386 18.0722 10.0609 18.1463C9.88318 18.2203 9.69257 18.2584 9.50005 18.2584C9.30754 18.2584 9.11692 18.2203 8.93921 18.1463C8.7615 18.0722 8.60021 17.9638 8.46464 17.8271Z" fill="#19213E"/>
</svg>
