<svg width="27" height="31" viewBox="0 0 27 31" fill="none" xmlns="http://www.w3.org/2000/svg">
<path d="M18.3534 24.4231V25.5385C18.3534 26.7217 17.8941 27.8565 17.0764 28.6932C16.2588 29.5299 15.1498 30 13.9935 30C12.8372 30 11.7282 29.5299 10.9105 28.6932C10.0929 27.8565 9.63355 26.7217 9.63355 25.5385V24.4231M25.689 22.1526C23.9396 19.9615 22.7045 18.8462 22.7045 12.8056C22.7045 7.27404 19.9441 5.30329 17.6722 4.34615C17.3704 4.21928 17.0863 3.92788 16.9944 3.6107C16.5958 2.22274 15.4786 1 13.9935 1C12.5084 1 11.3905 2.22344 10.996 3.61209C10.9041 3.93276 10.62 4.21928 10.3182 4.34615C8.04354 5.30469 5.28587 7.26846 5.28587 12.8056C5.28247 18.8462 4.04738 19.9615 2.29795 22.1526C1.57311 23.0602 2.20803 24.4231 3.47582 24.4231H24.518C25.7789 24.4231 26.4098 23.056 25.689 22.1526Z" stroke="#19213E" stroke-width="2" stroke-linecap="round" stroke-linejoin="round"/>
</svg>
