<svg width="12" height="6" viewBox="0 0 12 6" fill="none" xmlns="http://www.w3.org/2000/svg">
<path d="M0.930949 5.84303L5.61595 1.23203C5.71817 1.1309 5.85616 1.07417 5.99995 1.07417C6.14374 1.07417 6.28173 1.1309 6.38395 1.23203L11.0699 5.84203C11.1731 5.94263 11.3114 5.99894 11.4554 5.99894C11.5995 5.99894 11.7378 5.94263 11.8409 5.84203C11.8916 5.79265 11.9318 5.73363 11.9593 5.66846C11.9868 5.60328 12.001 5.53326 12.001 5.46253C12.001 5.39179 11.9868 5.32177 11.9593 5.2566C11.9318 5.19142 11.8916 5.1324 11.8409 5.08303L7.15695 0.473025C6.84843 0.170099 6.43333 0.000380516 6.00095 0.000380516C5.56857 0.000380516 5.15347 0.170099 4.84495 0.473025L0.16095 5.08303C0.110147 5.13242 0.0697651 5.1915 0.0421906 5.25677C0.014616 5.32203 0.000408173 5.39217 0.000408173 5.46303C0.000408173 5.53388 0.014616 5.60402 0.0421906 5.66929C0.0697651 5.73456 0.110147 5.79363 0.16095 5.84303C0.264053 5.94363 0.402398 5.99994 0.54645 5.99994C0.690501 5.99994 0.828846 5.94363 0.93195 5.84303" fill="#231C35"/>
</svg>
