<svg width="14" height="22" viewBox="0 0 14 22" fill="none" xmlns="http://www.w3.org/2000/svg">
<path d="M0.761811 20.9436C0.433737 20.6506 0.249435 20.2532 0.249435 19.8389C0.249435 19.4246 0.433737 19.0272 0.761811 18.7342L9.42431 10.9998L0.76181 3.26546C0.443034 2.97077 0.266644 2.57608 0.270631 2.16639C0.274618 1.75671 0.458664 1.36482 0.783128 1.07511C1.10759 0.785414 1.54651 0.621089 2.00536 0.617529C2.4642 0.613968 2.90626 0.77146 3.23631 1.05608L13.1361 9.89515C13.4641 10.1882 13.6484 10.5855 13.6484 10.9998C13.6484 11.4142 13.4641 11.8115 13.1361 12.1045L3.23631 20.9436C2.90814 21.2365 2.4631 21.4011 1.99906 21.4011C1.53502 21.4011 1.08998 21.2365 0.761811 20.9436Z" fill="white"/>
</svg>
