<svg width="24" height="37" viewBox="0 0 24 37" fill="none" xmlns="http://www.w3.org/2000/svg">
<path d="M8.25413 23.6879C7.8667 23.6879 7.53822 23.6269 7.28975 23.5009C6.0727 22.8913 5.10411 19.9569 5.12095 16.9413C5.12938 14.9701 6.42223 13.885 8.35942 13.885C9.39539 13.885 10.6124 14.1938 11.9179 14.8441C15.666 16.7096 16.6303 19.648 14.0867 21.4038C12.0695 22.8059 9.74071 23.6879 8.25413 23.6879ZM7.77826 10.8612C7.22237 10.8612 6.72123 10.9303 6.28747 11.0685C4.60297 11.5684 3.93338 13.0843 4.06393 15.1977C4.19447 17.307 4.87249 19.4936 5.37363 21.0868C5.9253 22.7003 6.30432 23.7204 6.99075 24.0618C7.19711 24.1634 7.43715 24.2121 7.72351 24.2121C8.38047 24.2121 9.26484 23.9642 10.444 23.6147C12.078 23.0904 14.3184 22.3548 16.1797 21.2371C18.0369 20.1195 18.9381 18.7133 18.3822 17.0998C17.8769 15.5106 15.9228 13.7061 13.2487 12.3731C11.282 11.3855 9.32801 10.8612 7.77826 10.8612ZM0.98549 9.04041C0.0211102 10.2515 5.40167e-05 12.243 0.640166 14.71C1.53717 18.1849 3.09112 21.6964 3.81546 24.0414C4.64929 26.4393 4.6535 27.6708 4.97777 27.8293C5.01146 27.8456 5.04515 27.8537 5.09147 27.8537C5.51681 27.8537 6.58647 27.2115 8.85213 26.5531C11.2526 25.7647 15.1185 24.9518 18.5759 23.6472C21.0101 22.7287 22.6735 21.5663 23.1536 20.1235C22.3787 21.1315 20.9679 21.9809 19.0981 22.684C15.6407 23.9886 11.7748 24.8015 9.37433 25.5899C7.10867 26.2524 6.04322 26.8945 5.61788 26.8945C5.57156 26.8945 5.53366 26.8864 5.49997 26.8701C5.1757 26.7076 5.17149 25.4802 4.33766 23.0782C3.61332 20.7332 2.06357 17.2217 1.16236 13.7468C0.665434 11.8528 0.564363 10.2353 0.98549 9.04041Z" fill="#B4BD00"/>
<path d="M5.10409 6.74011C4.37133 6.74011 3.7228 6.82546 3.18375 7.00429C2.0425 7.33755 1.33501 8.04473 0.985474 9.04046C1.38133 8.54463 1.93301 8.17885 2.66156 7.96751C3.20481 7.78868 3.85335 7.70333 4.58611 7.70333C7.10023 7.70333 10.6082 8.71939 14.2341 10.5239C18.917 12.8568 22.3745 15.8074 23.0946 18.1524C23.3431 18.8637 23.3473 19.518 23.1494 20.1236C23.8063 19.266 24 18.2906 23.6168 17.1892C22.8967 14.8442 19.4392 11.8976 14.7563 9.56475C11.1304 7.7521 7.61822 6.74011 5.10409 6.74011Z" fill="#BDCA8B"/>
<path d="M7.72763 24.208C7.44547 24.208 7.20122 24.1633 6.99487 24.0577C6.30843 23.7163 5.92942 22.6962 5.37774 21.0827C4.8766 19.4936 4.19859 17.3029 4.06804 15.1936C3.93749 13.0843 4.60287 11.5643 6.29159 11.0644C6.72535 10.9262 7.22649 10.8571 7.78237 10.8571C9.33212 10.8571 11.2861 11.3854 13.257 12.3649C15.9312 13.698 17.8852 15.5025 18.3905 17.0916C18.9422 18.7051 18.0452 20.1113 16.1881 21.229C14.3309 22.3466 12.0863 23.0823 10.4523 23.6065C9.26895 23.9642 8.38458 24.208 7.72763 24.208ZM4.58602 7.70325C3.85326 7.70325 3.20052 7.7886 2.66148 7.96742C1.93293 8.17876 1.38125 8.54454 0.985392 9.04038C0.568477 10.2353 0.669548 11.8528 1.15805 13.7467C2.05927 17.2217 3.60901 20.7372 4.33335 23.0782C5.16718 25.4802 5.17139 26.7075 5.49566 26.8701C5.52935 26.8864 5.56725 26.8945 5.61357 26.8945C6.03891 26.8945 7.10857 26.2524 9.37002 25.5899C11.7704 24.8014 15.6364 23.9886 19.0938 22.684C20.9636 21.9809 22.3744 21.1314 23.1493 20.1235C23.3514 19.5179 23.343 18.8595 23.0945 18.1524C22.3744 15.8073 18.917 12.8567 14.234 10.5238C10.6081 8.71524 7.10015 7.70325 4.58602 7.70325Z" fill="#789904"/>
</svg>
