<svg width="96" height="27" viewBox="0 0 96 27" fill="none" xmlns="http://www.w3.org/2000/svg">
<path d="M59.0885 14.227C59.3308 13.4539 59.5385 12.6808 59.7808 11.8731C60.0808 10.8577 60.3577 9.86544 60.6693 8.86159C60.8885 8.14621 61.2462 7.86928 61.9846 7.86928C62.5039 7.86928 63.0231 7.86928 63.5308 7.86928C64.2 7.86928 64.5923 8.14621 64.7769 8.79236C65.2731 10.4308 65.7462 12.0924 66.2193 13.7308C66.2654 13.8808 66.3231 14.0539 66.4385 14.2039C66.5193 13.9501 66.5885 13.7077 66.6808 13.4539C67.1077 11.9885 67.5462 10.5001 67.9962 9.03467C68.25 8.16928 68.6885 7.8462 69.5654 7.8462C70.1308 7.8462 70.6846 7.8462 71.2269 7.8462C71.7 7.8462 71.8962 8.06544 71.7923 8.51544C71.6423 9.09236 71.4462 9.68082 71.2731 10.2347C70.4308 12.8654 69.5654 15.5193 68.7346 18.1385C68.4923 18.8539 68.0423 19.1539 67.3154 19.177C66.9116 19.177 66.4962 19.177 66.0923 19.177C65.3654 19.177 64.8808 18.8308 64.6731 18.1385C64.0962 16.2693 63.4846 14.3885 62.9077 12.5193C62.8846 12.4154 62.8385 12.3231 62.7808 12.127C62.7116 12.3001 62.7 12.3808 62.6539 12.4731C62.0539 14.3424 61.4654 16.2462 60.8654 18.1154C60.6462 18.8308 60.1731 19.1539 59.4231 19.1539C58.9962 19.1539 58.5808 19.1539 58.1539 19.1539C57.4616 19.1539 57.0116 18.8078 56.7923 18.1616C55.8693 15.3001 54.9577 12.4501 54.0346 9.58851C53.9539 9.28851 53.8385 9.01159 53.7577 8.70005C53.7116 8.55005 53.6885 8.40005 53.6885 8.25005C53.6885 7.95005 53.8385 7.80005 54.1385 7.80005C54.8308 7.80005 55.5 7.77697 56.1808 7.80005C56.8039 7.82313 57.2539 8.19236 57.45 8.79236C57.9462 10.477 58.4423 12.1501 58.9616 13.8347C58.9846 13.9385 59.0308 14.0308 59.0423 14.1347C59.0308 14.227 59.0539 14.227 59.0885 14.227Z" fill="#231C35"/>
<path d="M49.3962 18.3231C49.2231 18.4269 49.0731 18.5192 48.9231 18.6C47.85 19.2692 46.6385 19.4885 45.3923 19.4423C44.5731 19.3962 43.8 19.2692 43.0385 18.9231C41.6769 18.3 40.9269 17.1346 40.9731 15.75C41.0192 14.2039 41.8154 13.1885 43.2346 12.6231C43.9846 12.3231 44.7808 12.1962 45.6 12.1962C46.6615 12.1962 47.7346 12.1962 48.7846 12.1962C49.0615 12.1962 49.1308 12.1154 49.1077 11.85C48.9577 10.5346 48.4154 10.0154 47.0769 10.0154C46.5346 10.0154 46.0154 10.0846 45.5423 10.3385C45.3692 10.4423 45.1962 10.5808 45.0462 10.7308C44.7231 11.1 44.3308 11.2731 43.8577 11.2731C43.4077 11.2731 42.9577 11.2731 42.4962 11.2731C41.9539 11.2731 41.7231 10.9962 41.7692 10.4538C41.85 9.39231 42.4154 8.71154 43.3615 8.27308C44.1346 7.92693 44.9539 7.8 45.7962 7.7077C46.9615 7.62693 48.1269 7.58077 49.2692 7.88077C50.5154 8.18077 51.5308 8.80385 52.1308 9.99231C52.4539 10.6385 52.5808 11.3077 52.5808 12.0231C52.5808 14.1808 52.5808 16.3385 52.5808 18.5077C52.5808 19.0269 52.3615 19.2231 51.8654 19.2231C51.3 19.2231 50.7462 19.2231 50.2039 19.2231C49.6385 19.2231 49.4539 19.05 49.4308 18.4731C49.4192 18.45 49.4192 18.4039 49.3962 18.3231ZM47.3539 14.55C46.8346 14.5731 46.2923 14.55 45.7846 14.5731C45.2654 14.5962 44.8385 14.8269 44.5962 15.3231C44.25 16.05 44.6769 16.8577 45.5192 17.0308C46.7885 17.2846 47.9308 16.8808 49.0154 16.2346C49.0846 16.1885 49.1192 16.0615 49.1192 15.9577C49.1423 15.5885 49.1192 15.2077 49.1192 14.8385C49.1192 14.6192 49.0385 14.5615 48.8423 14.5615C48.3346 14.55 47.85 14.55 47.3539 14.55Z" fill="#231C35"/>
<path d="M88.7655 18.3809C88.4193 18.3347 88.1193 18.3116 87.8424 18.2539C86.8732 18.0809 86.1001 17.5847 85.4886 16.8116C84.8193 15.9462 84.4155 14.977 84.0924 13.9616C83.527 12.1732 82.9963 10.3847 82.477 8.59624C82.3501 8.16932 82.5463 7.90393 82.9963 7.90393C83.6424 7.90393 84.3116 7.90393 84.9578 7.90393C85.477 7.90393 85.8232 8.15778 85.9732 8.67701C86.4693 10.2693 86.9424 11.8616 87.4386 13.4655C87.6347 14.1116 87.8886 14.7347 88.327 15.277C88.5578 15.5539 88.8463 15.7732 89.2155 15.8424C89.4347 15.8886 89.5386 15.8424 89.6078 15.6001C90.1847 13.4886 90.7732 11.377 91.3501 9.26547C91.4193 9.04624 91.477 8.81547 91.5463 8.59624C91.6732 8.14624 91.9963 7.90393 92.4693 7.90393C93.1155 7.90393 93.7617 7.90393 94.4078 7.90393C94.904 7.90393 95.1001 8.15778 94.9732 8.61932C94.0501 11.977 93.1386 15.3693 92.1924 18.727C91.9732 19.5001 91.627 20.2616 91.2693 20.9655C90.577 22.2809 89.4347 22.9732 87.9463 22.9501C87.0463 22.9501 86.1347 22.8462 85.2347 22.7309C84.7847 22.6847 84.5886 22.4309 84.5886 21.9809C84.5886 21.6347 84.5886 21.3116 84.5886 20.9655C84.5886 20.5616 84.8309 20.3193 85.2347 20.3193C85.6616 20.3424 86.1232 20.3886 86.5501 20.4462C87.1732 20.5501 87.7155 20.377 88.1193 19.9039C88.4193 19.4886 88.6155 18.9693 88.7655 18.3809Z" fill="#231C35"/>
<path d="M32.3078 13.5347C32.3078 11.8963 32.2617 10.2809 32.3309 8.64241C32.354 7.99625 32.504 7.32702 32.7001 6.70394C33.127 5.41164 34.1424 4.7424 35.4117 4.4424C36.8078 4.09625 38.2386 4.11933 39.6578 4.24625C40.027 4.26933 40.3847 4.32702 40.7309 4.39625C41.1809 4.47702 41.377 4.71933 41.377 5.16933C41.377 5.49241 41.377 5.7924 41.377 6.11548C41.354 6.56548 41.1347 6.80779 40.6617 6.80779C40.3386 6.80779 40.0155 6.78471 39.6924 6.72702C38.827 6.55394 37.9732 6.62317 37.1309 6.83087C36.3117 7.02702 35.9194 7.52318 35.8155 8.46933C35.7694 8.74625 35.7694 9.04626 35.7463 9.33472C35.7232 9.58856 35.8155 9.68087 36.0924 9.68087C37.154 9.65779 38.227 9.68087 39.277 9.68087C39.8424 9.68087 40.027 9.87702 40.0501 10.4309C40.0501 10.777 40.0501 11.1232 40.0501 11.4693C40.0501 11.9193 39.8078 12.1616 39.3347 12.1616C38.2617 12.1616 37.154 12.1616 36.0809 12.1616C35.827 12.1616 35.7347 12.2424 35.7347 12.5078C35.7347 14.4924 35.7347 16.477 35.7347 18.4732C35.7347 19.0732 35.5386 19.2693 34.9386 19.2693C34.3155 19.2693 33.6693 19.2693 33.0463 19.2693C32.4693 19.2693 32.2732 19.0732 32.2732 18.4963C32.2847 16.8116 32.2847 15.1732 32.3078 13.5347Z" fill="#231C35"/>
<path d="M76.7654 9.16162C77.0885 8.94239 77.3308 8.76931 77.5616 8.61931C78.6808 7.89239 79.927 7.67316 81.2424 7.67316C81.6116 7.67316 81.8424 7.91547 81.8654 8.29624C81.8885 8.81547 81.8885 9.35777 81.8654 9.86547C81.8424 10.2693 81.6231 10.4885 81.2193 10.4885C80.7462 10.4885 80.2501 10.4885 79.777 10.4424C78.8308 10.3616 78.0578 10.6962 77.3424 11.3309C76.9154 11.7232 76.7193 12.127 76.7424 12.727C76.7885 14.6193 76.7654 16.5232 76.7654 18.4385C76.7654 19.0386 76.5693 19.2347 75.9462 19.2347C75.277 19.2347 74.6308 19.2347 73.9616 19.2347C73.5116 19.2347 73.2693 18.9924 73.2693 18.5424C73.2693 15.2193 73.2693 11.9078 73.2693 8.5847C73.2693 8.1347 73.5116 7.89239 73.9616 7.89239C74.677 7.89239 75.3808 7.89239 76.0962 7.89239C76.5231 7.89239 76.7424 8.1347 76.7654 8.56162C76.7654 8.7347 76.7654 8.90778 76.7654 9.16162Z" fill="#231C35"/>
<path d="M26.8962 13.4539C26.8962 20.8847 20.8846 26.8962 13.4539 26.8962C12.0346 26.8962 10.6731 26.677 9.40385 26.2732C7.48847 25.6732 5.74616 24.6347 4.29231 23.2732C1.63846 20.8385 0 17.3308 0 13.4424C0 6.0116 6.01154 6.10352e-05 13.4423 6.10352e-05C15.0577 6.10352e-05 16.5923 0.276987 18.0115 0.796218C19.8692 1.46545 21.5423 2.53853 22.9039 3.90007C25.3731 6.35776 26.8962 9.72699 26.8962 13.4539Z" fill="#FFD200"/>
<path d="M19.6846 19.1655L17.873 18.2655C17.873 18.2655 14.7922 23.8847 9.38071 26.2847C7.46532 25.6847 5.72301 24.6463 4.26917 23.2847C5.45763 23.1116 7.37301 22.5116 9.38071 20.527C12.6807 17.2963 13.4307 15.5078 13.4307 15.5078L12.0115 14.5616C11.5153 14.2386 11.6192 13.5001 12.1615 13.3155L18.3692 11.1578C18.7961 11.0078 19.2576 11.2847 19.2923 11.7347L20.2153 18.7616C20.3076 19.0732 19.9846 19.3155 19.6846 19.1655Z" fill="#231C35"/>
<path d="M21.5538 11.377C21.4038 11.7693 20.8385 11.7 20.7808 11.2962L20.3769 8.93082L17.3192 9.87697C16.9731 9.98081 16.6731 9.63466 16.8231 9.31158C17.2269 8.4462 17.8154 7.00389 18.2884 5.15774C18.7154 3.39235 18.4154 1.83466 18.0461 0.830811C19.9038 1.50004 21.5769 2.57312 22.9385 3.93466C23.1692 6.72697 22.2 9.72697 21.5538 11.377Z" fill="#231C35"/>
</svg>
