<svg width="22" height="22" viewBox="0 0 22 22" fill="none" xmlns="http://www.w3.org/2000/svg">
<path d="M16.5 7.33333C16.5 7.81956 16.3069 8.28588 15.9631 8.6297C15.6193 8.97351 15.1529 9.16667 14.6667 9.16667C14.1805 9.16667 13.7142 8.97351 13.3703 8.6297C13.0265 8.28588 12.8334 7.81956 12.8334 7.33333C12.8334 6.8471 13.0265 6.38079 13.3703 6.03697C13.7142 5.69315 14.1805 5.5 14.6667 5.5C15.1529 5.5 15.6193 5.69315 15.9631 6.03697C16.3069 6.38079 16.5 6.8471 16.5 7.33333Z" fill="white"/>
<path fill-rule="evenodd" clip-rule="evenodd" d="M11.0523 1.14581H10.9478C8.83121 1.14581 7.17296 1.14581 5.87862 1.31998C4.55496 1.49781 3.50996 1.86998 2.68954 2.68948C1.86912 3.5099 1.49787 4.5549 1.32004 5.87948C1.14587 7.1729 1.14587 8.83115 1.14587 10.9477V11.0522C1.14587 13.1688 1.14587 14.8271 1.32004 16.1214C1.49787 17.4451 1.87004 18.4901 2.68954 19.3105C3.50996 20.1309 4.55496 20.5021 5.87954 20.68C7.17296 20.8541 8.83121 20.8541 10.9478 20.8541H11.0523C13.1689 20.8541 14.8271 20.8541 16.1215 20.68C17.4451 20.5021 18.4901 20.13 19.3105 19.3105C20.131 18.4901 20.5022 17.4451 20.68 16.1205C20.8542 14.8271 20.8542 13.1688 20.8542 11.0522V10.9477C20.8542 8.83115 20.8542 7.1729 20.68 5.87856C20.5022 4.5549 20.13 3.5099 19.3105 2.68948C18.4901 1.86906 17.4451 1.49781 16.1205 1.31998C14.8271 1.14581 13.1689 1.14581 11.0523 1.14581ZM3.66212 3.66206C4.18462 3.13956 4.89046 2.83981 6.06287 2.68215C7.25454 2.52265 8.82021 2.52081 11 2.52081C13.1799 2.52081 14.7455 2.52265 15.9372 2.68215C17.1096 2.83981 17.8164 3.14048 18.3389 3.66206C18.8605 4.18456 19.1602 4.8904 19.3179 6.06281C19.4774 7.25448 19.4792 8.82015 19.4792 11L19.4783 12.1733L19.2748 12.1458C16.6678 11.7846 14.2826 13.1395 13.0671 15.1827C11.4996 11.2181 7.35904 8.51398 2.73262 9.17856L2.52546 9.2079C2.53554 7.91998 2.57037 6.89881 2.68221 6.06281C2.83987 4.8904 3.14054 4.18456 3.66212 3.66206Z" fill="white"/>
</svg>
