<svg width="428" height="452" viewBox="0 0 428 452" fill="none" xmlns="http://www.w3.org/2000/svg">
<path d="M0 0H428V156.033C428 156.033 374 176.209 214 156.033C54 135.856 0 156.033 0 156.033V0Z" fill="#001462"/>
<g opacity="0.05">
<path d="M20.68 303.88L9.7 346H-2.72L-9.44 318.28L-16.4 346H-28.82L-39.5 303.88H-28.52L-22.46 334.54L-14.96 303.88H-3.67999L3.52 334.54L9.64 303.88H20.68Z" fill="white"/>
<path d="M41.0655 346.48C37.7855 346.48 34.8255 345.78 32.1855 344.38C29.5855 342.98 27.5255 340.98 26.0055 338.38C24.5255 335.78 23.7855 332.74 23.7855 329.26C23.7855 325.82 24.5455 322.8 26.0655 320.2C27.5855 317.56 29.6655 315.54 32.3055 314.14C34.9455 312.74 37.9055 312.04 41.1855 312.04C44.4655 312.04 47.4254 312.74 50.0655 314.14C52.7054 315.54 54.7855 317.56 56.3055 320.2C57.8255 322.8 58.5855 325.82 58.5855 329.26C58.5855 332.7 57.8055 335.74 56.2455 338.38C54.7255 340.98 52.6255 342.98 49.9455 344.38C47.3055 345.78 44.3455 346.48 41.0655 346.48ZM41.0655 337.6C43.0255 337.6 44.6855 336.88 46.0455 335.44C47.4455 334 48.1455 331.94 48.1455 329.26C48.1455 326.58 47.4655 324.52 46.1055 323.08C44.7855 321.64 43.1455 320.92 41.1855 320.92C39.1855 320.92 37.5255 321.64 36.2055 323.08C34.8855 324.48 34.2255 326.54 34.2255 329.26C34.2255 331.94 34.8655 334 36.1455 335.44C37.4655 336.88 39.1055 337.6 41.0655 337.6Z" fill="white"/>
<path d="M74.2886 318.1C75.4886 316.26 76.9886 314.82 78.7886 313.78C80.5886 312.7 82.5886 312.16 84.7886 312.16V323.02H81.9686C79.4086 323.02 77.4886 323.58 76.2086 324.7C74.9286 325.78 74.2886 327.7 74.2886 330.46V346H64.0286V312.52H74.2886V318.1Z" fill="white"/>
<path d="M87.6526 329.2C87.6526 325.76 88.2927 322.74 89.5727 320.14C90.8927 317.54 92.6727 315.54 94.9127 314.14C97.1526 312.74 99.6526 312.04 102.413 312.04C104.613 312.04 106.613 312.5 108.413 313.42C110.253 314.34 111.693 315.58 112.733 317.14V301.6H122.993V346H112.733V341.2C111.773 342.8 110.393 344.08 108.593 345.04C106.833 346 104.773 346.48 102.413 346.48C99.6526 346.48 97.1526 345.78 94.9127 344.38C92.6727 342.94 90.8927 340.92 89.5727 338.32C88.2927 335.68 87.6526 332.64 87.6526 329.2ZM112.733 329.26C112.733 326.7 112.013 324.68 110.573 323.2C109.173 321.72 107.453 320.98 105.413 320.98C103.373 320.98 101.633 321.72 100.193 323.2C98.7927 324.64 98.0927 326.64 98.0927 329.2C98.0927 331.76 98.7927 333.8 100.193 335.32C101.633 336.8 103.373 337.54 105.413 337.54C107.453 337.54 109.173 336.8 110.573 335.32C112.013 333.84 112.733 331.82 112.733 329.26Z" fill="white"/>
<path d="M159.93 321.04H154.41V346H144.15V321.04H140.43V312.52H144.15V311.56C144.15 307.44 145.33 304.32 147.69 302.2C150.05 300.04 153.51 298.96 158.07 298.96C158.83 298.96 159.39 298.98 159.75 299.02V307.72C157.79 307.6 156.41 307.88 155.61 308.56C154.81 309.24 154.41 310.46 154.41 312.22V312.52H159.93V321.04Z" fill="white"/>
<path d="M175.011 318.1C176.211 316.26 177.711 314.82 179.511 313.78C181.311 312.7 183.311 312.16 185.511 312.16V323.02H182.691C180.131 323.02 178.211 323.58 176.931 324.7C175.651 325.78 175.011 327.7 175.011 330.46V346H164.751V312.52H175.011V318.1Z" fill="white"/>
<path d="M205.655 346.48C202.375 346.48 199.415 345.78 196.775 344.38C194.175 342.98 192.115 340.98 190.595 338.38C189.115 335.78 188.375 332.74 188.375 329.26C188.375 325.82 189.135 322.8 190.655 320.2C192.175 317.56 194.255 315.54 196.895 314.14C199.535 312.74 202.495 312.04 205.775 312.04C209.055 312.04 212.015 312.74 214.655 314.14C217.295 315.54 219.375 317.56 220.895 320.2C222.415 322.8 223.175 325.82 223.175 329.26C223.175 332.7 222.395 335.74 220.835 338.38C219.315 340.98 217.215 342.98 214.535 344.38C211.895 345.78 208.935 346.48 205.655 346.48ZM205.655 337.6C207.615 337.6 209.275 336.88 210.635 335.44C212.035 334 212.735 331.94 212.735 329.26C212.735 326.58 212.055 324.52 210.695 323.08C209.375 321.64 207.735 320.92 205.775 320.92C203.775 320.92 202.115 321.64 200.795 323.08C199.475 324.48 198.815 326.54 198.815 329.26C198.815 331.94 199.455 334 200.735 335.44C202.055 336.88 203.695 337.6 205.655 337.6Z" fill="white"/>
<path d="M271.338 312.16C275.498 312.16 278.798 313.42 281.238 315.94C283.718 318.46 284.958 321.96 284.958 326.44V346H274.758V327.82C274.758 325.66 274.178 324 273.018 322.84C271.898 321.64 270.338 321.04 268.338 321.04C266.338 321.04 264.758 321.64 263.598 322.84C262.478 324 261.918 325.66 261.918 327.82V346H251.718V327.82C251.718 325.66 251.138 324 249.978 322.84C248.858 321.64 247.298 321.04 245.298 321.04C243.298 321.04 241.718 321.64 240.558 322.84C239.438 324 238.878 325.66 238.878 327.82V346H228.618V312.52H238.878V316.72C239.918 315.32 241.278 314.22 242.958 313.42C244.638 312.58 246.538 312.16 248.658 312.16C251.178 312.16 253.418 312.7 255.378 313.78C257.378 314.86 258.938 316.4 260.058 318.4C261.218 316.56 262.798 315.06 264.798 313.9C266.798 312.74 268.978 312.16 271.338 312.16Z" fill="white"/>
<path d="M320.089 346.48C316.809 346.48 313.849 345.78 311.209 344.38C308.609 342.98 306.549 340.98 305.029 338.38C303.549 335.78 302.809 332.74 302.809 329.26C302.809 325.82 303.569 322.8 305.089 320.2C306.609 317.56 308.689 315.54 311.329 314.14C313.969 312.74 316.929 312.04 320.209 312.04C323.489 312.04 326.449 312.74 329.089 314.14C331.729 315.54 333.809 317.56 335.329 320.2C336.849 322.8 337.609 325.82 337.609 329.26C337.609 332.7 336.829 335.74 335.269 338.38C333.749 340.98 331.649 342.98 328.969 344.38C326.329 345.78 323.369 346.48 320.089 346.48ZM320.089 337.6C322.049 337.6 323.709 336.88 325.069 335.44C326.469 334 327.169 331.94 327.169 329.26C327.169 326.58 326.489 324.52 325.129 323.08C323.809 321.64 322.169 320.92 320.209 320.92C318.209 320.92 316.549 321.64 315.229 323.08C313.909 324.48 313.249 326.54 313.249 329.26C313.249 331.94 313.889 334 315.169 335.44C316.489 336.88 318.129 337.6 320.089 337.6Z" fill="white"/>
<path d="M376.112 312.52V346H365.852V341.44C364.812 342.92 363.392 344.12 361.592 345.04C359.832 345.92 357.872 346.36 355.712 346.36C353.152 346.36 350.892 345.8 348.932 344.68C346.972 343.52 345.452 341.86 344.372 339.7C343.292 337.54 342.752 335 342.752 332.08V312.52H352.952V330.7C352.952 332.94 353.532 334.68 354.692 335.92C355.852 337.16 357.412 337.78 359.372 337.78C361.372 337.78 362.952 337.16 364.112 335.92C365.272 334.68 365.852 332.94 365.852 330.7V312.52H376.112Z" fill="white"/>
<path d="M393.742 318.1C394.942 316.26 396.442 314.82 398.242 313.78C400.042 312.7 402.042 312.16 404.242 312.16V323.02H401.422C398.862 323.02 396.942 323.58 395.662 324.7C394.382 325.78 393.742 327.7 393.742 330.46V346H383.482V312.52H393.742V318.1Z" fill="white"/>
<path d="M-27.02 407.26C-26.02 405.7 -24.64 404.44 -22.88 403.48C-21.12 402.52 -19.06 402.04 -16.7 402.04C-13.94 402.04 -11.44 402.74 -9.2 404.14C-6.95999 405.54 -5.2 407.54 -3.92 410.14C-2.60001 412.74 -1.94 415.76 -1.94 419.2C-1.94 422.64 -2.60001 425.68 -3.92 428.32C-5.2 430.92 -6.95999 432.94 -9.2 434.38C-11.44 435.78 -13.94 436.48 -16.7 436.48C-19.02 436.48 -21.08 436 -22.88 435.04C-24.64 434.08 -26.02 432.84 -27.02 431.32V451.96H-37.28V402.52H-27.02V407.26ZM-12.38 419.2C-12.38 416.64 -13.1 414.64 -14.54 413.2C-15.94 411.72 -17.68 410.98 -19.76 410.98C-21.8 410.98 -23.54 411.72 -24.98 413.2C-26.38 414.68 -27.08 416.7 -27.08 419.26C-27.08 421.82 -26.38 423.84 -24.98 425.32C-23.54 426.8 -21.8 427.54 -19.76 427.54C-17.72 427.54 -15.98 426.8 -14.54 425.32C-13.1 423.8 -12.38 421.76 -12.38 419.2Z" fill="white"/>
<path d="M13.7027 408.1C14.9026 406.26 16.4026 404.82 18.2027 403.78C20.0027 402.7 22.0027 402.16 24.2027 402.16V413.02H21.3827C18.8227 413.02 16.9026 413.58 15.6227 414.7C14.3427 415.78 13.7027 417.7 13.7027 420.46V436H3.44266V402.52H13.7027V408.1Z" fill="white"/>
<path d="M60.6667 418.72C60.6667 419.68 60.6067 420.68 60.4867 421.72H37.2667C37.4267 423.8 38.0867 425.4 39.2467 426.52C40.4467 427.6 41.9067 428.14 43.6267 428.14C46.1867 428.14 47.9667 427.06 48.9667 424.9H59.8867C59.3267 427.1 58.3067 429.08 56.8267 430.84C55.3867 432.6 53.5667 433.98 51.3667 434.98C49.1667 435.98 46.7067 436.48 43.9867 436.48C40.7067 436.48 37.7867 435.78 35.2267 434.38C32.6667 432.98 30.6667 430.98 29.2267 428.38C27.7867 425.78 27.0667 422.74 27.0667 419.26C27.0667 415.78 27.7667 412.74 29.1667 410.14C30.6067 407.54 32.6067 405.54 35.1667 404.14C37.7267 402.74 40.6667 402.04 43.9867 402.04C47.2267 402.04 50.1067 402.72 52.6267 404.08C55.1467 405.44 57.1067 407.38 58.5067 409.9C59.9467 412.42 60.6667 415.36 60.6667 418.72ZM50.1667 416.02C50.1667 414.26 49.5667 412.86 48.3667 411.82C47.1667 410.78 45.6667 410.26 43.8667 410.26C42.1467 410.26 40.6867 410.76 39.4867 411.76C38.3267 412.76 37.6067 414.18 37.3267 416.02H50.1667Z" fill="white"/>
<path d="M79.6994 436.48C76.7794 436.48 74.1794 435.98 71.8994 434.98C69.6194 433.98 67.8194 432.62 66.4994 430.9C65.1794 429.14 64.4394 427.18 64.2794 425.02H74.4194C74.5394 426.18 75.0794 427.12 76.0394 427.84C76.9994 428.56 78.1794 428.92 79.5794 428.92C80.8594 428.92 81.8394 428.68 82.5194 428.2C83.2394 427.68 83.5994 427.02 83.5994 426.22C83.5994 425.26 83.0994 424.56 82.0994 424.12C81.0994 423.64 79.4794 423.12 77.2394 422.56C74.8394 422 72.8394 421.42 71.2394 420.82C69.6394 420.18 68.2594 419.2 67.0994 417.88C65.9394 416.52 65.3594 414.7 65.3594 412.42C65.3594 410.5 65.8794 408.76 66.9194 407.2C67.9994 405.6 69.5594 404.34 71.5994 403.42C73.6794 402.5 76.1394 402.04 78.9794 402.04C83.1794 402.04 86.4794 403.08 88.8794 405.16C91.3194 407.24 92.7194 410 93.0794 413.44H83.5994C83.4394 412.28 82.9194 411.36 82.0394 410.68C81.1994 410 80.0794 409.66 78.6794 409.66C77.4794 409.66 76.5594 409.9 75.9194 410.38C75.2794 410.82 74.9594 411.44 74.9594 412.24C74.9594 413.2 75.4594 413.92 76.4594 414.4C77.4994 414.88 79.0994 415.36 81.2594 415.84C83.7394 416.48 85.7594 417.12 87.3194 417.76C88.8794 418.36 90.2394 419.36 91.3994 420.76C92.5994 422.12 93.2194 423.96 93.2594 426.28C93.2594 428.24 92.6994 430 91.5794 431.56C90.4994 433.08 88.9194 434.28 86.8394 435.16C84.7994 436.04 82.4194 436.48 79.6994 436.48Z" fill="white"/>
<path d="M104.696 399.04C102.896 399.04 101.416 398.52 100.256 397.48C99.1364 396.4 98.5764 395.08 98.5764 393.52C98.5764 391.92 99.1364 390.6 100.256 389.56C101.416 388.48 102.896 387.94 104.696 387.94C106.456 387.94 107.896 388.48 109.016 389.56C110.176 390.6 110.756 391.92 110.756 393.52C110.756 395.08 110.176 396.4 109.016 397.48C107.896 398.52 106.456 399.04 104.696 399.04ZM109.796 402.52V436H99.5364V402.52H109.796Z" fill="white"/>
<path d="M115.192 419.2C115.192 415.76 115.832 412.74 117.112 410.14C118.432 407.54 120.212 405.54 122.452 404.14C124.692 402.74 127.192 402.04 129.952 402.04C132.152 402.04 134.152 402.5 135.952 403.42C137.792 404.34 139.232 405.58 140.272 407.14V391.6H150.532V436H140.272V431.2C139.312 432.8 137.932 434.08 136.132 435.04C134.372 436 132.312 436.48 129.952 436.48C127.192 436.48 124.692 435.78 122.452 434.38C120.212 432.94 118.432 430.92 117.112 428.32C115.832 425.68 115.192 422.64 115.192 419.2ZM140.272 419.26C140.272 416.7 139.552 414.68 138.112 413.2C136.712 411.72 134.992 410.98 132.952 410.98C130.912 410.98 129.172 411.72 127.732 413.2C126.332 414.64 125.632 416.64 125.632 419.2C125.632 421.76 126.332 423.8 127.732 425.32C129.172 426.8 130.912 427.54 132.952 427.54C134.992 427.54 136.712 426.8 138.112 425.32C139.552 423.84 140.272 421.82 140.272 419.26Z" fill="white"/>
<path d="M189.514 418.72C189.514 419.68 189.454 420.68 189.334 421.72H166.114C166.274 423.8 166.934 425.4 168.094 426.52C169.294 427.6 170.754 428.14 172.474 428.14C175.034 428.14 176.814 427.06 177.814 424.9H188.734C188.174 427.1 187.154 429.08 185.674 430.84C184.234 432.6 182.414 433.98 180.214 434.98C178.014 435.98 175.554 436.48 172.834 436.48C169.554 436.48 166.634 435.78 164.074 434.38C161.514 432.98 159.514 430.98 158.074 428.38C156.634 425.78 155.914 422.74 155.914 419.26C155.914 415.78 156.614 412.74 158.014 410.14C159.454 407.54 161.454 405.54 164.014 404.14C166.574 402.74 169.514 402.04 172.834 402.04C176.074 402.04 178.954 402.72 181.474 404.08C183.994 405.44 185.954 407.38 187.354 409.9C188.794 412.42 189.514 415.36 189.514 418.72ZM179.014 416.02C179.014 414.26 178.414 412.86 177.214 411.82C176.014 410.78 174.514 410.26 172.714 410.26C170.994 410.26 169.534 410.76 168.334 411.76C167.174 412.76 166.454 414.18 166.174 416.02H179.014Z" fill="white"/>
<path d="M215.327 402.16C219.247 402.16 222.367 403.44 224.687 406C227.047 408.52 228.227 412 228.227 416.44V436H218.027V417.82C218.027 415.58 217.447 413.84 216.287 412.6C215.127 411.36 213.567 410.74 211.607 410.74C209.647 410.74 208.087 411.36 206.927 412.6C205.767 413.84 205.187 415.58 205.187 417.82V436H194.927V402.52H205.187V406.96C206.227 405.48 207.627 404.32 209.387 403.48C211.147 402.6 213.127 402.16 215.327 402.16Z" fill="white"/>
<path d="M254.017 427.3V436H248.797C245.077 436 242.177 435.1 240.097 433.3C238.017 431.46 236.977 428.48 236.977 424.36V411.04H232.897V402.52H236.977V394.36H247.237V402.52H253.957V411.04H247.237V424.48C247.237 425.48 247.477 426.2 247.957 426.64C248.437 427.08 249.237 427.3 250.357 427.3H254.017Z" fill="white"/>
<path d="M30.64 303.42C26.68 303.42 23.04 302.5 19.72 300.66C16.44 298.82 13.82 296.26 11.86 292.98C9.94 289.66 8.98 285.94 8.98 281.82C8.98 277.7 9.94 274 11.86 270.72C13.82 267.44 16.44 264.88 19.72 263.04C23.04 261.2 26.68 260.28 30.64 260.28C34.6 260.28 38.22 261.2 41.5 263.04C44.82 264.88 47.42 267.44 49.3 270.72C51.22 274 52.18 277.7 52.18 281.82C52.18 285.94 51.22 289.66 49.3 292.98C47.38 296.26 44.78 298.82 41.5 300.66C38.22 302.5 34.6 303.42 30.64 303.42ZM30.64 294.06C34 294.06 36.68 292.94 38.68 290.7C40.72 288.46 41.74 285.5 41.74 281.82C41.74 278.1 40.72 275.14 38.68 272.94C36.68 270.7 34 269.58 30.64 269.58C27.24 269.58 24.52 270.68 22.48 272.88C20.48 275.08 19.48 278.06 19.48 281.82C19.48 285.54 20.48 288.52 22.48 290.76C24.52 292.96 27.24 294.06 30.64 294.06Z" fill="white"/>
<path d="M90.948 269.52V303H80.688V298.44C79.6479 299.92 78.228 301.12 76.428 302.04C74.668 302.92 72.708 303.36 70.548 303.36C67.988 303.36 65.728 302.8 63.768 301.68C61.808 300.52 60.288 298.86 59.208 296.7C58.128 294.54 57.588 292 57.588 289.08V269.52H67.788V287.7C67.788 289.94 68.368 291.68 69.528 292.92C70.688 294.16 72.248 294.78 74.208 294.78C76.208 294.78 77.788 294.16 78.948 292.92C80.108 291.68 80.688 289.94 80.688 287.7V269.52H90.948Z" fill="white"/>
<path d="M108.578 275.1C109.778 273.26 111.278 271.82 113.078 270.78C114.878 269.7 116.878 269.16 119.078 269.16V280.02H116.258C113.698 280.02 111.778 280.58 110.498 281.7C109.218 282.78 108.578 284.7 108.578 287.46V303H98.3177V269.52H108.578V275.1Z" fill="white"/>
<path d="M168.797 274.44C168.797 276.88 168.237 279.12 167.117 281.16C165.997 283.16 164.277 284.78 161.957 286.02C159.637 287.26 156.757 287.88 153.317 287.88H146.957V303H136.697V260.88H153.317C156.677 260.88 159.517 261.46 161.837 262.62C164.157 263.78 165.897 265.38 167.057 267.42C168.217 269.46 168.797 271.8 168.797 274.44ZM152.537 279.72C154.497 279.72 155.957 279.26 156.917 278.34C157.877 277.42 158.357 276.12 158.357 274.44C158.357 272.76 157.877 271.46 156.917 270.54C155.957 269.62 154.497 269.16 152.537 269.16H146.957V279.72H152.537Z" fill="white"/>
<path d="M195.618 303L186.858 287.1H184.398V303H174.138V260.88H191.358C194.678 260.88 197.498 261.46 199.818 262.62C202.178 263.78 203.938 265.38 205.098 267.42C206.258 269.42 206.838 271.66 206.838 274.14C206.838 276.94 206.038 279.44 204.438 281.64C202.878 283.84 200.558 285.4 197.478 286.32L207.198 303H195.618ZM184.398 279.84H190.758C192.638 279.84 194.038 279.38 194.958 278.46C195.918 277.54 196.398 276.24 196.398 274.56C196.398 272.96 195.918 271.7 194.958 270.78C194.038 269.86 192.638 269.4 190.758 269.4H184.398V279.84Z" fill="white"/>
<path d="M244.839 285.72C244.839 286.68 244.779 287.68 244.659 288.72H221.439C221.599 290.8 222.259 292.4 223.419 293.52C224.619 294.6 226.079 295.14 227.799 295.14C230.359 295.14 232.139 294.06 233.139 291.9H244.059C243.499 294.1 242.479 296.08 240.999 297.84C239.559 299.6 237.739 300.98 235.539 301.98C233.339 302.98 230.879 303.48 228.159 303.48C224.879 303.48 221.959 302.78 219.399 301.38C216.839 299.98 214.839 297.98 213.399 295.38C211.959 292.78 211.239 289.74 211.239 286.26C211.239 282.78 211.939 279.74 213.339 277.14C214.779 274.54 216.779 272.54 219.339 271.14C221.899 269.74 224.839 269.04 228.159 269.04C231.399 269.04 234.279 269.72 236.799 271.08C239.319 272.44 241.279 274.38 242.679 276.9C244.119 279.42 244.839 282.36 244.839 285.72ZM234.339 283.02C234.339 281.26 233.739 279.86 232.539 278.82C231.339 277.78 229.839 277.26 228.039 277.26C226.319 277.26 224.859 277.76 223.659 278.76C222.499 279.76 221.779 281.18 221.499 283.02H234.339Z" fill="white"/>
<path d="M263.871 303.48C260.951 303.48 258.351 302.98 256.071 301.98C253.791 300.98 251.991 299.62 250.671 297.9C249.351 296.14 248.611 294.18 248.451 292.02H258.591C258.711 293.18 259.251 294.12 260.211 294.84C261.171 295.56 262.351 295.92 263.751 295.92C265.031 295.92 266.011 295.68 266.691 295.2C267.411 294.68 267.771 294.02 267.771 293.22C267.771 292.26 267.271 291.56 266.271 291.12C265.271 290.64 263.651 290.12 261.411 289.56C259.011 289 257.011 288.42 255.411 287.82C253.811 287.18 252.431 286.2 251.271 284.88C250.111 283.52 249.531 281.7 249.531 279.42C249.531 277.5 250.051 275.76 251.091 274.2C252.171 272.6 253.731 271.34 255.771 270.42C257.851 269.5 260.311 269.04 263.151 269.04C267.351 269.04 270.651 270.08 273.051 272.16C275.491 274.24 276.891 277 277.251 280.44H267.771C267.611 279.28 267.091 278.36 266.211 277.68C265.371 277 264.251 276.66 262.851 276.66C261.651 276.66 260.731 276.9 260.091 277.38C259.451 277.82 259.131 278.44 259.131 279.24C259.131 280.2 259.631 280.92 260.631 281.4C261.671 281.88 263.271 282.36 265.431 282.84C267.911 283.48 269.931 284.12 271.491 284.76C273.051 285.36 274.411 286.36 275.571 287.76C276.771 289.12 277.391 290.96 277.431 293.28C277.431 295.24 276.871 297 275.751 298.56C274.671 300.08 273.091 301.28 271.011 302.16C268.971 303.04 266.591 303.48 263.871 303.48Z" fill="white"/>
<path d="M288.868 266.04C287.068 266.04 285.588 265.52 284.428 264.48C283.308 263.4 282.748 262.08 282.748 260.52C282.748 258.92 283.308 257.6 284.428 256.56C285.588 255.48 287.068 254.94 288.868 254.94C290.628 254.94 292.068 255.48 293.188 256.56C294.348 257.6 294.928 258.92 294.928 260.52C294.928 262.08 294.348 263.4 293.188 264.48C292.068 265.52 290.628 266.04 288.868 266.04ZM293.968 269.52V303H283.708V269.52H293.968Z" fill="white"/>
<path d="M299.364 286.2C299.364 282.76 300.004 279.74 301.284 277.14C302.604 274.54 304.384 272.54 306.624 271.14C308.864 269.74 311.364 269.04 314.124 269.04C316.324 269.04 318.324 269.5 320.124 270.42C321.964 271.34 323.404 272.58 324.444 274.14V258.6H334.704V303H324.444V298.2C323.484 299.8 322.104 301.08 320.304 302.04C318.544 303 316.484 303.48 314.124 303.48C311.364 303.48 308.864 302.78 306.624 301.38C304.384 299.94 302.604 297.92 301.284 295.32C300.004 292.68 299.364 289.64 299.364 286.2ZM324.444 286.26C324.444 283.7 323.724 281.68 322.284 280.2C320.884 278.72 319.164 277.98 317.124 277.98C315.084 277.98 313.344 278.72 311.904 280.2C310.504 281.64 309.804 283.64 309.804 286.2C309.804 288.76 310.504 290.8 311.904 292.32C313.344 293.8 315.084 294.54 317.124 294.54C319.164 294.54 320.884 293.8 322.284 292.32C323.724 290.84 324.444 288.82 324.444 286.26Z" fill="white"/>
<path d="M373.686 285.72C373.686 286.68 373.626 287.68 373.506 288.72H350.286C350.446 290.8 351.106 292.4 352.266 293.52C353.466 294.6 354.926 295.14 356.646 295.14C359.206 295.14 360.986 294.06 361.986 291.9H372.906C372.346 294.1 371.326 296.08 369.846 297.84C368.406 299.6 366.586 300.98 364.386 301.98C362.186 302.98 359.726 303.48 357.006 303.48C353.726 303.48 350.806 302.78 348.246 301.38C345.686 299.98 343.686 297.98 342.246 295.38C340.806 292.78 340.086 289.74 340.086 286.26C340.086 282.78 340.786 279.74 342.186 277.14C343.626 274.54 345.626 272.54 348.186 271.14C350.746 269.74 353.686 269.04 357.006 269.04C360.246 269.04 363.126 269.72 365.646 271.08C368.166 272.44 370.126 274.38 371.526 276.9C372.966 279.42 373.686 282.36 373.686 285.72ZM363.186 283.02C363.186 281.26 362.586 279.86 361.386 278.82C360.186 277.78 358.686 277.26 356.886 277.26C355.166 277.26 353.706 277.76 352.506 278.76C351.346 279.76 350.626 281.18 350.346 283.02H363.186Z" fill="white"/>
<path d="M399.499 269.16C403.419 269.16 406.539 270.44 408.859 273C411.219 275.52 412.399 279 412.399 283.44V303H402.199V284.82C402.199 282.58 401.619 280.84 400.459 279.6C399.299 278.36 397.739 277.74 395.779 277.74C393.819 277.74 392.259 278.36 391.099 279.6C389.939 280.84 389.359 282.58 389.359 284.82V303H379.099V269.52H389.359V273.96C390.399 272.48 391.799 271.32 393.559 270.48C395.319 269.6 397.299 269.16 399.499 269.16Z" fill="white"/>
<path d="M438.189 294.3V303H432.969C429.249 303 426.349 302.1 424.269 300.3C422.189 298.46 421.149 295.48 421.149 291.36V278.04H417.069V269.52H421.149V261.36H431.409V269.52H438.129V278.04H431.409V291.48C431.409 292.48 431.649 293.2 432.129 293.64C432.609 294.08 433.409 294.3 434.529 294.3H438.189Z" fill="white"/>
<path d="M23.64 391.42C19.68 391.42 16.04 390.5 12.72 388.66C9.44 386.82 6.82001 384.26 4.86 380.98C2.94 377.66 1.98 373.94 1.98 369.82C1.98 365.7 2.94 362 4.86 358.72C6.82001 355.44 9.44 352.88 12.72 351.04C16.04 349.2 19.68 348.28 23.64 348.28C27.6 348.28 31.22 349.2 34.5 351.04C37.82 352.88 40.42 355.44 42.3 358.72C44.22 362 45.18 365.7 45.18 369.82C45.18 373.94 44.22 377.66 42.3 380.98C40.38 384.26 37.78 386.82 34.5 388.66C31.22 390.5 27.6 391.42 23.64 391.42ZM23.64 382.06C27 382.06 29.68 380.94 31.68 378.7C33.72 376.46 34.74 373.5 34.74 369.82C34.74 366.1 33.72 363.14 31.68 360.94C29.68 358.7 27 357.58 23.64 357.58C20.24 357.58 17.52 358.68 15.48 360.88C13.48 363.08 12.48 366.06 12.48 369.82C12.48 373.54 13.48 376.52 15.48 378.76C17.52 380.96 20.24 382.06 23.64 382.06Z" fill="white"/>
<path d="M83.948 357.52V391H73.688V386.44C72.6479 387.92 71.228 389.12 69.428 390.04C67.668 390.92 65.708 391.36 63.548 391.36C60.988 391.36 58.728 390.8 56.768 389.68C54.808 388.52 53.288 386.86 52.208 384.7C51.128 382.54 50.588 380 50.588 377.08V357.52H60.788V375.7C60.788 377.94 61.368 379.68 62.528 380.92C63.688 382.16 65.248 382.78 67.208 382.78C69.208 382.78 70.788 382.16 71.948 380.92C73.108 379.68 73.688 377.94 73.688 375.7V357.52H83.948Z" fill="white"/>
<path d="M101.578 363.1C102.778 361.26 104.278 359.82 106.078 358.78C107.878 357.7 109.878 357.16 112.078 357.16V368.02H109.258C106.698 368.02 104.778 368.58 103.498 369.7C102.218 370.78 101.578 372.7 101.578 375.46V391H91.3177V357.52H101.578V363.1Z" fill="white"/>
<path d="M161.797 362.44C161.797 364.88 161.237 367.12 160.117 369.16C158.997 371.16 157.277 372.78 154.957 374.02C152.637 375.26 149.757 375.88 146.317 375.88H139.957V391H129.697V348.88H146.317C149.677 348.88 152.517 349.46 154.837 350.62C157.157 351.78 158.897 353.38 160.057 355.42C161.217 357.46 161.797 359.8 161.797 362.44ZM145.537 367.72C147.497 367.72 148.957 367.26 149.917 366.34C150.877 365.42 151.357 364.12 151.357 362.44C151.357 360.76 150.877 359.46 149.917 358.54C148.957 357.62 147.497 357.16 145.537 357.16H139.957V367.72H145.537Z" fill="white"/>
<path d="M188.618 391L179.858 375.1H177.398V391H167.138V348.88H184.358C187.678 348.88 190.498 349.46 192.818 350.62C195.178 351.78 196.938 353.38 198.098 355.42C199.258 357.42 199.838 359.66 199.838 362.14C199.838 364.94 199.038 367.44 197.438 369.64C195.878 371.84 193.558 373.4 190.478 374.32L200.198 391H188.618ZM177.398 367.84H183.758C185.638 367.84 187.038 367.38 187.958 366.46C188.918 365.54 189.398 364.24 189.398 362.56C189.398 360.96 188.918 359.7 187.958 358.78C187.038 357.86 185.638 357.4 183.758 357.4H177.398V367.84Z" fill="white"/>
<path d="M237.839 373.72C237.839 374.68 237.779 375.68 237.659 376.72H214.439C214.599 378.8 215.259 380.4 216.419 381.52C217.619 382.6 219.079 383.14 220.799 383.14C223.359 383.14 225.139 382.06 226.139 379.9H237.059C236.499 382.1 235.479 384.08 233.999 385.84C232.559 387.6 230.739 388.98 228.539 389.98C226.339 390.98 223.879 391.48 221.159 391.48C217.879 391.48 214.959 390.78 212.399 389.38C209.839 387.98 207.839 385.98 206.399 383.38C204.959 380.78 204.239 377.74 204.239 374.26C204.239 370.78 204.939 367.74 206.339 365.14C207.779 362.54 209.779 360.54 212.339 359.14C214.899 357.74 217.839 357.04 221.159 357.04C224.399 357.04 227.279 357.72 229.799 359.08C232.319 360.44 234.279 362.38 235.679 364.9C237.119 367.42 237.839 370.36 237.839 373.72ZM227.339 371.02C227.339 369.26 226.739 367.86 225.539 366.82C224.339 365.78 222.839 365.26 221.039 365.26C219.319 365.26 217.859 365.76 216.659 366.76C215.499 367.76 214.779 369.18 214.499 371.02H227.339Z" fill="white"/>
<path d="M256.871 391.48C253.951 391.48 251.351 390.98 249.071 389.98C246.791 388.98 244.991 387.62 243.671 385.9C242.351 384.14 241.611 382.18 241.451 380.02H251.591C251.711 381.18 252.251 382.12 253.211 382.84C254.171 383.56 255.351 383.92 256.751 383.92C258.031 383.92 259.011 383.68 259.691 383.2C260.411 382.68 260.771 382.02 260.771 381.22C260.771 380.26 260.271 379.56 259.271 379.12C258.271 378.64 256.651 378.12 254.411 377.56C252.011 377 250.011 376.42 248.411 375.82C246.811 375.18 245.431 374.2 244.271 372.88C243.111 371.52 242.531 369.7 242.531 367.42C242.531 365.5 243.051 363.76 244.091 362.2C245.171 360.6 246.731 359.34 248.771 358.42C250.851 357.5 253.311 357.04 256.151 357.04C260.351 357.04 263.651 358.08 266.051 360.16C268.491 362.24 269.891 365 270.251 368.44H260.771C260.611 367.28 260.091 366.36 259.211 365.68C258.371 365 257.251 364.66 255.851 364.66C254.651 364.66 253.731 364.9 253.091 365.38C252.451 365.82 252.131 366.44 252.131 367.24C252.131 368.2 252.631 368.92 253.631 369.4C254.671 369.88 256.271 370.36 258.431 370.84C260.911 371.48 262.931 372.12 264.491 372.76C266.051 373.36 267.411 374.36 268.571 375.76C269.771 377.12 270.391 378.96 270.431 381.28C270.431 383.24 269.871 385 268.751 386.56C267.671 388.08 266.091 389.28 264.011 390.16C261.971 391.04 259.591 391.48 256.871 391.48Z" fill="white"/>
<path d="M281.868 354.04C280.068 354.04 278.588 353.52 277.428 352.48C276.308 351.4 275.748 350.08 275.748 348.52C275.748 346.92 276.308 345.6 277.428 344.56C278.588 343.48 280.068 342.94 281.868 342.94C283.628 342.94 285.068 343.48 286.188 344.56C287.348 345.6 287.928 346.92 287.928 348.52C287.928 350.08 287.348 351.4 286.188 352.48C285.068 353.52 283.628 354.04 281.868 354.04ZM286.968 357.52V391H276.708V357.52H286.968Z" fill="white"/>
<path d="M292.364 374.2C292.364 370.76 293.004 367.74 294.284 365.14C295.604 362.54 297.384 360.54 299.624 359.14C301.864 357.74 304.364 357.04 307.124 357.04C309.324 357.04 311.324 357.5 313.124 358.42C314.964 359.34 316.404 360.58 317.444 362.14V346.6H327.704V391H317.444V386.2C316.484 387.8 315.104 389.08 313.304 390.04C311.544 391 309.484 391.48 307.124 391.48C304.364 391.48 301.864 390.78 299.624 389.38C297.384 387.94 295.604 385.92 294.284 383.32C293.004 380.68 292.364 377.64 292.364 374.2ZM317.444 374.26C317.444 371.7 316.724 369.68 315.284 368.2C313.884 366.72 312.164 365.98 310.124 365.98C308.084 365.98 306.344 366.72 304.904 368.2C303.504 369.64 302.804 371.64 302.804 374.2C302.804 376.76 303.504 378.8 304.904 380.32C306.344 381.8 308.084 382.54 310.124 382.54C312.164 382.54 313.884 381.8 315.284 380.32C316.724 378.84 317.444 376.82 317.444 374.26Z" fill="white"/>
<path d="M366.686 373.72C366.686 374.68 366.626 375.68 366.506 376.72H343.286C343.446 378.8 344.106 380.4 345.266 381.52C346.466 382.6 347.926 383.14 349.646 383.14C352.206 383.14 353.986 382.06 354.986 379.9H365.906C365.346 382.1 364.326 384.08 362.846 385.84C361.406 387.6 359.586 388.98 357.386 389.98C355.186 390.98 352.726 391.48 350.006 391.48C346.726 391.48 343.806 390.78 341.246 389.38C338.686 387.98 336.686 385.98 335.246 383.38C333.806 380.78 333.086 377.74 333.086 374.26C333.086 370.78 333.786 367.74 335.186 365.14C336.626 362.54 338.626 360.54 341.186 359.14C343.746 357.74 346.686 357.04 350.006 357.04C353.246 357.04 356.126 357.72 358.646 359.08C361.166 360.44 363.126 362.38 364.526 364.9C365.966 367.42 366.686 370.36 366.686 373.72ZM356.186 371.02C356.186 369.26 355.586 367.86 354.386 366.82C353.186 365.78 351.686 365.26 349.886 365.26C348.166 365.26 346.706 365.76 345.506 366.76C344.346 367.76 343.626 369.18 343.346 371.02H356.186Z" fill="white"/>
<path d="M392.499 357.16C396.419 357.16 399.539 358.44 401.859 361C404.219 363.52 405.399 367 405.399 371.44V391H395.199V372.82C395.199 370.58 394.619 368.84 393.459 367.6C392.299 366.36 390.739 365.74 388.779 365.74C386.819 365.74 385.259 366.36 384.099 367.6C382.939 368.84 382.359 370.58 382.359 372.82V391H372.099V357.52H382.359V361.96C383.399 360.48 384.799 359.32 386.559 358.48C388.319 357.6 390.299 357.16 392.499 357.16Z" fill="white"/>
<path d="M431.189 382.3V391H425.969C422.249 391 419.349 390.1 417.269 388.3C415.189 386.46 414.149 383.48 414.149 379.36V366.04H410.069V357.52H414.149V349.36H424.409V357.52H431.129V366.04H424.409V379.48C424.409 380.48 424.649 381.2 425.129 381.64C425.609 382.08 426.409 382.3 427.529 382.3H431.189Z" fill="white"/>
<path d="M-2.02 219.1V227.62H11.72V235.54H-2.02V244.78H13.52V253H-12.28V210.88H13.52V219.1H-2.02Z" fill="white"/>
<path d="M35.4209 253.42C32.3409 253.42 29.5809 252.92 27.1409 251.92C24.7009 250.92 22.7409 249.44 21.2609 247.48C19.8209 245.52 19.0609 243.16 18.9809 240.4H29.9009C30.0609 241.96 30.6009 243.16 31.5209 244C32.4409 244.8 33.6409 245.2 35.1209 245.2C36.6409 245.2 37.8409 244.86 38.7209 244.18C39.6009 243.46 40.0409 242.48 40.0409 241.24C40.0409 240.2 39.6809 239.34 38.9609 238.66C38.2809 237.98 37.4209 237.42 36.3809 236.98C35.3809 236.54 33.9409 236.04 32.0609 235.48C29.3409 234.64 27.1209 233.8 25.4009 232.96C23.6809 232.12 22.2009 230.88 20.9609 229.24C19.7209 227.6 19.1009 225.46 19.1009 222.82C19.1009 218.9 20.5209 215.84 23.3609 213.64C26.2009 211.4 29.9009 210.28 34.4609 210.28C39.1009 210.28 42.8409 211.4 45.6809 213.64C48.5209 215.84 50.0409 218.92 50.2409 222.88H39.1409C39.0609 221.52 38.5609 220.46 37.6409 219.7C36.7209 218.9 35.5409 218.5 34.1009 218.5C32.8609 218.5 31.8609 218.84 31.1009 219.52C30.3409 220.16 29.9609 221.1 29.9609 222.34C29.9609 223.7 30.6009 224.76 31.8809 225.52C33.1609 226.28 35.1609 227.1 37.8809 227.98C40.6009 228.9 42.8009 229.78 44.4809 230.62C46.2009 231.46 47.6809 232.68 48.9209 234.28C50.1609 235.88 50.7809 237.94 50.7809 240.46C50.7809 242.86 50.1609 245.04 48.9209 247C47.7209 248.96 45.961 250.52 43.6409 251.68C41.3209 252.84 38.5809 253.42 35.4209 253.42Z" fill="white"/>
<path d="M67.355 245.08H80.795V253H57.095V210.88H67.355V245.08Z" fill="white"/>
<path d="M100.929 253.42C97.8488 253.42 95.0887 252.92 92.6487 251.92C90.2087 250.92 88.2487 249.44 86.7687 247.48C85.3287 245.52 84.5687 243.16 84.4887 240.4H95.4088C95.5688 241.96 96.1087 243.16 97.0287 244C97.9488 244.8 99.1487 245.2 100.629 245.2C102.149 245.2 103.349 244.86 104.229 244.18C105.109 243.46 105.549 242.48 105.549 241.24C105.549 240.2 105.189 239.34 104.469 238.66C103.789 237.98 102.929 237.42 101.889 236.98C100.889 236.54 99.4488 236.04 97.5688 235.48C94.8488 234.64 92.6288 233.8 90.9088 232.96C89.1888 232.12 87.7087 230.88 86.4688 229.24C85.2288 227.6 84.6088 225.46 84.6088 222.82C84.6088 218.9 86.0287 215.84 88.8687 213.64C91.7087 211.4 95.4088 210.28 99.9688 210.28C104.609 210.28 108.349 211.4 111.189 213.64C114.029 215.84 115.549 218.92 115.749 222.88H104.649C104.569 221.52 104.069 220.46 103.149 219.7C102.229 218.9 101.049 218.5 99.6088 218.5C98.3688 218.5 97.3688 218.84 96.6088 219.52C95.8488 220.16 95.4688 221.1 95.4688 222.34C95.4688 223.7 96.1088 224.76 97.3888 225.52C98.6688 226.28 100.669 227.1 103.389 227.98C106.109 228.9 108.309 229.78 109.989 230.62C111.709 231.46 113.189 232.68 114.429 234.28C115.669 235.88 116.289 237.94 116.289 240.46C116.289 242.86 115.669 245.04 114.429 247C113.229 248.96 111.469 250.52 109.149 251.68C106.829 252.84 104.089 253.42 100.929 253.42Z" fill="white"/>
<path d="M120.863 231.88C120.863 227.72 121.763 224.02 123.563 220.78C125.363 217.5 127.863 214.96 131.063 213.16C134.303 211.32 137.963 210.4 142.043 210.4C147.043 210.4 151.323 211.72 154.883 214.36C158.443 217 160.823 220.6 162.023 225.16H150.743C149.903 223.4 148.703 222.06 147.143 221.14C145.623 220.22 143.883 219.76 141.923 219.76C138.763 219.76 136.203 220.86 134.243 223.06C132.283 225.26 131.303 228.2 131.303 231.88C131.303 235.56 132.283 238.5 134.243 240.7C136.203 242.9 138.763 244 141.923 244C143.883 244 145.623 243.54 147.143 242.62C148.703 241.7 149.903 240.36 150.743 238.6H162.023C160.823 243.16 158.443 246.76 154.883 249.4C151.323 252 147.043 253.3 142.043 253.3C137.963 253.3 134.303 252.4 131.063 250.6C127.863 248.76 125.363 246.22 123.563 242.98C121.763 239.74 120.863 236.04 120.863 231.88Z" fill="white"/>
<path d="M194.526 245.56H178.806L176.286 253H165.546L180.786 210.88H192.666L207.906 253H197.046L194.526 245.56ZM191.886 237.64L186.666 222.22L181.506 237.64H191.886Z" fill="white"/>
<path d="M235.339 210.88V236.08C235.339 238.6 235.959 240.54 237.199 241.9C238.439 243.26 240.259 243.94 242.659 243.94C245.059 243.94 246.899 243.26 248.179 241.9C249.459 240.54 250.099 238.6 250.099 236.08V210.88H260.359V236.02C260.359 239.78 259.559 242.96 257.959 245.56C256.359 248.16 254.199 250.12 251.479 251.44C248.799 252.76 245.799 253.42 242.479 253.42C239.159 253.42 236.179 252.78 233.539 251.5C230.939 250.18 228.879 248.22 227.359 245.62C225.839 242.98 225.079 239.78 225.079 236.02V210.88H235.339Z" fill="white"/>
<path d="M287.964 219.16C291.884 219.16 295.004 220.44 297.324 223C299.684 225.52 300.864 229 300.864 233.44V253H290.664V234.82C290.664 232.58 290.084 230.84 288.924 229.6C287.764 228.36 286.204 227.74 284.244 227.74C282.284 227.74 280.724 228.36 279.564 229.6C278.404 230.84 277.824 232.58 277.824 234.82V253H267.564V219.52H277.824V223.96C278.864 222.48 280.264 221.32 282.024 220.48C283.784 219.6 285.764 219.16 287.964 219.16Z" fill="white"/>
<path d="M313.153 216.04C311.353 216.04 309.873 215.52 308.713 214.48C307.593 213.4 307.033 212.08 307.033 210.52C307.033 208.92 307.593 207.6 308.713 206.56C309.873 205.48 311.353 204.94 313.153 204.94C314.913 204.94 316.353 205.48 317.473 206.56C318.633 207.6 319.213 208.92 319.213 210.52C319.213 212.08 318.633 213.4 317.473 214.48C316.353 215.52 314.913 216.04 313.153 216.04ZM318.253 219.52V253H307.993V219.52H318.253Z" fill="white"/>
<path d="M340.749 243.4L348.009 219.52H358.929L347.049 253H334.389L322.509 219.52H333.489L340.749 243.4Z" fill="white"/>
<path d="M394.807 235.72C394.807 236.68 394.747 237.68 394.627 238.72H371.407C371.567 240.8 372.227 242.4 373.387 243.52C374.587 244.6 376.047 245.14 377.767 245.14C380.327 245.14 382.107 244.06 383.107 241.9H394.027C393.467 244.1 392.447 246.08 390.967 247.84C389.527 249.6 387.707 250.98 385.507 251.98C383.307 252.98 380.847 253.48 378.127 253.48C374.847 253.48 371.927 252.78 369.367 251.38C366.807 249.98 364.807 247.98 363.367 245.38C361.927 242.78 361.207 239.74 361.207 236.26C361.207 232.78 361.907 229.74 363.307 227.14C364.747 224.54 366.747 222.54 369.307 221.14C371.867 219.74 374.807 219.04 378.127 219.04C381.367 219.04 384.247 219.72 386.767 221.08C389.287 222.44 391.247 224.38 392.647 226.9C394.087 229.42 394.807 232.36 394.807 235.72ZM384.307 233.02C384.307 231.26 383.707 229.86 382.507 228.82C381.307 227.78 379.807 227.26 378.007 227.26C376.287 227.26 374.827 227.76 373.627 228.76C372.467 229.76 371.747 231.18 371.467 233.02H384.307Z" fill="white"/>
<path d="M413.84 253.48C410.92 253.48 408.32 252.98 406.04 251.98C403.76 250.98 401.96 249.62 400.64 247.9C399.32 246.14 398.58 244.18 398.42 242.02H408.56C408.68 243.18 409.22 244.12 410.18 244.84C411.14 245.56 412.32 245.92 413.72 245.92C415 245.92 415.98 245.68 416.66 245.2C417.38 244.68 417.74 244.02 417.74 243.22C417.74 242.26 417.24 241.56 416.24 241.12C415.24 240.64 413.62 240.12 411.38 239.56C408.98 239 406.98 238.42 405.38 237.82C403.78 237.18 402.4 236.2 401.24 234.88C400.08 233.52 399.5 231.7 399.5 229.42C399.5 227.5 400.02 225.76 401.06 224.2C402.14 222.6 403.7 221.34 405.74 220.42C407.82 219.5 410.28 219.04 413.12 219.04C417.32 219.04 420.62 220.08 423.02 222.16C425.46 224.24 426.86 227 427.22 230.44H417.74C417.58 229.28 417.06 228.36 416.18 227.68C415.34 227 414.22 226.66 412.82 226.66C411.62 226.66 410.7 226.9 410.06 227.38C409.42 227.82 409.1 228.44 409.1 229.24C409.1 230.2 409.6 230.92 410.6 231.4C411.64 231.88 413.24 232.36 415.4 232.84C417.88 233.48 419.9 234.12 421.46 234.76C423.02 235.36 424.38 236.36 425.54 237.76C426.74 239.12 427.36 240.96 427.4 243.28C427.4 245.24 426.84 247 425.72 248.56C424.64 250.08 423.06 251.28 420.98 252.16C418.94 253.04 416.56 253.48 413.84 253.48Z" fill="white"/>
<path d="M438.837 216.04C437.037 216.04 435.557 215.52 434.397 214.48C433.277 213.4 432.717 212.08 432.717 210.52C432.717 208.92 433.277 207.6 434.397 206.56C435.557 205.48 437.037 204.94 438.837 204.94C440.597 204.94 442.037 205.48 443.157 206.56C444.317 207.6 444.897 208.92 444.897 210.52C444.897 212.08 444.317 213.4 443.157 214.48C442.037 215.52 440.597 216.04 438.837 216.04ZM443.937 219.52V253H433.677V219.52H443.937Z" fill="white"/>
<path d="M-2.2 157.88V183.08C-2.2 185.6 -1.58 187.54 -0.339996 188.9C0.900009 190.26 2.72 190.94 5.12 190.94C7.51999 190.94 9.36 190.26 10.64 188.9C11.92 187.54 12.56 185.6 12.56 183.08V157.88H22.82V183.02C22.82 186.78 22.02 189.96 20.42 192.56C18.82 195.16 16.66 197.12 13.94 198.44C11.26 199.76 8.26001 200.42 4.94 200.42C1.62 200.42 -1.36 199.78 -4 198.5C-6.60001 197.18 -8.65999 195.22 -10.18 192.62C-11.7 189.98 -12.46 186.78 -12.46 183.02V157.88H-2.2Z" fill="white"/>
<path d="M50.4247 166.16C54.3447 166.16 57.4647 167.44 59.7847 170C62.1447 172.52 63.3247 176 63.3247 180.44V200H53.1247V181.82C53.1247 179.58 52.5447 177.84 51.3847 176.6C50.2247 175.36 48.6647 174.74 46.7047 174.74C44.7447 174.74 43.1847 175.36 42.0247 176.6C40.8647 177.84 40.2847 179.58 40.2847 181.82V200H30.0247V166.52H40.2847V170.96C41.3247 169.48 42.7247 168.32 44.4847 167.48C46.2447 166.6 48.2247 166.16 50.4247 166.16Z" fill="white"/>
<path d="M75.6144 163.04C73.8144 163.04 72.3344 162.52 71.1744 161.48C70.0544 160.4 69.4944 159.08 69.4944 157.52C69.4944 155.92 70.0544 154.6 71.1744 153.56C72.3344 152.48 73.8144 151.94 75.6144 151.94C77.3744 151.94 78.8144 152.48 79.9344 153.56C81.0944 154.6 81.6744 155.92 81.6744 157.52C81.6744 159.08 81.0944 160.4 79.9344 161.48C78.8144 162.52 77.3744 163.04 75.6144 163.04ZM80.7144 166.52V200H70.4544V166.52H80.7144Z" fill="white"/>
<path d="M103.21 190.4L110.47 166.52H121.39L109.51 200H96.8497L84.9697 166.52H95.9497L103.21 190.4Z" fill="white"/>
<path d="M157.268 182.72C157.268 183.68 157.208 184.68 157.088 185.72H133.868C134.028 187.8 134.688 189.4 135.848 190.52C137.048 191.6 138.508 192.14 140.228 192.14C142.788 192.14 144.568 191.06 145.568 188.9H156.488C155.928 191.1 154.908 193.08 153.428 194.84C151.988 196.6 150.168 197.98 147.968 198.98C145.768 199.98 143.308 200.48 140.588 200.48C137.308 200.48 134.388 199.78 131.828 198.38C129.268 196.98 127.268 194.98 125.828 192.38C124.388 189.78 123.668 186.74 123.668 183.26C123.668 179.78 124.368 176.74 125.768 174.14C127.208 171.54 129.208 169.54 131.768 168.14C134.328 166.74 137.268 166.04 140.588 166.04C143.828 166.04 146.708 166.72 149.228 168.08C151.748 169.44 153.708 171.38 155.108 173.9C156.548 176.42 157.268 179.36 157.268 182.72ZM146.768 180.02C146.768 178.26 146.168 176.86 144.968 175.82C143.768 174.78 142.268 174.26 140.468 174.26C138.748 174.26 137.288 174.76 136.088 175.76C134.928 176.76 134.208 178.18 133.928 180.02H146.768Z" fill="white"/>
<path d="M172.941 172.1C174.141 170.26 175.641 168.82 177.441 167.78C179.241 166.7 181.241 166.16 183.441 166.16V177.02H180.621C178.061 177.02 176.141 177.58 174.861 178.7C173.581 179.78 172.941 181.7 172.941 184.46V200H162.681V166.52H172.941V172.1Z" fill="white"/>
<path d="M201.965 200.48C199.045 200.48 196.445 199.98 194.165 198.98C191.885 197.98 190.085 196.62 188.765 194.9C187.445 193.14 186.705 191.18 186.545 189.02H196.685C196.805 190.18 197.345 191.12 198.305 191.84C199.265 192.56 200.445 192.92 201.845 192.92C203.125 192.92 204.105 192.68 204.785 192.2C205.505 191.68 205.865 191.02 205.865 190.22C205.865 189.26 205.365 188.56 204.365 188.12C203.365 187.64 201.745 187.12 199.505 186.56C197.105 186 195.105 185.42 193.505 184.82C191.905 184.18 190.525 183.2 189.365 181.88C188.205 180.52 187.625 178.7 187.625 176.42C187.625 174.5 188.145 172.76 189.185 171.2C190.265 169.6 191.825 168.34 193.865 167.42C195.945 166.5 198.405 166.04 201.245 166.04C205.445 166.04 208.745 167.08 211.145 169.16C213.585 171.24 214.985 174 215.345 177.44H205.865C205.705 176.28 205.185 175.36 204.305 174.68C203.465 174 202.345 173.66 200.945 173.66C199.745 173.66 198.825 173.9 198.185 174.38C197.545 174.82 197.225 175.44 197.225 176.24C197.225 177.2 197.725 177.92 198.725 178.4C199.765 178.88 201.365 179.36 203.525 179.84C206.005 180.48 208.025 181.12 209.585 181.76C211.145 182.36 212.505 183.36 213.665 184.76C214.865 186.12 215.485 187.96 215.525 190.28C215.525 192.24 214.965 194 213.845 195.56C212.765 197.08 211.185 198.28 209.105 199.16C207.065 200.04 204.685 200.48 201.965 200.48Z" fill="white"/>
<path d="M226.962 163.04C225.162 163.04 223.682 162.52 222.522 161.48C221.402 160.4 220.842 159.08 220.842 157.52C220.842 155.92 221.402 154.6 222.522 153.56C223.682 152.48 225.162 151.94 226.962 151.94C228.722 151.94 230.162 152.48 231.282 153.56C232.442 154.6 233.022 155.92 233.022 157.52C233.022 159.08 232.442 160.4 231.282 161.48C230.162 162.52 228.722 163.04 226.962 163.04ZM232.062 166.52V200H221.802V166.52H232.062Z" fill="white"/>
<path d="M258.157 191.3V200H252.937C249.217 200 246.317 199.1 244.237 197.3C242.157 195.46 241.117 192.48 241.117 188.36V175.04H237.037V166.52H241.117V158.36H251.377V166.52H258.097V175.04H251.377V188.48C251.377 189.48 251.617 190.2 252.097 190.64C252.577 191.08 253.377 191.3 254.497 191.3H258.157Z" fill="white"/>
<path d="M298.072 166.52L277.072 215.9H266.032L273.712 198.86L260.092 166.52H271.552L279.292 187.46L286.972 166.52H298.072Z" fill="white"/>
<path d="M330.277 157.88C334.717 157.88 338.597 158.76 341.917 160.52C345.237 162.28 347.797 164.76 349.597 167.96C351.437 171.12 352.357 174.78 352.357 178.94C352.357 183.06 351.437 186.72 349.597 189.92C347.797 193.12 345.217 195.6 341.857 197.36C338.537 199.12 334.677 200 330.277 200H314.497V157.88H330.277ZM329.617 191.12C333.497 191.12 336.517 190.06 338.677 187.94C340.837 185.82 341.917 182.82 341.917 178.94C341.917 175.06 340.837 172.04 338.677 169.88C336.517 167.72 333.497 166.64 329.617 166.64H324.757V191.12H329.617Z" fill="white"/>
<path d="M389.651 182.72C389.651 183.68 389.591 184.68 389.471 185.72H366.251C366.411 187.8 367.071 189.4 368.231 190.52C369.431 191.6 370.891 192.14 372.611 192.14C375.171 192.14 376.951 191.06 377.951 188.9H388.871C388.311 191.1 387.291 193.08 385.811 194.84C384.371 196.6 382.551 197.98 380.351 198.98C378.151 199.98 375.691 200.48 372.971 200.48C369.691 200.48 366.771 199.78 364.211 198.38C361.651 196.98 359.651 194.98 358.211 192.38C356.771 189.78 356.051 186.74 356.051 183.26C356.051 179.78 356.751 176.74 358.151 174.14C359.591 171.54 361.591 169.54 364.151 168.14C366.711 166.74 369.651 166.04 372.971 166.04C376.211 166.04 379.091 166.72 381.611 168.08C384.131 169.44 386.091 171.38 387.491 173.9C388.931 176.42 389.651 179.36 389.651 182.72ZM379.151 180.02C379.151 178.26 378.551 176.86 377.351 175.82C376.151 174.78 374.651 174.26 372.851 174.26C371.131 174.26 369.671 174.76 368.471 175.76C367.311 176.76 366.591 178.18 366.311 180.02H379.151Z" fill="white"/>
<path d="M407.784 166.04C410.144 166.04 412.204 166.52 413.964 167.48C415.764 168.44 417.144 169.7 418.104 171.26V166.52H428.364V199.94C428.364 203.02 427.744 205.8 426.504 208.28C425.304 210.8 423.444 212.8 420.924 214.28C418.444 215.76 415.344 216.5 411.624 216.5C406.664 216.5 402.644 215.32 399.564 212.96C396.484 210.64 394.724 207.48 394.284 203.48H404.424C404.744 204.76 405.504 205.76 406.704 206.48C407.904 207.24 409.384 207.62 411.144 207.62C413.264 207.62 414.944 207 416.184 205.76C417.464 204.56 418.104 202.62 418.104 199.94V195.2C417.104 196.76 415.724 198.04 413.964 199.04C412.204 200 410.144 200.48 407.784 200.48C405.024 200.48 402.524 199.78 400.284 198.38C398.044 196.94 396.264 194.92 394.944 192.32C393.664 189.68 393.024 186.64 393.024 183.2C393.024 179.76 393.664 176.74 394.944 174.14C396.264 171.54 398.044 169.54 400.284 168.14C402.524 166.74 405.024 166.04 407.784 166.04ZM418.104 183.26C418.104 180.7 417.384 178.68 415.944 177.2C414.544 175.72 412.824 174.98 410.784 174.98C408.744 174.98 407.004 175.72 405.564 177.2C404.164 178.64 403.464 180.64 403.464 183.2C403.464 185.76 404.164 187.8 405.564 189.32C407.004 190.8 408.744 191.54 410.784 191.54C412.824 191.54 414.544 190.8 415.944 189.32C417.384 187.84 418.104 185.82 418.104 183.26Z" fill="white"/>
<path d="M16.94 142.56H1.22L-1.3 150H-12.04L3.2 107.88H15.08L30.32 150H19.46L16.94 142.56ZM14.3 134.64L9.08 119.22L3.92 134.64H14.3Z" fill="white"/>
<path d="M45.2183 121.26C46.1783 119.7 47.5583 118.44 49.3583 117.48C51.1583 116.52 53.2183 116.04 55.5383 116.04C58.2983 116.04 60.7983 116.74 63.0383 118.14C65.2783 119.54 67.0383 121.54 68.3183 124.14C69.6383 126.74 70.2983 129.76 70.2983 133.2C70.2983 136.64 69.6383 139.68 68.3183 142.32C67.0383 144.92 65.2783 146.94 63.0383 148.38C60.7983 149.78 58.2983 150.48 55.5383 150.48C53.1783 150.48 51.1183 150.02 49.3583 149.1C47.5983 148.14 46.2183 146.88 45.2183 145.32V150H34.9583V105.6H45.2183V121.26ZM59.8583 133.2C59.8583 130.64 59.1383 128.64 57.6983 127.2C56.2983 125.72 54.5583 124.98 52.4783 124.98C50.4383 124.98 48.6983 125.72 47.2583 127.2C45.8583 128.68 45.1583 130.7 45.1583 133.26C45.1583 135.82 45.8583 137.84 47.2583 139.32C48.6983 140.8 50.4383 141.54 52.4783 141.54C54.5183 141.54 56.2583 140.8 57.6983 139.32C59.1383 137.8 59.8583 135.76 59.8583 133.2Z" fill="white"/>
<path d="M90.9209 150.48C87.6409 150.48 84.6809 149.78 82.0409 148.38C79.4409 146.98 77.3809 144.98 75.8609 142.38C74.3809 139.78 73.6409 136.74 73.6409 133.26C73.6409 129.82 74.4009 126.8 75.9209 124.2C77.4409 121.56 79.5209 119.54 82.1609 118.14C84.801 116.74 87.7609 116.04 91.0409 116.04C94.3209 116.04 97.2809 116.74 99.9209 118.14C102.561 119.54 104.641 121.56 106.161 124.2C107.681 126.8 108.441 129.82 108.441 133.26C108.441 136.7 107.661 139.74 106.101 142.38C104.581 144.98 102.481 146.98 99.8009 148.38C97.1609 149.78 94.2009 150.48 90.9209 150.48ZM90.9209 141.6C92.8809 141.6 94.541 140.88 95.9009 139.44C97.3009 138 98.0009 135.94 98.0009 133.26C98.0009 130.58 97.3209 128.52 95.9609 127.08C94.6409 125.64 93.0009 124.92 91.0409 124.92C89.0409 124.92 87.381 125.64 86.0609 127.08C84.7409 128.48 84.0809 130.54 84.0809 133.26C84.0809 135.94 84.7209 138 86.0009 139.44C87.321 140.88 88.9609 141.6 90.9209 141.6Z" fill="white"/>
<path d="M146.944 116.52V150H136.684V145.44C135.644 146.92 134.224 148.12 132.424 149.04C130.664 149.92 128.704 150.36 126.544 150.36C123.984 150.36 121.724 149.8 119.764 148.68C117.804 147.52 116.284 145.86 115.204 143.7C114.124 141.54 113.584 139 113.584 136.08V116.52H123.784V134.7C123.784 136.94 124.364 138.68 125.524 139.92C126.684 141.16 128.244 141.78 130.204 141.78C132.204 141.78 133.784 141.16 134.944 139.92C136.104 138.68 136.684 136.94 136.684 134.7V116.52H146.944Z" fill="white"/>
<path d="M172.974 141.3V150H167.754C164.034 150 161.134 149.1 159.054 147.3C156.974 145.46 155.934 142.48 155.934 138.36V125.04H151.854V116.52H155.934V108.36H166.194V116.52H172.914V125.04H166.194V138.48C166.194 139.48 166.434 140.2 166.914 140.64C167.394 141.08 168.194 141.3 169.314 141.3H172.974Z" fill="white"/>
<path d="M201.664 116.1V124.62H215.404V132.54H201.664V141.78H217.204V150H191.404V107.88H217.204V116.1H201.664Z" fill="white"/>
<path d="M239.105 150.42C236.025 150.42 233.265 149.92 230.825 148.92C228.385 147.92 226.425 146.44 224.945 144.48C223.505 142.52 222.745 140.16 222.665 137.4H233.585C233.745 138.96 234.285 140.16 235.205 141C236.125 141.8 237.325 142.2 238.805 142.2C240.325 142.2 241.525 141.86 242.405 141.18C243.285 140.46 243.725 139.48 243.725 138.24C243.725 137.2 243.365 136.34 242.645 135.66C241.965 134.98 241.105 134.42 240.065 133.98C239.065 133.54 237.625 133.04 235.745 132.48C233.025 131.64 230.805 130.8 229.085 129.96C227.365 129.12 225.885 127.88 224.645 126.24C223.405 124.6 222.785 122.46 222.785 119.82C222.785 115.9 224.205 112.84 227.045 110.64C229.885 108.4 233.585 107.28 238.145 107.28C242.785 107.28 246.525 108.4 249.365 110.64C252.205 112.84 253.725 115.92 253.925 119.88H242.825C242.745 118.52 242.245 117.46 241.325 116.7C240.405 115.9 239.225 115.5 237.785 115.5C236.545 115.5 235.545 115.84 234.785 116.52C234.025 117.16 233.645 118.1 233.645 119.34C233.645 120.7 234.285 121.76 235.565 122.52C236.845 123.28 238.845 124.1 241.565 124.98C244.285 125.9 246.485 126.78 248.165 127.62C249.885 128.46 251.365 129.68 252.605 131.28C253.845 132.88 254.465 134.94 254.465 137.46C254.465 139.86 253.845 142.04 252.605 144C251.405 145.96 249.645 147.52 247.325 148.68C245.005 149.84 242.265 150.42 239.105 150.42Z" fill="white"/>
<path d="M271.039 142.08H284.479V150H260.779V107.88H271.039V142.08Z" fill="white"/>
<path d="M304.612 150.42C301.532 150.42 298.772 149.92 296.332 148.92C293.892 147.92 291.932 146.44 290.452 144.48C289.012 142.52 288.252 140.16 288.172 137.4H299.092C299.252 138.96 299.792 140.16 300.712 141C301.632 141.8 302.832 142.2 304.312 142.2C305.832 142.2 307.032 141.86 307.912 141.18C308.792 140.46 309.232 139.48 309.232 138.24C309.232 137.2 308.872 136.34 308.152 135.66C307.472 134.98 306.612 134.42 305.572 133.98C304.572 133.54 303.132 133.04 301.252 132.48C298.532 131.64 296.312 130.8 294.592 129.96C292.872 129.12 291.392 127.88 290.152 126.24C288.912 124.6 288.292 122.46 288.292 119.82C288.292 115.9 289.712 112.84 292.552 110.64C295.392 108.4 299.092 107.28 303.652 107.28C308.292 107.28 312.032 108.4 314.872 110.64C317.712 112.84 319.232 115.92 319.432 119.88H308.332C308.252 118.52 307.752 117.46 306.832 116.7C305.912 115.9 304.732 115.5 303.292 115.5C302.052 115.5 301.052 115.84 300.292 116.52C299.532 117.16 299.152 118.1 299.152 119.34C299.152 120.7 299.792 121.76 301.072 122.52C302.352 123.28 304.352 124.1 307.072 124.98C309.792 125.9 311.992 126.78 313.672 127.62C315.392 128.46 316.872 129.68 318.112 131.28C319.352 132.88 319.972 134.94 319.972 137.46C319.972 139.86 319.352 142.04 318.112 144C316.912 145.96 315.152 147.52 312.832 148.68C310.512 149.84 307.772 150.42 304.612 150.42Z" fill="white"/>
<path d="M324.546 128.88C324.546 124.72 325.446 121.02 327.246 117.78C329.046 114.5 331.546 111.96 334.746 110.16C337.986 108.32 341.646 107.4 345.726 107.4C350.726 107.4 355.006 108.72 358.566 111.36C362.126 114 364.506 117.6 365.706 122.16H354.426C353.586 120.4 352.386 119.06 350.826 118.14C349.306 117.22 347.566 116.76 345.606 116.76C342.446 116.76 339.886 117.86 337.926 120.06C335.966 122.26 334.986 125.2 334.986 128.88C334.986 132.56 335.966 135.5 337.926 137.7C339.886 139.9 342.446 141 345.606 141C347.566 141 349.306 140.54 350.826 139.62C352.386 138.7 353.586 137.36 354.426 135.6H365.706C364.506 140.16 362.126 143.76 358.566 146.4C355.006 149 350.726 150.3 345.726 150.3C341.646 150.3 337.986 149.4 334.746 147.6C331.546 145.76 329.046 143.22 327.246 139.98C325.446 136.74 324.546 133.04 324.546 128.88Z" fill="white"/>
<path d="M398.21 142.56H382.49L379.97 150H369.23L384.47 107.88H396.35L411.59 150H400.73L398.21 142.56ZM395.57 134.64L390.35 119.22L385.19 134.64H395.57Z" fill="white"/>
<path d="M61.68 54.8799L50.7 96.9999H38.28L31.56 69.2799L24.6 96.9999H12.18L1.5 54.8799H12.48L18.54 85.5399L26.04 54.8799H37.32L44.52 85.5399L50.64 54.8799H61.68Z" fill="white"/>
<path d="M82.0655 97.4799C78.7855 97.4799 75.8255 96.7799 73.1855 95.3799C70.5854 93.9799 68.5255 91.9799 67.0055 89.3799C65.5255 86.7799 64.7855 83.7399 64.7855 80.2599C64.7855 76.8199 65.5455 73.7999 67.0655 71.1999C68.5854 68.5599 70.6655 66.5399 73.3055 65.1399C75.9455 63.7399 78.9055 63.0399 82.1855 63.0399C85.4655 63.0399 88.4254 63.7399 91.0655 65.1399C93.7054 66.5399 95.7855 68.5599 97.3055 71.1999C98.8255 73.7999 99.5855 76.8199 99.5855 80.2599C99.5855 83.6999 98.8055 86.7399 97.2455 89.3799C95.7255 91.9799 93.6255 93.9799 90.9455 95.3799C88.3055 96.7799 85.3455 97.4799 82.0655 97.4799ZM82.0655 88.5999C84.0255 88.5999 85.6855 87.8799 87.0455 86.4399C88.4455 84.9999 89.1455 82.9399 89.1455 80.2599C89.1455 77.5799 88.4655 75.5199 87.1055 74.0799C85.7855 72.6399 84.1454 71.9199 82.1855 71.9199C80.1855 71.9199 78.5255 72.6399 77.2055 74.0799C75.8855 75.4799 75.2255 77.5399 75.2255 80.2599C75.2255 82.9399 75.8655 84.9999 77.1455 86.4399C78.4655 87.8799 80.1055 88.5999 82.0655 88.5999Z" fill="white"/>
<path d="M115.289 69.0999C116.489 67.2599 117.989 65.8199 119.789 64.7799C121.589 63.6999 123.589 63.1599 125.789 63.1599V74.0199H122.969C120.409 74.0199 118.489 74.5799 117.209 75.6999C115.929 76.7799 115.289 78.6999 115.289 81.4599V96.9999H105.029V63.5199H115.289V69.0999Z" fill="white"/>
<path d="M128.653 80.1999C128.653 76.7599 129.293 73.7399 130.573 71.1399C131.893 68.5399 133.673 66.5399 135.913 65.1399C138.153 63.7399 140.653 63.0399 143.413 63.0399C145.613 63.0399 147.613 63.4999 149.413 64.4199C151.253 65.3399 152.693 66.5799 153.733 68.1399V52.5999H163.993V96.9999H153.733V92.1999C152.773 93.7999 151.393 95.0799 149.593 96.0399C147.833 96.9999 145.773 97.4799 143.413 97.4799C140.653 97.4799 138.153 96.7799 135.913 95.3799C133.673 93.9399 131.893 91.9199 130.573 89.3199C129.293 86.6799 128.653 83.6399 128.653 80.1999ZM153.733 80.2599C153.733 77.6999 153.013 75.6799 151.573 74.1999C150.173 72.7199 148.453 71.9799 146.413 71.9799C144.373 71.9799 142.633 72.7199 141.193 74.1999C139.793 75.6399 139.093 77.6399 139.093 80.1999C139.093 82.7599 139.793 84.7999 141.193 86.3199C142.633 87.7999 144.373 88.5399 146.413 88.5399C148.453 88.5399 150.173 87.7999 151.573 86.3199C153.013 84.8399 153.733 82.8199 153.733 80.2599Z" fill="white"/>
<path d="M200.93 72.0399H195.41V96.9999H185.15V72.0399H181.43V63.5199H185.15V62.5599C185.15 58.4399 186.33 55.3199 188.69 53.1999C191.05 51.0399 194.51 49.9599 199.07 49.9599C199.83 49.9599 200.39 49.9799 200.75 50.0199V58.7199C198.79 58.5999 197.41 58.8799 196.61 59.5599C195.81 60.2399 195.41 61.4599 195.41 63.2199V63.5199H200.93V72.0399Z" fill="white"/>
<path d="M216.011 69.0999C217.211 67.2599 218.711 65.8199 220.511 64.7799C222.311 63.6999 224.311 63.1599 226.511 63.1599V74.0199H223.691C221.131 74.0199 219.211 74.5799 217.931 75.6999C216.651 76.7799 216.011 78.6999 216.011 81.4599V96.9999H205.751V63.5199H216.011V69.0999Z" fill="white"/>
<path d="M246.655 97.4799C243.375 97.4799 240.415 96.7799 237.775 95.3799C235.175 93.9799 233.115 91.9799 231.595 89.3799C230.115 86.7799 229.375 83.7399 229.375 80.2599C229.375 76.8199 230.135 73.7999 231.655 71.1999C233.175 68.5599 235.255 66.5399 237.895 65.1399C240.535 63.7399 243.495 63.0399 246.775 63.0399C250.055 63.0399 253.015 63.7399 255.655 65.1399C258.295 66.5399 260.375 68.5599 261.895 71.1999C263.415 73.7999 264.175 76.8199 264.175 80.2599C264.175 83.6999 263.395 86.7399 261.835 89.3799C260.315 91.9799 258.215 93.9799 255.535 95.3799C252.895 96.7799 249.935 97.4799 246.655 97.4799ZM246.655 88.5999C248.615 88.5999 250.275 87.8799 251.635 86.4399C253.035 84.9999 253.735 82.9399 253.735 80.2599C253.735 77.5799 253.055 75.5199 251.695 74.0799C250.375 72.6399 248.735 71.9199 246.775 71.9199C244.775 71.9199 243.115 72.6399 241.795 74.0799C240.475 75.4799 239.815 77.5399 239.815 80.2599C239.815 82.9399 240.455 84.9999 241.735 86.4399C243.055 87.8799 244.695 88.5999 246.655 88.5999Z" fill="white"/>
<path d="M312.338 63.1599C316.498 63.1599 319.798 64.4199 322.238 66.9399C324.718 69.4599 325.958 72.9599 325.958 77.4399V96.9999H315.758V78.8199C315.758 76.6599 315.178 74.9999 314.018 73.8399C312.898 72.6399 311.338 72.0399 309.338 72.0399C307.338 72.0399 305.758 72.6399 304.598 73.8399C303.478 74.9999 302.918 76.6599 302.918 78.8199V96.9999H292.718V78.8199C292.718 76.6599 292.138 74.9999 290.978 73.8399C289.858 72.6399 288.298 72.0399 286.298 72.0399C284.298 72.0399 282.718 72.6399 281.558 73.8399C280.438 74.9999 279.878 76.6599 279.878 78.8199V96.9999H269.618V63.5199H279.878V67.7199C280.918 66.3199 282.278 65.2199 283.958 64.4199C285.638 63.5799 287.538 63.1599 289.658 63.1599C292.178 63.1599 294.418 63.6999 296.378 64.7799C298.378 65.8599 299.938 67.3999 301.058 69.3999C302.218 67.5599 303.798 66.0599 305.798 64.8999C307.798 63.7399 309.978 63.1599 312.338 63.1599Z" fill="white"/>
<path d="M361.089 97.4799C357.809 97.4799 354.849 96.7799 352.209 95.3799C349.609 93.9799 347.549 91.9799 346.029 89.3799C344.549 86.7799 343.809 83.7399 343.809 80.2599C343.809 76.8199 344.569 73.7999 346.089 71.1999C347.609 68.5599 349.689 66.5399 352.329 65.1399C354.969 63.7399 357.929 63.0399 361.209 63.0399C364.489 63.0399 367.449 63.7399 370.089 65.1399C372.729 66.5399 374.809 68.5599 376.329 71.1999C377.849 73.7999 378.609 76.8199 378.609 80.2599C378.609 83.6999 377.829 86.7399 376.269 89.3799C374.749 91.9799 372.649 93.9799 369.969 95.3799C367.329 96.7799 364.369 97.4799 361.089 97.4799ZM361.089 88.5999C363.049 88.5999 364.709 87.8799 366.069 86.4399C367.469 84.9999 368.169 82.9399 368.169 80.2599C368.169 77.5799 367.489 75.5199 366.129 74.0799C364.809 72.6399 363.169 71.9199 361.209 71.9199C359.209 71.9199 357.549 72.6399 356.229 74.0799C354.909 75.4799 354.249 77.5399 354.249 80.2599C354.249 82.9399 354.889 84.9999 356.169 86.4399C357.489 87.8799 359.129 88.5999 361.089 88.5999Z" fill="white"/>
<path d="M417.112 63.5199V96.9999H406.852V92.4399C405.812 93.9199 404.392 95.1199 402.592 96.0399C400.832 96.9199 398.872 97.3599 396.712 97.3599C394.152 97.3599 391.892 96.7999 389.932 95.6799C387.972 94.5199 386.452 92.8599 385.372 90.6999C384.292 88.5399 383.752 85.9999 383.752 83.0799V63.5199H393.952V81.6999C393.952 83.9399 394.532 85.6799 395.692 86.9199C396.852 88.1599 398.412 88.7799 400.372 88.7799C402.372 88.7799 403.952 88.1599 405.112 86.9199C406.272 85.6799 406.852 83.9399 406.852 81.6999V63.5199H417.112Z" fill="white"/>
<path d="M-149.32 4.87994L-160.3 46.9999H-172.72L-179.44 19.2799L-186.4 46.9999H-198.82L-209.5 4.87994H-198.52L-192.46 35.5399L-184.96 4.87994H-173.68L-166.48 35.5399L-160.36 4.87994H-149.32Z" fill="white"/>
<path d="M-128.935 47.4799C-132.215 47.4799 -135.175 46.7799 -137.815 45.3799C-140.415 43.9799 -142.475 41.9799 -143.995 39.3799C-145.475 36.7799 -146.215 33.7399 -146.215 30.2599C-146.215 26.8199 -145.455 23.7999 -143.935 21.1999C-142.415 18.5599 -140.335 16.5399 -137.695 15.1399C-135.055 13.7399 -132.095 13.0399 -128.815 13.0399C-125.535 13.0399 -122.575 13.7399 -119.935 15.1399C-117.295 16.5399 -115.215 18.5599 -113.695 21.1999C-112.175 23.7999 -111.415 26.8199 -111.415 30.2599C-111.415 33.6999 -112.195 36.7399 -113.755 39.3799C-115.275 41.9799 -117.375 43.9799 -120.055 45.3799C-122.695 46.7799 -125.655 47.4799 -128.935 47.4799ZM-128.935 38.5999C-126.975 38.5999 -125.315 37.8799 -123.955 36.4399C-122.555 34.9999 -121.855 32.9399 -121.855 30.2599C-121.855 27.5799 -122.535 25.5199 -123.895 24.0799C-125.215 22.6399 -126.855 21.9199 -128.815 21.9199C-130.815 21.9199 -132.475 22.6399 -133.795 24.0799C-135.115 25.4799 -135.775 27.5399 -135.775 30.2599C-135.775 32.9399 -135.135 34.9999 -133.855 36.4399C-132.535 37.8799 -130.895 38.5999 -128.935 38.5999Z" fill="white"/>
<path d="M-95.7114 19.0999C-94.5114 17.2599 -93.0114 15.8199 -91.2114 14.7799C-89.4114 13.6999 -87.4114 13.1599 -85.2114 13.1599V24.0199H-88.0314C-90.5914 24.0199 -92.5114 24.5799 -93.7914 25.6999C-95.0714 26.7799 -95.7114 28.6999 -95.7114 31.4599V46.9999H-105.971V13.5199H-95.7114V19.0999Z" fill="white"/>
<path d="M-82.3473 30.1999C-82.3473 26.7599 -81.7073 23.7399 -80.4273 21.1399C-79.1073 18.5399 -77.3273 16.5399 -75.0873 15.1399C-72.8473 13.7399 -70.3473 13.0399 -67.5873 13.0399C-65.3873 13.0399 -63.3873 13.4999 -61.5873 14.4199C-59.7473 15.3399 -58.3073 16.5799 -57.2673 18.1399V2.59994H-47.0073V46.9999H-57.2673V42.1999C-58.2274 43.7999 -59.6073 45.0799 -61.4073 46.0399C-63.1673 46.9999 -65.2273 47.4799 -67.5873 47.4799C-70.3473 47.4799 -72.8473 46.7799 -75.0873 45.3799C-77.3273 43.9399 -79.1073 41.9199 -80.4273 39.3199C-81.7073 36.6799 -82.3473 33.6399 -82.3473 30.1999ZM-57.2673 30.2599C-57.2673 27.6999 -57.9873 25.6799 -59.4273 24.1999C-60.8273 22.7199 -62.5473 21.9799 -64.5873 21.9799C-66.6273 21.9799 -68.3673 22.7199 -69.8073 24.1999C-71.2073 25.6399 -71.9073 27.6399 -71.9073 30.1999C-71.9073 32.7599 -71.2073 34.7999 -69.8073 36.3199C-68.3673 37.7999 -66.6273 38.5399 -64.5873 38.5399C-62.5473 38.5399 -60.8273 37.7999 -59.4273 36.3199C-57.9873 34.8399 -57.2673 32.8199 -57.2673 30.2599Z" fill="white"/>
<path d="M-10.0698 22.0399H-15.5898V46.9999H-25.8498V22.0399H-29.5698V13.5199H-25.8498V12.5599C-25.8498 8.43994 -24.6698 5.31994 -22.3098 3.19994C-19.9498 1.03994 -16.4898 -0.0400574 -11.9298 -0.0400574C-11.1698 -0.0400574 -10.6098 -0.0200577 -10.2498 0.0199418V8.71994C-12.2099 8.59994 -13.5898 8.87994 -14.3898 9.55994C-15.1898 10.2399 -15.5898 11.4599 -15.5898 13.2199V13.5199H-10.0698V22.0399Z" fill="white"/>
<path d="M5.01125 19.0999C6.21124 17.2599 7.71124 15.8199 9.51125 14.7799C11.3112 13.6999 13.3112 13.1599 15.5112 13.1599V24.0199H12.6913C10.1313 24.0199 8.21124 24.5799 6.93124 25.6999C5.65125 26.7799 5.01125 28.6999 5.01125 31.4599V46.9999H-5.24875V13.5199H5.01125V19.0999Z" fill="white"/>
<path d="M35.6553 47.4799C32.3753 47.4799 29.4153 46.7799 26.7753 45.3799C24.1753 43.9799 22.1153 41.9799 20.5953 39.3799C19.1153 36.7799 18.3753 33.7399 18.3753 30.2599C18.3753 26.8199 19.1353 23.7999 20.6553 21.1999C22.1753 18.5599 24.2553 16.5399 26.8953 15.1399C29.5353 13.7399 32.4953 13.0399 35.7753 13.0399C39.0553 13.0399 42.0153 13.7399 44.6553 15.1399C47.2953 16.5399 49.3753 18.5599 50.8953 21.1999C52.4153 23.7999 53.1753 26.8199 53.1753 30.2599C53.1753 33.6999 52.3953 36.7399 50.8353 39.3799C49.3153 41.9799 47.2153 43.9799 44.5353 45.3799C41.8953 46.7799 38.9353 47.4799 35.6553 47.4799ZM35.6553 38.5999C37.6153 38.5999 39.2753 37.8799 40.6353 36.4399C42.0353 34.9999 42.7353 32.9399 42.7353 30.2599C42.7353 27.5799 42.0553 25.5199 40.6953 24.0799C39.3753 22.6399 37.7353 21.9199 35.7753 21.9199C33.7753 21.9199 32.1153 22.6399 30.7953 24.0799C29.4753 25.4799 28.8153 27.5399 28.8153 30.2599C28.8153 32.9399 29.4553 34.9999 30.7353 36.4399C32.0553 37.8799 33.6953 38.5999 35.6553 38.5999Z" fill="white"/>
<path d="M101.338 13.1599C105.498 13.1599 108.798 14.4199 111.238 16.9399C113.718 19.4599 114.958 22.9599 114.958 27.4399V46.9999H104.758V28.8199C104.758 26.6599 104.178 24.9999 103.018 23.8399C101.898 22.6399 100.338 22.0399 98.3384 22.0399C96.3384 22.0399 94.7585 22.6399 93.5984 23.8399C92.4785 24.9999 91.9184 26.6599 91.9184 28.8199V46.9999H81.7184V28.8199C81.7184 26.6599 81.1384 24.9999 79.9784 23.8399C78.8584 22.6399 77.2984 22.0399 75.2984 22.0399C73.2984 22.0399 71.7184 22.6399 70.5584 23.8399C69.4384 24.9999 68.8784 26.6599 68.8784 28.8199V46.9999H58.6184V13.5199H68.8784V17.7199C69.9185 16.3199 71.2784 15.2199 72.9584 14.4199C74.6384 13.5799 76.5385 13.1599 78.6584 13.1599C81.1784 13.1599 83.4185 13.6999 85.3784 14.7799C87.3784 15.8599 88.9384 17.3999 90.0584 19.3999C91.2184 17.5599 92.7984 16.0599 94.7984 14.8999C96.7984 13.7399 98.9785 13.1599 101.338 13.1599Z" fill="white"/>
<path d="M150.089 47.4799C146.809 47.4799 143.849 46.7799 141.209 45.3799C138.609 43.9799 136.549 41.9799 135.029 39.3799C133.549 36.7799 132.809 33.7399 132.809 30.2599C132.809 26.8199 133.569 23.7999 135.089 21.1999C136.609 18.5599 138.689 16.5399 141.329 15.1399C143.969 13.7399 146.929 13.0399 150.209 13.0399C153.489 13.0399 156.449 13.7399 159.089 15.1399C161.729 16.5399 163.809 18.5599 165.329 21.1999C166.849 23.7999 167.609 26.8199 167.609 30.2599C167.609 33.6999 166.829 36.7399 165.269 39.3799C163.749 41.9799 161.649 43.9799 158.969 45.3799C156.329 46.7799 153.369 47.4799 150.089 47.4799ZM150.089 38.5999C152.049 38.5999 153.709 37.8799 155.069 36.4399C156.469 34.9999 157.169 32.9399 157.169 30.2599C157.169 27.5799 156.489 25.5199 155.129 24.0799C153.809 22.6399 152.169 21.9199 150.209 21.9199C148.209 21.9199 146.549 22.6399 145.229 24.0799C143.909 25.4799 143.249 27.5399 143.249 30.2599C143.249 32.9399 143.889 34.9999 145.169 36.4399C146.489 37.8799 148.129 38.5999 150.089 38.5999Z" fill="white"/>
<path d="M206.112 13.5199V46.9999H195.852V42.4399C194.812 43.9199 193.392 45.1199 191.592 46.0399C189.832 46.9199 187.872 47.3599 185.712 47.3599C183.152 47.3599 180.892 46.7999 178.932 45.6799C176.972 44.5199 175.452 42.8599 174.372 40.6999C173.292 38.5399 172.752 35.9999 172.752 33.0799V13.5199H182.952V31.6999C182.952 33.9399 183.532 35.6799 184.692 36.9199C185.852 38.1599 187.412 38.7799 189.372 38.7799C191.372 38.7799 192.952 38.1599 194.112 36.9199C195.272 35.6799 195.852 33.9399 195.852 31.6999V13.5199H206.112Z" fill="white"/>
<path d="M223.742 19.0999C224.942 17.2599 226.442 15.8199 228.242 14.7799C230.042 13.6999 232.042 13.1599 234.242 13.1599V24.0199H231.422C228.862 24.0199 226.942 24.5799 225.662 25.6999C224.382 26.7799 223.742 28.6999 223.742 31.4599V46.9999H213.482V13.5199H223.742V19.0999Z" fill="white"/>
<path d="M262.121 18.2599C263.121 16.6999 264.501 15.4399 266.261 14.4799C268.021 13.5199 270.081 13.0399 272.441 13.0399C275.201 13.0399 277.701 13.7399 279.941 15.1399C282.181 16.5399 283.941 18.5399 285.221 21.1399C286.541 23.7399 287.201 26.7599 287.201 30.1999C287.201 33.6399 286.541 36.6799 285.221 39.3199C283.941 41.9199 282.181 43.9399 279.941 45.3799C277.701 46.7799 275.201 47.4799 272.441 47.4799C270.121 47.4799 268.061 46.9999 266.261 46.0399C264.501 45.0799 263.121 43.8399 262.121 42.3199V62.9599H251.861V13.5199H262.121V18.2599ZM276.761 30.1999C276.761 27.6399 276.041 25.6399 274.601 24.1999C273.201 22.7199 271.461 21.9799 269.381 21.9799C267.341 21.9799 265.601 22.7199 264.161 24.1999C262.761 25.6799 262.061 27.6999 262.061 30.2599C262.061 32.8199 262.761 34.8399 264.161 36.3199C265.601 37.7999 267.341 38.5399 269.381 38.5399C271.421 38.5399 273.161 37.7999 274.601 36.3199C276.041 34.7999 276.761 32.7599 276.761 30.1999Z" fill="white"/>
<path d="M302.843 19.0999C304.043 17.2599 305.543 15.8199 307.343 14.7799C309.143 13.6999 311.143 13.1599 313.343 13.1599V24.0199H310.523C307.963 24.0199 306.043 24.5799 304.763 25.6999C303.483 26.7799 302.843 28.6999 302.843 31.4599V46.9999H292.583V13.5199H302.843V19.0999Z" fill="white"/>
<path d="M349.807 29.7199C349.807 30.6799 349.747 31.6799 349.627 32.7199H326.407C326.567 34.7999 327.227 36.3999 328.387 37.5199C329.587 38.5999 331.047 39.1399 332.767 39.1399C335.327 39.1399 337.107 38.0599 338.107 35.8999H349.027C348.467 38.0999 347.447 40.0799 345.967 41.8399C344.527 43.5999 342.707 44.9799 340.507 45.9799C338.307 46.9799 335.847 47.4799 333.127 47.4799C329.847 47.4799 326.927 46.7799 324.367 45.3799C321.807 43.9799 319.807 41.9799 318.367 39.3799C316.927 36.7799 316.207 33.7399 316.207 30.2599C316.207 26.7799 316.907 23.7399 318.307 21.1399C319.747 18.5399 321.747 16.5399 324.307 15.1399C326.867 13.7399 329.807 13.0399 333.127 13.0399C336.367 13.0399 339.247 13.7199 341.767 15.0799C344.287 16.4399 346.247 18.3799 347.647 20.8999C349.087 23.4199 349.807 26.3599 349.807 29.7199ZM339.307 27.0199C339.307 25.2599 338.707 23.8599 337.507 22.8199C336.307 21.7799 334.807 21.2599 333.007 21.2599C331.287 21.2599 329.827 21.7599 328.627 22.7599C327.467 23.7599 326.747 25.1799 326.467 27.0199H339.307Z" fill="white"/>
<path d="M368.84 47.4799C365.92 47.4799 363.32 46.9799 361.04 45.9799C358.76 44.9799 356.96 43.6199 355.64 41.8999C354.32 40.1399 353.58 38.1799 353.42 36.0199H363.56C363.68 37.1799 364.22 38.1199 365.18 38.8399C366.14 39.5599 367.32 39.9199 368.72 39.9199C370 39.9199 370.98 39.6799 371.66 39.1999C372.38 38.6799 372.74 38.0199 372.74 37.2199C372.74 36.2599 372.24 35.5599 371.24 35.1199C370.24 34.6399 368.62 34.1199 366.38 33.5599C363.98 32.9999 361.98 32.4199 360.38 31.8199C358.78 31.1799 357.4 30.1999 356.24 28.8799C355.08 27.5199 354.5 25.6999 354.5 23.4199C354.5 21.4999 355.02 19.7599 356.06 18.1999C357.14 16.5999 358.7 15.3399 360.74 14.4199C362.82 13.4999 365.28 13.0399 368.12 13.0399C372.32 13.0399 375.62 14.0799 378.02 16.1599C380.46 18.2399 381.86 20.9999 382.22 24.4399H372.74C372.58 23.2799 372.06 22.3599 371.18 21.6799C370.34 20.9999 369.22 20.6599 367.82 20.6599C366.62 20.6599 365.7 20.8999 365.06 21.3799C364.42 21.8199 364.1 22.4399 364.1 23.2399C364.1 24.1999 364.6 24.9199 365.6 25.3999C366.64 25.8799 368.24 26.3599 370.4 26.8399C372.88 27.4799 374.9 28.1199 376.46 28.7599C378.02 29.3599 379.38 30.3599 380.54 31.7599C381.74 33.1199 382.36 34.9599 382.4 37.2799C382.4 39.2399 381.84 40.9999 380.72 42.5599C379.64 44.0799 378.06 45.2799 375.98 46.1599C373.94 47.0399 371.56 47.4799 368.84 47.4799Z" fill="white"/>
<path d="M393.837 10.0399C392.037 10.0399 390.557 9.51994 389.397 8.47994C388.277 7.39994 387.717 6.07994 387.717 4.51994C387.717 2.91994 388.277 1.59994 389.397 0.559942C390.557 -0.520058 392.037 -1.06006 393.837 -1.06006C395.597 -1.06006 397.037 -0.520058 398.157 0.559942C399.317 1.59994 399.897 2.91994 399.897 4.51994C399.897 6.07994 399.317 7.39994 398.157 8.47994C397.037 9.51994 395.597 10.0399 393.837 10.0399ZM398.937 13.5199V46.9999H388.677V13.5199H398.937Z" fill="white"/>
<path d="M404.332 30.1999C404.332 26.7599 404.972 23.7399 406.252 21.1399C407.572 18.5399 409.352 16.5399 411.592 15.1399C413.832 13.7399 416.332 13.0399 419.092 13.0399C421.292 13.0399 423.292 13.4999 425.092 14.4199C426.932 15.3399 428.372 16.5799 429.412 18.1399V2.59994H439.672V46.9999H429.412V42.1999C428.452 43.7999 427.072 45.0799 425.272 46.0399C423.512 46.9999 421.452 47.4799 419.092 47.4799C416.332 47.4799 413.832 46.7799 411.592 45.3799C409.352 43.9399 407.572 41.9199 406.252 39.3199C404.972 36.6799 404.332 33.6399 404.332 30.1999ZM429.412 30.2599C429.412 27.6999 428.692 25.6799 427.252 24.1999C425.852 22.7199 424.132 21.9799 422.092 21.9799C420.052 21.9799 418.312 22.7199 416.872 24.1999C415.472 25.6399 414.772 27.6399 414.772 30.1999C414.772 32.7599 415.472 34.7999 416.872 36.3199C418.312 37.7999 420.052 38.5399 422.092 38.5399C424.132 38.5399 425.852 37.7999 427.252 36.3199C428.692 34.8399 429.412 32.8199 429.412 30.2599Z" fill="white"/>
<path d="M478.655 29.7199C478.655 30.6799 478.595 31.6799 478.475 32.7199H455.255C455.415 34.7999 456.075 36.3999 457.235 37.5199C458.435 38.5999 459.895 39.1399 461.615 39.1399C464.175 39.1399 465.955 38.0599 466.955 35.8999H477.875C477.315 38.0999 476.295 40.0799 474.815 41.8399C473.375 43.5999 471.555 44.9799 469.355 45.9799C467.155 46.9799 464.695 47.4799 461.975 47.4799C458.695 47.4799 455.775 46.7799 453.215 45.3799C450.655 43.9799 448.655 41.9799 447.215 39.3799C445.775 36.7799 445.055 33.7399 445.055 30.2599C445.055 26.7799 445.755 23.7399 447.155 21.1399C448.595 18.5399 450.595 16.5399 453.155 15.1399C455.715 13.7399 458.655 13.0399 461.975 13.0399C465.215 13.0399 468.095 13.7199 470.615 15.0799C473.135 16.4399 475.095 18.3799 476.495 20.8999C477.935 23.4199 478.655 26.3599 478.655 29.7199ZM468.155 27.0199C468.155 25.2599 467.555 23.8599 466.355 22.8199C465.155 21.7799 463.655 21.2599 461.855 21.2599C460.135 21.2599 458.675 21.7599 457.475 22.7599C456.315 23.7599 455.595 25.1799 455.315 27.0199H468.155Z" fill="white"/>
<path d="M504.468 13.1599C508.388 13.1599 511.508 14.4399 513.828 16.9999C516.188 19.5199 517.368 22.9999 517.368 27.4399V46.9999H507.168V28.8199C507.168 26.5799 506.588 24.8399 505.428 23.5999C504.268 22.3599 502.708 21.7399 500.748 21.7399C498.788 21.7399 497.228 22.3599 496.068 23.5999C494.908 24.8399 494.328 26.5799 494.328 28.8199V46.9999H484.068V13.5199H494.328V17.9599C495.368 16.4799 496.768 15.3199 498.528 14.4799C500.288 13.5999 502.268 13.1599 504.468 13.1599Z" fill="white"/>
<path d="M543.157 38.2999V46.9999H537.937C534.217 46.9999 531.317 46.0999 529.237 44.2999C527.157 42.4599 526.117 39.4799 526.117 35.3599V22.0399H522.037V13.5199H526.117V5.35994H536.377V13.5199H543.097V22.0399H536.377V35.4799C536.377 36.4799 536.617 37.1999 537.097 37.6399C537.577 38.0799 538.377 38.2999 539.497 38.2999H543.157Z" fill="white"/>
</g>
</svg>
