<svg width="26" height="26" viewBox="0 0 26 26" fill="none" xmlns="http://www.w3.org/2000/svg">
<path fill-rule="evenodd" clip-rule="evenodd" d="M13.8837 0.866227C13.6493 0.631888 13.3314 0.500244 13 0.500244C12.6685 0.500244 12.3506 0.631888 12.1162 0.866227L3.36623 9.61623L0.866229 12.1162C0.746842 12.2315 0.651614 12.3695 0.586103 12.522C0.520591 12.6745 0.486109 12.8385 0.484666 13.0045C0.483224 13.1705 0.514851 13.335 0.577702 13.4887C0.640553 13.6423 0.73337 13.7819 0.850736 13.8992C0.968102 14.0166 1.10767 14.1094 1.26129 14.1723C1.41491 14.2351 1.57951 14.2667 1.74548 14.2653C1.91146 14.2638 2.07548 14.2294 2.22799 14.1639C2.38049 14.0983 2.51842 14.0031 2.63373 13.8837L2.99998 13.5175V21.75C2.99998 22.7445 3.39507 23.6984 4.09833 24.4016C4.80159 25.1049 5.75542 25.5 6.74998 25.5H19.25C20.2445 25.5 21.1984 25.1049 21.9016 24.4016C22.6049 23.6984 23 22.7445 23 21.75V13.5175L23.3662 13.8837C23.602 14.1114 23.9177 14.2374 24.2455 14.2346C24.5732 14.2317 24.8867 14.1003 25.1185 13.8685C25.3503 13.6367 25.4817 13.3232 25.4846 12.9955C25.4874 12.6677 25.3614 12.352 25.1337 12.1162L13.8837 0.866227Z" fill="#001462"/>
</svg>
