<svg width="30" height="30" viewBox="0 0 30 30" fill="none" xmlns="http://www.w3.org/2000/svg">
<path d="M24.9997 12.5002C24.9997 12.1687 24.868 11.8508 24.6336 11.6163C24.3992 11.3819 24.0813 11.2502 23.7497 11.2502C23.4182 11.2502 23.1003 11.3819 22.8659 11.6163C22.6314 11.8508 22.4997 12.1687 22.4997 12.5002H24.9997ZM7.49973 12.5002C7.49973 12.1687 7.36804 11.8508 7.13362 11.6163C6.8992 11.3819 6.58126 11.2502 6.24974 11.2502C5.91821 11.2502 5.60027 11.3819 5.36585 11.6163C5.13143 11.8508 4.99974 12.1687 4.99974 12.5002H7.49973ZM25.366 15.884C25.6017 16.1117 25.9175 16.2377 26.2452 16.2348C26.573 16.232 26.8865 16.1005 27.1183 15.8687C27.35 15.637 27.4815 15.3235 27.4843 14.9957C27.4872 14.668 27.3612 14.3522 27.1335 14.1165L25.366 15.884ZM14.9997 3.75022L15.8835 2.86647C15.6491 2.63213 15.3312 2.50049 14.9997 2.50049C14.6683 2.50049 14.3504 2.63213 14.116 2.86647L14.9997 3.75022ZM2.86599 14.1165C2.7466 14.2318 2.65137 14.3697 2.58586 14.5222C2.52035 14.6747 2.48586 14.8387 2.48442 15.0047C2.48298 15.1707 2.51461 15.3353 2.57746 15.4889C2.64031 15.6425 2.73313 15.7821 2.85049 15.8995C2.96786 16.0168 3.10742 16.1096 3.26104 16.1725C3.41466 16.2353 3.57926 16.267 3.74524 16.2655C3.91121 16.2641 4.07524 16.2296 4.22774 16.1641C4.38025 16.0986 4.51818 16.0034 4.63349 15.884L2.86599 14.1165ZM8.74973 27.5002H21.2497V25.0002H8.74973V27.5002ZM24.9997 23.7502V12.5002H22.4997V23.7502H24.9997ZM7.49973 23.7502V12.5002H4.99974V23.7502H7.49973ZM27.1335 14.1165L15.8835 2.86647L14.116 4.63397L25.366 15.884L27.1335 14.1165ZM14.116 2.86647L2.86599 14.1165L4.63349 15.884L15.8835 4.63397L14.116 2.86647ZM21.2497 27.5002C22.2443 27.5002 23.1981 27.1051 23.9014 26.4019C24.6046 25.6986 24.9997 24.7448 24.9997 23.7502H22.4997C22.4997 24.0817 22.368 24.3997 22.1336 24.6341C21.8992 24.8685 21.5813 25.0002 21.2497 25.0002V27.5002ZM8.74973 25.0002C8.41821 25.0002 8.10027 24.8685 7.86585 24.6341C7.63143 24.3997 7.49973 24.0817 7.49973 23.7502H4.99974C4.99974 24.7448 5.39482 25.6986 6.09808 26.4019C6.80135 27.1051 7.75517 27.5002 8.74973 27.5002V25.0002Z" fill="#001462"/>
</svg>
