<svg width="175" height="107" viewBox="0 0 175 107" fill="none" xmlns="http://www.w3.org/2000/svg">
<rect width="175" height="107" rx="20" fill="#D65309"/>
<mask id="mask0_1044_11" style="mask-type:alpha" maskUnits="userSpaceOnUse" x="0" y="0" width="175" height="107">
<rect width="175" height="107" rx="20" fill="#D65309"/>
</mask>
<g mask="url(#mask0_1044_11)">
<mask id="mask1_1044_11" style="mask-type:alpha" maskUnits="userSpaceOnUse" x="19" y="-6" width="124" height="113">
<path opacity="0.2" d="M19.9927 31V4.81818H27.2541V31H19.9927ZM23.6404 1.44318C22.5609 1.44318 21.6347 1.08523 20.862 0.369316C20.1007 -0.357956 19.72 -1.22727 19.72 -2.23864C19.72 -3.23864 20.1007 -4.09659 20.862 -4.8125C21.6347 -5.53977 22.5609 -5.90341 23.6404 -5.90341C24.72 -5.90341 25.6404 -5.53977 26.4018 -4.8125C27.1745 -4.09659 27.5609 -3.23864 27.5609 -2.23864C27.5609 -1.22727 27.1745 -0.357956 26.4018 0.369316C25.6404 1.08523 24.72 1.44318 23.6404 1.44318ZM33.2072 -3.90909H42.3095L51.9231 19.5455H52.3322L61.9458 -3.90909H71.0481V31H63.889V8.27841H63.5992L54.5651 30.8295H49.6901L40.6561 8.19318H40.3663V31H33.2072V-3.90909ZM77.1291 31V-3.90909H91.1063C93.6745 -3.90909 95.8166 -3.52841 97.5325 -2.76705C99.2484 -2.00568 100.538 -0.948864 101.402 0.403408C102.265 1.74432 102.697 3.28977 102.697 5.03977C102.697 6.40341 102.425 7.60227 101.879 8.63636C101.334 9.65909 100.584 10.5 99.6291 11.1591C98.6859 11.8068 97.6063 12.267 96.3904 12.5398V12.8807C97.72 12.9375 98.9643 13.3125 100.123 14.0057C101.294 14.6989 102.243 15.6705 102.97 16.9205C103.697 18.1591 104.061 19.6364 104.061 21.3523C104.061 23.2045 103.601 24.858 102.68 26.3125C101.771 27.7557 100.425 28.8977 98.6404 29.7386C96.8563 30.5795 94.6575 31 92.0438 31H77.1291ZM84.5097 24.9659H90.5268C92.5836 24.9659 94.0836 24.5739 95.0268 23.7898C95.97 22.9943 96.4416 21.9375 96.4416 20.6193C96.4416 19.6534 96.2086 18.8011 95.7427 18.0625C95.2768 17.3239 94.612 16.7443 93.7484 16.3239C92.8961 15.9034 91.8791 15.6932 90.6972 15.6932H84.5097V24.9659ZM84.5097 10.6989H89.9813C90.9927 10.6989 91.8904 10.5227 92.6745 10.1705C93.47 9.80682 94.095 9.29545 94.5495 8.63636C95.0154 7.97727 95.2484 7.1875 95.2484 6.26705C95.2484 5.00568 94.7995 3.98864 93.9018 3.21591C93.0154 2.44318 91.7541 2.05682 90.1177 2.05682H84.5097V10.6989ZM114.88 31H106.971L119.023 -3.90909H128.534L140.568 31H132.659L123.915 4.06818H123.642L114.88 31ZM114.386 17.2784H133.068V23.0398H114.386V17.2784Z" fill="white"/>
<path opacity="0.2" d="M22.0039 72V45.8182H29.2653V72H22.0039ZM25.6517 42.4432C24.5721 42.4432 23.646 42.0852 22.8732 41.3693C22.1119 40.642 21.7312 39.7727 21.7312 38.7614C21.7312 37.7614 22.1119 36.9034 22.8732 36.1875C23.646 35.4602 24.5721 35.0966 25.6517 35.0966C26.7312 35.0966 27.6517 35.4602 28.413 36.1875C29.1857 36.9034 29.5721 37.7614 29.5721 38.7614C29.5721 39.7727 29.1857 40.642 28.413 41.3693C27.6517 42.0852 26.7312 42.4432 25.6517 42.4432ZM35.2184 37.0909H44.3207L53.9343 60.5455H54.3434L63.9571 37.0909H73.0593V72H65.9002V49.2784H65.6105L56.5764 71.8295H51.7014L42.6673 49.1932H42.3775V72H35.2184V37.0909ZM79.1403 72V37.0909H93.1176C95.6857 37.0909 97.8278 37.4716 99.5437 38.233C101.26 38.9943 102.549 40.0511 103.413 41.4034C104.277 42.7443 104.708 44.2898 104.708 46.0398C104.708 47.4034 104.436 48.6023 103.89 49.6364C103.345 50.6591 102.595 51.5 101.64 52.1591C100.697 52.8068 99.6176 53.267 98.4017 53.5398V53.8807C99.7312 53.9375 100.976 54.3125 102.135 55.0057C103.305 55.6989 104.254 56.6705 104.981 57.9205C105.708 59.1591 106.072 60.6364 106.072 62.3523C106.072 64.2045 105.612 65.858 104.691 67.3125C103.782 68.7557 102.436 69.8977 100.652 70.7386C98.8676 71.5795 96.6687 72 94.0551 72H79.1403ZM86.521 65.9659H92.538C94.5948 65.9659 96.0948 65.5739 97.038 64.7898C97.9812 63.9943 98.4528 62.9375 98.4528 61.6193C98.4528 60.6534 98.2198 59.8011 97.7539 59.0625C97.288 58.3239 96.6232 57.7443 95.7596 57.3239C94.9073 56.9034 93.8903 56.6932 92.7085 56.6932H86.521V65.9659ZM86.521 51.6989H91.9926C93.0039 51.6989 93.9017 51.5227 94.6857 51.1705C95.4812 50.8068 96.1062 50.2955 96.5607 49.6364C97.0267 48.9773 97.2596 48.1875 97.2596 47.267C97.2596 46.0057 96.8107 44.9886 95.913 44.2159C95.0267 43.4432 93.7653 43.0568 92.1289 43.0568H86.521V51.6989ZM116.892 72H108.983L121.034 37.0909H130.545L142.579 72H134.67L125.926 45.0682H125.653L116.892 72ZM116.397 58.2784H135.079V64.0398H116.397V58.2784Z" fill="white"/>
<path d="M20.9983 107V80.8182H28.2597V107H20.9983ZM24.646 77.4432C23.5665 77.4432 22.6404 77.0852 21.8676 76.3693C21.1063 75.642 20.7256 74.7727 20.7256 73.7614C20.7256 72.7614 21.1063 71.9034 21.8676 71.1875C22.6404 70.4602 23.5665 70.0966 24.646 70.0966C25.7256 70.0966 26.646 70.4602 27.4074 71.1875C28.1801 71.9034 28.5665 72.7614 28.5665 73.7614C28.5665 74.7727 28.1801 75.642 27.4074 76.3693C26.646 77.0852 25.7256 77.4432 24.646 77.4432ZM34.2128 72.0909H43.3151L52.9287 95.5455H53.3378L62.9514 72.0909H72.0537V107H64.8946V84.2784H64.6048L55.5708 106.83H50.6958L41.6617 84.1932H41.3719V107H34.2128V72.0909ZM78.1347 107V72.0909H92.1119C94.6801 72.0909 96.8222 72.4716 98.5381 73.233C100.254 73.9943 101.544 75.0511 102.407 76.4034C103.271 77.7443 103.703 79.2898 103.703 81.0398C103.703 82.4034 103.43 83.6023 102.885 84.6364C102.339 85.6591 101.589 86.5 100.635 87.1591C99.6915 87.8068 98.612 88.267 97.396 88.5398V88.8807C98.7256 88.9375 99.9699 89.3125 101.129 90.0057C102.299 90.6989 103.248 91.6705 103.976 92.9205C104.703 94.1591 105.066 95.6364 105.066 97.3523C105.066 99.2045 104.606 100.858 103.686 102.312C102.777 103.756 101.43 104.898 99.646 105.739C97.8619 106.58 95.6631 107 93.0494 107H78.1347ZM85.5154 100.966H91.5324C93.5892 100.966 95.0892 100.574 96.0324 99.7898C96.9756 98.9943 97.4472 97.9375 97.4472 96.6193C97.4472 95.6534 97.2142 94.8011 96.7483 94.0625C96.2824 93.3239 95.6176 92.7443 94.754 92.3239C93.9017 91.9034 92.8847 91.6932 91.7029 91.6932H85.5154V100.966ZM85.5154 86.6989H90.9869C91.9983 86.6989 92.896 86.5227 93.6801 86.1705C94.4756 85.8068 95.1006 85.2955 95.5551 84.6364C96.021 83.9773 96.254 83.1875 96.254 82.267C96.254 81.0057 95.8051 79.9886 94.9074 79.2159C94.021 78.4432 92.7597 78.0568 91.1233 78.0568H85.5154V86.6989ZM115.886 107H107.977L120.028 72.0909H129.54L141.574 107H133.665L124.92 80.0682H124.647L115.886 107ZM115.392 93.2784H134.074V99.0398H115.392V93.2784Z" fill="white"/>
</mask>
<g mask="url(#mask1_1044_11)">
<rect x="-1.00562" width="181.006" height="107" rx="20" fill="#D9D9D9"/>
</g>
</g>
</svg>
