<svg width="61" height="39" viewBox="0 0 61 39" fill="none" xmlns="http://www.w3.org/2000/svg">
<g clip-path="url(#clip0_244_541)">
<path d="M54 30.8264C54 34.6989 50.7249 37.8522 46.7029 37.8522H7V10.0258C7 6.15336 10.2751 3 14.2971 3H54V30.8264Z" fill="white"/>
<path d="M41.072 23.6899H44.0885C44.1748 23.6899 44.3758 23.6624 44.4621 23.6624C45.0367 23.5517 45.5251 23.0538 45.5251 22.3622C45.5251 21.6985 45.0367 21.2005 44.4621 21.0623C44.3758 21.0345 44.2036 21.0345 44.0887 21.0345H41.0722L41.072 23.6899Z" fill="url(#paint0_linear_244_541)"/>
<path d="M43.744 5.35101C40.8711 5.35101 38.5152 7.59172 38.5152 10.3854V15.6133H45.8986C46.071 15.6133 46.272 15.6133 46.4156 15.6408C48.0819 15.7239 49.3173 16.5537 49.3173 17.9918C49.3173 19.126 48.4842 20.0941 46.9328 20.2879V20.343C48.6277 20.4537 49.9206 21.3665 49.9206 22.7771C49.9206 24.2986 48.4842 25.2943 46.588 25.2943H38.4866V35.5288H46.1571C49.03 35.5288 51.3859 33.2883 51.3859 30.4944V5.35101H43.744Z" fill="url(#paint1_linear_244_541)"/>
<path d="M45.1515 18.324C45.1515 17.66 44.6631 17.2174 44.0885 17.1343C44.0312 17.1343 43.8874 17.1068 43.8013 17.1068H41.072V19.5408H43.8013C43.8876 19.5408 44.0598 19.5408 44.0887 19.5133C44.6633 19.4302 45.1517 18.9877 45.1517 18.3238" fill="url(#paint2_linear_244_541)"/>
<path d="M14.8428 5.35101C11.97 5.35101 9.61409 7.59172 9.61409 10.3854V22.8051C11.0794 23.4964 12.6019 23.939 14.1246 23.939C15.9345 23.939 16.9112 22.888 16.9112 21.4496V15.5855H21.3929V21.4218C21.3929 23.69 19.9278 25.5434 14.9578 25.5434C11.9413 25.5434 9.58545 24.907 9.58545 24.907V35.501H17.256C20.1289 35.501 22.4847 33.2605 22.4847 30.4667V5.35137L14.8428 5.35101Z" fill="url(#paint3_linear_244_541)"/>
<path d="M29.2934 5.35101C26.4206 5.35101 24.0647 7.59172 24.0647 10.3854V16.9685C25.3864 15.8897 27.6846 15.1982 31.3906 15.3642C33.3729 15.4473 35.4987 15.9728 35.4987 15.9728V18.1027C34.4357 17.5772 33.1719 17.1068 31.5342 16.9961C28.7188 16.8026 27.0239 18.1303 27.0239 20.4537C27.0239 22.8049 28.7188 24.1326 31.5342 23.9113C33.1719 23.8006 34.4359 23.3028 35.4987 22.8049V24.9348C35.4987 24.9348 33.4015 25.4603 31.3906 25.5434C27.6846 25.7092 25.3864 25.0177 24.0649 23.939V35.5564H31.7354C34.6083 35.5564 36.964 33.3158 36.964 30.522V5.35137L29.2934 5.35101Z" fill="url(#paint4_linear_244_541)"/>
</g>
<rect opacity="0.3" x="0.435547" y="0.25" width="60.2285" height="37.6722" rx="5.75" stroke="#19213E" stroke-width="0.5"/>
<defs>
<linearGradient id="paint0_linear_244_541" x1="-215.1" y1="154.134" x2="1075.92" y2="154.134" gradientUnits="userSpaceOnUse">
<stop stop-color="#007940"/>
<stop offset="0.2285" stop-color="#00873F"/>
<stop offset="0.7433" stop-color="#40A737"/>
<stop offset="1" stop-color="#5CB531"/>
</linearGradient>
<linearGradient id="paint1_linear_244_541" x1="40.8471" y1="1513.03" x2="1331.94" y2="1513.03" gradientUnits="userSpaceOnUse">
<stop stop-color="#007940"/>
<stop offset="0.2285" stop-color="#00873F"/>
<stop offset="0.7433" stop-color="#40A737"/>
<stop offset="1" stop-color="#5CB531"/>
</linearGradient>
<linearGradient id="paint2_linear_244_541" x1="-215.137" y1="138.466" x2="1075.96" y2="138.466" gradientUnits="userSpaceOnUse">
<stop stop-color="#007940"/>
<stop offset="0.2285" stop-color="#00873F"/>
<stop offset="0.7433" stop-color="#40A737"/>
<stop offset="1" stop-color="#5CB531"/>
</linearGradient>
<linearGradient id="paint3_linear_244_541" x1="11.8557" y1="1513.03" x2="1322.84" y2="1513.03" gradientUnits="userSpaceOnUse">
<stop stop-color="#1F286F"/>
<stop offset="0.4751" stop-color="#004E94"/>
<stop offset="0.8261" stop-color="#0066B1"/>
<stop offset="1" stop-color="#006FBC"/>
</linearGradient>
<linearGradient id="paint4_linear_244_541" x1="16.6347" y1="1513.02" x2="1289.91" y2="1513.02" gradientUnits="userSpaceOnUse">
<stop stop-color="#6C2C2F"/>
<stop offset="0.1735" stop-color="#882730"/>
<stop offset="0.5731" stop-color="#BE1833"/>
<stop offset="0.8585" stop-color="#DC0436"/>
<stop offset="1" stop-color="#E60039"/>
</linearGradient>
<clipPath id="clip0_244_541">
<rect width="47" height="35" fill="white" transform="translate(7 3)"/>
</clipPath>
</defs>
</svg>
