<svg width="428" height="855" viewBox="0 0 428 855" fill="none" xmlns="http://www.w3.org/2000/svg">
<g opacity="0.8">
<mask id="mask0_298_6" style="mask-type:alpha" maskUnits="userSpaceOnUse" x="-11" y="-236" width="530" height="1091">
<rect x="-11" y="-236" width="530" height="1091" fill="#001462"/>
</mask>
<g mask="url(#mask0_298_6)">
<path opacity="0.3" d="M-10.3304 522.976C-10.3304 522.976 -20.8149 597.777 212.734 688.794C446.282 779.811 435.798 854.612 435.798 854.612" stroke="white"/>
<path opacity="0.3" d="M-10.2263 557.272C-10.2263 557.272 -32.6511 633.952 212.838 723.09C458.326 812.227 383.377 854.414 383.377 854.414" stroke="white"/>
<path opacity="0.3" d="M-10.9992 560.864C-10.9992 560.864 -24.3828 666.331 196.004 739.572C416.391 812.813 364.64 853.242 364.64 853.242" stroke="white"/>
<path opacity="0.3" d="M-10.2647 588.752C-10.2647 588.752 -33.4634 692.461 156.744 741.33C346.952 790.198 347.687 855.586 347.687 855.586" stroke="white"/>
<path opacity="0.3" d="M-8.32324 583.715C-8.32324 583.715 16.4811 758.071 170.038 790.13C323.596 822.188 342.333 855 342.333 855" stroke="white"/>
</g>
</g>
</svg>
