<svg width="18" height="17" viewBox="0 0 18 17" fill="none" xmlns="http://www.w3.org/2000/svg">
<path d="M15.5 8.5H7.1875M13.75 11.125L16.375 8.5L13.75 5.875M9.375 4.125V3.25C9.375 2.78587 9.19063 2.34075 8.86244 2.01256C8.53425 1.68437 8.08913 1.5 7.625 1.5H3.25C2.78587 1.5 2.34075 1.68437 2.01256 2.01256C1.68437 2.34075 1.5 2.78587 1.5 3.25V13.75C1.5 14.2141 1.68437 14.6592 2.01256 14.9874C2.34075 15.3156 2.78587 15.5 3.25 15.5H7.625C8.08913 15.5 8.53425 15.3156 8.86244 14.9874C9.19063 14.6592 9.375 14.2141 9.375 13.75V12.875" stroke="#231C35" stroke-width="2" stroke-linecap="round" stroke-linejoin="round"/>
</svg>
