<svg width="36" height="28" viewBox="0 0 36 28" fill="none" xmlns="http://www.w3.org/2000/svg">
<g clip-path="url(#clip0_329_78)">
<path d="M6.54472 27.8609V26.0077C6.54472 25.2971 6.11244 24.8339 5.37149 24.8339C5.00108 24.8339 4.59974 24.9575 4.32186 25.3591C4.10586 25.0193 3.79719 24.8339 3.33411 24.8339C3.0253 24.8339 2.71677 24.9265 2.46969 25.2663V24.8957H1.82141V27.8609H2.46969V26.2238C2.46969 25.6989 2.74757 25.4516 3.17985 25.4516C3.61185 25.4516 3.82813 25.7297 3.82813 26.2238V27.8609H4.47641V26.2238C4.47641 25.6989 4.78494 25.4516 5.18629 25.4516C5.61857 25.4516 5.83457 25.7297 5.83457 26.2238V27.8609H6.54472ZM16.1453 24.8957H15.0958V24H14.4476V24.8957H13.861V25.4824H14.4474V26.8416C14.4474 27.5212 14.7253 27.9227 15.4663 27.9227C15.7441 27.9227 16.0527 27.8301 16.2689 27.7066L16.0836 27.1505C15.8984 27.274 15.6824 27.305 15.528 27.305C15.2193 27.305 15.0958 27.1197 15.0958 26.8107V25.4824H16.1453V24.8957ZM21.6404 24.8338C21.27 24.8338 21.0231 25.0193 20.8686 25.2663V24.8957H20.2204V27.8609H20.8686V26.193C20.8686 25.6989 21.0846 25.4208 21.486 25.4208C21.6095 25.4208 21.7639 25.4518 21.8873 25.4826L22.0725 24.8649C21.9491 24.8339 21.7639 24.8339 21.6404 24.8339M13.3362 25.1429C13.0274 24.9267 12.5953 24.8341 12.1322 24.8341C11.3914 24.8341 10.8975 25.2047 10.8975 25.7916C10.8975 26.2859 11.2679 26.5638 11.9162 26.6565L12.2248 26.6874C12.5645 26.7491 12.7497 26.8418 12.7497 26.9963C12.7497 27.2124 12.5027 27.3669 12.0704 27.3669C11.6383 27.3669 11.2987 27.2124 11.0826 27.058L10.7739 27.5522C11.1135 27.7993 11.5766 27.9228 12.0395 27.9228C12.9039 27.9228 13.3979 27.5214 13.3979 26.9653C13.3979 26.4402 12.9966 26.1622 12.3791 26.0696L12.0704 26.0387C11.7926 26.0077 11.5766 25.9461 11.5766 25.7608C11.5766 25.5445 11.7926 25.421 12.1322 25.421C12.5027 25.421 12.8731 25.5753 13.0583 25.668L13.3362 25.1429ZM30.5621 24.8341C30.1915 24.8341 29.9446 25.0194 29.7902 25.2665V24.8959H29.1419V27.861H29.7902V26.1931C29.7902 25.699 30.0063 25.421 30.4075 25.421C30.5311 25.421 30.6855 25.4519 30.809 25.4827L30.9942 24.865C30.8707 24.8341 30.6855 24.8341 30.5621 24.8341ZM22.2887 26.3785C22.2887 27.2742 22.906 27.9228 23.8631 27.9228C24.2953 27.9228 24.6039 27.8302 24.9126 27.5832L24.6039 27.058C24.357 27.2434 24.1101 27.3359 23.8322 27.3359C23.3074 27.3359 22.937 26.9653 22.937 26.3785C22.937 25.8225 23.3074 25.4518 23.8322 25.421C24.1101 25.421 24.357 25.5135 24.6039 25.699L24.9126 25.1739C24.6039 24.9267 24.2953 24.8341 23.8631 24.8341C22.906 24.8341 22.2887 25.4827 22.2887 26.3785ZM28.2776 26.3785V24.8959H27.6293V25.2665C27.4132 24.9886 27.1045 24.8341 26.7032 24.8341C25.8697 24.8341 25.2214 25.4827 25.2214 26.3785C25.2214 27.2742 25.8697 27.9228 26.7032 27.9228C27.1353 27.9228 27.4441 27.7685 27.6293 27.4904V27.861H28.2776V26.3785ZM25.9005 26.3785C25.9005 25.8533 26.2401 25.421 26.7957 25.421C27.3205 25.421 27.6911 25.8225 27.6911 26.3785C27.6911 26.9036 27.3205 27.3359 26.7957 27.3359C26.2401 27.305 25.9005 26.9036 25.9005 26.3785ZM18.1521 24.8341C17.2876 24.8341 16.6701 25.4518 16.6701 26.3785C16.6701 27.3051 17.2875 27.9228 18.1828 27.9228C18.615 27.9228 19.0473 27.7993 19.3869 27.5214L19.0781 27.058C18.8311 27.2434 18.5225 27.3669 18.2138 27.3669C17.8124 27.3669 17.4111 27.1816 17.3184 26.6563H19.5103V26.4094C19.5413 25.4518 18.9857 24.8341 18.1521 24.8341ZM18.1519 25.39C18.5531 25.39 18.8311 25.6372 18.8927 26.1006H17.3492C17.411 25.699 17.6888 25.39 18.1519 25.39ZM34.2355 26.3785V23.7221H33.5872V25.2665C33.3711 24.9886 33.0624 24.8341 32.661 24.8341C31.8276 24.8341 31.1793 25.4827 31.1793 26.3785C31.1793 27.2742 31.8276 27.9228 32.661 27.9228C33.0933 27.9228 33.402 27.7685 33.5872 27.4904V27.861H34.2355V26.3785ZM31.8585 26.3785C31.8585 25.8533 32.198 25.421 32.7537 25.421C33.2785 25.421 33.6489 25.8225 33.6489 26.3785C33.6489 26.9036 33.2785 27.3359 32.7537 27.3359C32.198 27.305 31.8585 26.9036 31.8585 26.3785ZM10.1872 26.3785V24.8959H9.53891V25.2665C9.32277 24.9886 9.0141 24.8341 8.61275 24.8341C7.77927 24.8341 7.13099 25.4827 7.13099 26.3785C7.13099 27.2742 7.77927 27.9228 8.61275 27.9228C9.04504 27.9228 9.35371 27.7685 9.53891 27.4904V27.861H10.1872V26.3785ZM7.77927 26.3785C7.77927 25.8533 8.11888 25.421 8.67449 25.421C9.1993 25.421 9.56985 25.8225 9.56985 26.3785C9.56985 26.9036 9.1993 27.3359 8.67449 27.3359C8.11888 27.305 7.77927 26.9036 7.77927 26.3785Z" fill="#19213E"/>
<path d="M13.12 2.37836H22.8442V19.8609H13.12V2.37836Z" fill="#FF5F00"/>
<path d="M13.7375 11.1197C13.7375 7.56766 15.4045 4.41703 17.9667 2.37837C16.0837 0.89578 13.7067 6.10352e-05 11.1136 6.10352e-05C4.97011 6.10352e-05 0 4.97295 0 11.1197C0 17.2664 4.97011 22.2394 11.1135 22.2394C13.7066 22.2394 16.0836 21.3437 17.9667 19.8609C15.4045 17.8532 13.7375 14.6718 13.7375 11.1197Z" fill="#EB001B"/>
<path d="M35.9642 11.1197C35.9642 17.2664 30.9941 22.2394 24.8508 22.2394C22.2577 22.2394 19.8807 21.3437 17.9976 19.8609C20.5907 17.8224 22.2269 14.6718 22.2269 11.1197C22.2269 7.56766 20.5597 4.41703 17.9976 2.37837C19.8805 0.89578 22.2577 6.10352e-05 24.8508 6.10352e-05C30.9941 6.10352e-05 35.9642 5.0039 35.9642 11.1197Z" fill="#F79E1B"/>
</g>
<defs>
<clipPath id="clip0_329_78">
<rect width="36" height="28" fill="white"/>
</clipPath>
</defs>
</svg>
