<svg width="47" height="35" viewBox="0 0 47 35" fill="none" xmlns="http://www.w3.org/2000/svg">
<g clip-path="url(#clip0_329_85)">
<path d="M47 27.8265C47 31.6989 43.7249 34.8523 39.7029 34.8523H0V7.02587C0 3.15342 3.27513 6.10352e-05 7.29712 6.10352e-05H47V27.8265Z" fill="white"/>
<path d="M34.072 20.69H37.0885C37.1748 20.69 37.3758 20.6624 37.4621 20.6624C38.0367 20.5518 38.5251 20.0538 38.5251 19.3623C38.5251 18.6985 38.0367 18.2006 37.4621 18.0624C37.3758 18.0346 37.2036 18.0346 37.0887 18.0346H34.0722L34.072 20.69Z" fill="url(#paint0_linear_329_85)"/>
<path d="M36.744 2.35107C33.8711 2.35107 31.5152 4.59178 31.5152 7.38542V12.6133H38.8986C39.071 12.6133 39.272 12.6133 39.4156 12.6409C41.0819 12.724 42.3173 13.5537 42.3173 14.9919C42.3173 16.126 41.4842 17.0942 39.9328 17.2879V17.3431C41.6277 17.4538 42.9206 18.3666 42.9206 19.7772C42.9206 21.2986 41.4842 22.2944 39.588 22.2944H31.4866V32.5289H39.1571C42.03 32.5289 44.3859 30.2883 44.3859 27.4945V2.35107H36.744Z" fill="url(#paint1_linear_329_85)"/>
<path d="M38.1515 15.324C38.1515 14.6601 37.6631 14.2175 37.0885 14.1344C37.0312 14.1344 36.8874 14.1068 36.8013 14.1068H34.072V16.5409H36.8013C36.8876 16.5409 37.0598 16.5409 37.0887 16.5133C37.6633 16.4302 38.1517 15.9878 38.1517 15.3239" fill="url(#paint2_linear_329_85)"/>
<path d="M7.84296 2.35107C4.97009 2.35107 2.61421 4.59178 2.61421 7.38542V19.8051C4.07947 20.4965 5.60202 20.9391 7.12474 20.9391C8.93461 20.9391 9.91133 19.888 9.91133 18.4497V12.5856H14.393V18.4219C14.393 20.69 12.928 22.5434 7.95789 22.5434C4.94145 22.5434 2.58557 21.9071 2.58557 21.9071V32.5011H10.2561C13.129 32.5011 15.4849 30.2606 15.4849 27.4668V2.35143L7.84296 2.35107Z" fill="url(#paint3_linear_329_85)"/>
<path d="M22.2934 2.35107C19.4206 2.35107 17.0647 4.59178 17.0647 7.38542V13.9686C18.3864 12.8898 20.6846 12.1983 24.3906 12.3643C26.3729 12.4473 28.4987 12.9729 28.4987 12.9729V15.1027C27.4357 14.5772 26.1719 14.1068 24.5342 13.9962C21.7188 13.8026 20.0239 15.1303 20.0239 17.4538C20.0239 19.8049 21.7188 21.1326 24.5342 20.9113C26.1719 20.8007 27.4359 20.3029 28.4987 19.8049V21.9348C28.4987 21.9348 26.4015 22.4603 24.3906 22.5434C20.6846 22.7092 18.3864 22.0177 17.0649 20.9391V32.5564H24.7354C27.6083 32.5564 29.964 30.3159 29.964 27.5221V2.35143L22.2934 2.35107Z" fill="url(#paint4_linear_329_85)"/>
</g>
<defs>
<linearGradient id="paint0_linear_329_85" x1="-222.1" y1="151.134" x2="1068.92" y2="151.134" gradientUnits="userSpaceOnUse">
<stop stop-color="#007940"/>
<stop offset="0.2285" stop-color="#00873F"/>
<stop offset="0.7433" stop-color="#40A737"/>
<stop offset="1" stop-color="#5CB531"/>
</linearGradient>
<linearGradient id="paint1_linear_329_85" x1="33.8471" y1="1510.03" x2="1324.94" y2="1510.03" gradientUnits="userSpaceOnUse">
<stop stop-color="#007940"/>
<stop offset="0.2285" stop-color="#00873F"/>
<stop offset="0.7433" stop-color="#40A737"/>
<stop offset="1" stop-color="#5CB531"/>
</linearGradient>
<linearGradient id="paint2_linear_329_85" x1="-222.137" y1="135.466" x2="1068.96" y2="135.466" gradientUnits="userSpaceOnUse">
<stop stop-color="#007940"/>
<stop offset="0.2285" stop-color="#00873F"/>
<stop offset="0.7433" stop-color="#40A737"/>
<stop offset="1" stop-color="#5CB531"/>
</linearGradient>
<linearGradient id="paint3_linear_329_85" x1="4.85585" y1="1510.03" x2="1315.84" y2="1510.03" gradientUnits="userSpaceOnUse">
<stop stop-color="#1F286F"/>
<stop offset="0.4751" stop-color="#004E94"/>
<stop offset="0.8261" stop-color="#0066B1"/>
<stop offset="1" stop-color="#006FBC"/>
</linearGradient>
<linearGradient id="paint4_linear_329_85" x1="9.6347" y1="1510.02" x2="1282.91" y2="1510.02" gradientUnits="userSpaceOnUse">
<stop stop-color="#6C2C2F"/>
<stop offset="0.1735" stop-color="#882730"/>
<stop offset="0.5731" stop-color="#BE1833"/>
<stop offset="0.8585" stop-color="#DC0436"/>
<stop offset="1" stop-color="#E60039"/>
</linearGradient>
<clipPath id="clip0_329_85">
<rect width="47" height="35" fill="white"/>
</clipPath>
</defs>
</svg>
