<svg width="25" height="27" viewBox="0 0 25 27" fill="none" xmlns="http://www.w3.org/2000/svg">
<path d="M12.5 0.208496L24.7708 6.85433V20.146L12.5 26.7918L0.229126 20.146V6.85433L12.5 0.208496ZM12.5 17.1252C13.5277 17.1252 14.5133 16.7432 15.24 16.0634C15.9667 15.3836 16.375 14.4616 16.375 13.5002C16.375 12.5388 15.9667 11.6167 15.24 10.9369C14.5133 10.2571 13.5277 9.87516 12.5 9.87516C11.4722 9.87516 10.4866 10.2571 9.75992 10.9369C9.03322 11.6167 8.62496 12.5388 8.62496 13.5002C8.62496 14.4616 9.03322 15.3836 9.75992 16.0634C10.4866 16.7432 11.4722 17.1252 12.5 17.1252Z" fill="#19213E"/>
</svg>
