<svg width="61" height="39" viewBox="0 0 61 39" fill="none" xmlns="http://www.w3.org/2000/svg">
<path d="M18.3448 20.9911C18.3356 21.0551 18.3415 21.1204 18.362 21.1817C18.3824 21.2431 18.4169 21.2989 18.4626 21.3446C18.5084 21.3903 18.5641 21.4248 18.6255 21.4452C18.6868 21.4657 18.7521 21.4716 18.8161 21.4625C19.3658 21.4625 19.68 20.9911 19.7588 20.2843H19.4446C18.7388 20.2843 18.3448 20.5197 18.3448 20.9911Z" fill="#F6AC1D"/>
<path d="M38.453 20.9911C38.4439 21.0551 38.4498 21.1204 38.4703 21.1817C38.4907 21.2431 38.5252 21.2989 38.5709 21.3446C38.6166 21.3903 38.6724 21.4248 38.7337 21.4452C38.7951 21.4657 38.8603 21.4716 38.9244 21.4625C39.4745 21.4625 39.7883 20.9911 39.8671 20.2843H39.5528C38.7673 20.2843 38.453 20.5197 38.453 20.9911Z" fill="#F6AC1D"/>
<path d="M28.8699 18.634C28.4759 18.634 28.1632 18.9483 28.0844 19.498H29.4984C29.4984 19.3408 29.6555 18.634 28.8699 18.634Z" fill="#F6AC1D"/>
<path d="M45.9154 18.7913C45.3658 18.7913 44.8944 19.4986 44.8944 20.4408C44.8944 21.0693 45.1298 21.3835 45.5229 21.3835C46.1514 21.3835 46.5439 20.6767 46.5439 19.734C46.6227 19.1056 46.3868 18.7913 45.9154 18.7913Z" fill="#F6AC1D"/>
<path d="M37.7469 7.63706C34.8504 7.63084 32.0534 8.69364 29.8919 10.6218C27.7683 8.68278 24.9909 7.61681 22.1153 7.63706C19.0135 7.64474 16.041 8.88031 13.8477 11.0736C11.6544 13.2669 10.4188 16.2394 10.4111 19.3412C10.4188 22.4429 11.6543 25.4153 13.8475 27.6086C16.0407 29.8019 19.0131 31.0375 22.1148 31.0453C24.9904 31.0655 27.7677 29.9996 29.8914 28.0606C32.038 30.0134 34.8451 31.0798 37.7469 31.0448C40.8486 31.037 43.821 29.8014 46.0141 27.6081C48.2073 25.4149 49.4429 22.4424 49.4505 19.3407C49.4427 16.2391 48.2072 13.2668 46.014 11.0736C43.8208 8.88043 40.8485 7.64487 37.7469 7.63706ZM15.3601 22.4831L16.0674 17.9271L14.4179 22.4831H13.554L13.4752 17.9271L12.6896 22.4831H11.5115L12.5325 16.5135H14.3391L14.4174 20.2076L15.6744 16.5135H17.6381L16.6171 22.4831H15.3601ZM19.6018 22.4831V22.0117C19.437 22.2005 19.2307 22.3484 18.9989 22.4438C18.7672 22.5392 18.5165 22.5794 18.2666 22.5614C18.0989 22.5591 17.9335 22.5217 17.7812 22.4516C17.6288 22.3816 17.4928 22.2804 17.3818 22.1547C17.2709 22.0289 17.1874 21.8814 17.1369 21.7214C17.0864 21.5615 17.0699 21.3928 17.0884 21.2261C17.0884 20.048 17.874 19.3407 19.2881 19.3407H19.8378C19.8924 19.2452 19.9196 19.1365 19.9161 19.0265C19.9161 18.7122 19.6807 18.5551 19.1305 18.5551C18.6754 18.5582 18.224 18.6378 17.7952 18.7906C17.7952 18.7122 17.9523 17.6907 17.9523 17.6907C18.4374 17.5475 18.9391 17.4684 19.4447 17.4553C20.5444 17.4553 21.0942 17.9266 21.0942 18.8693C21.1013 19.1855 21.075 19.5014 21.0159 19.8121C20.9376 20.5188 20.7017 22.0112 20.6219 22.4043C20.2851 22.464 19.9433 22.4904 19.6014 22.4831H19.6018ZM23.3722 19.5771C23.6402 19.6779 23.8687 19.862 24.0242 20.1024C24.1797 20.3427 24.254 20.6267 24.2361 20.9124C24.2361 22.0122 23.6076 22.5619 22.2724 22.5619C21.8218 22.5806 21.3711 22.5275 20.9371 22.4048C20.9371 22.326 21.0942 21.3049 21.0942 21.3049C21.4729 21.434 21.8732 21.4873 22.2724 21.462C22.7436 21.462 22.9792 21.3049 22.9792 20.9907C22.9792 20.7553 22.9004 20.6764 22.3507 20.441C22.0656 20.358 21.8171 20.1807 21.6459 19.9382C21.4747 19.6956 21.3908 19.4022 21.408 19.1058C21.408 18.2418 21.8793 17.4562 23.2929 17.4562C23.6072 17.4562 24.081 17.5351 24.3928 17.5351L24.2356 18.6349C23.9258 18.5699 23.6092 18.5436 23.2929 18.5566C22.8989 18.5566 22.6644 18.7137 22.6644 18.9506C22.7432 19.2609 22.823 19.3412 23.3717 19.5766L23.3722 19.5771ZM26.1215 21.3837C26.2787 21.3837 26.357 21.3837 26.4358 21.3049L26.2787 22.4048C25.972 22.4951 25.6554 22.5479 25.336 22.5619C25.1928 22.5703 25.0495 22.5469 24.9165 22.4934C24.7834 22.4399 24.6638 22.3577 24.5662 22.2526C24.4686 22.1475 24.3955 22.0221 24.3521 21.8855C24.3086 21.7488 24.296 21.6042 24.3149 21.462C24.3425 21.0403 24.395 20.6206 24.472 20.2051C24.5503 19.7338 25.0217 16.9051 25.0217 16.9051H26.2787L26.1215 17.6119H26.75L26.5929 18.79H25.9644C25.8073 19.7328 25.5704 20.8321 25.5704 20.9892C25.729 21.2261 25.8856 21.3832 26.123 21.3832L26.1215 21.3837ZM29.1063 21.462C29.5707 21.4707 30.0298 21.3627 30.4416 21.1478L30.2062 22.326C29.7736 22.4554 29.3217 22.5086 28.8709 22.4831C27.457 22.4831 26.75 21.7761 26.75 20.3622C26.75 18.7127 27.6927 17.4562 28.9492 17.4562C29.1791 17.445 29.4089 17.482 29.6237 17.5648C29.8385 17.6477 30.0336 17.7746 30.1964 17.9374C30.3591 18.1002 30.4861 18.2953 30.5689 18.5101C30.6518 18.7249 30.6888 18.9546 30.6775 19.1846C30.6588 19.581 30.6062 19.9752 30.5204 20.3627H28.0085C27.9277 21.1473 28.399 21.4616 29.1058 21.4616L29.1063 21.462ZM31.934 22.4831H30.677L30.7558 22.1689C30.9913 20.6765 31.2272 19.1841 31.3843 17.6917H32.5624C32.5624 17.9276 32.4841 18.163 32.4841 18.399C32.8782 17.8488 33.1909 17.5351 33.7411 17.6134C33.4884 18.0471 33.3279 18.5284 33.2697 19.027C32.4836 18.9482 32.4048 19.4978 31.935 22.4831H31.934ZM36.8042 22.4043C36.4502 22.5232 36.0775 22.5764 35.7043 22.5614C34.3691 22.5614 33.5052 21.5404 33.5052 19.9692C33.5052 17.8483 34.6833 16.3559 36.4111 16.3559C36.8958 16.3877 37.3727 16.4937 37.8252 16.6702L37.5893 17.9271C37.2539 17.7339 36.8762 17.626 36.4894 17.6129C35.5467 17.6129 34.8399 18.5556 34.8399 19.8121C34.8399 20.676 35.3113 21.2261 36.0181 21.2261C36.4049 21.213 36.7826 21.1051 37.1179 20.9119L36.8042 22.4043ZM40.7316 22.4831H39.7106V22.0117C39.5458 22.2005 39.3394 22.3484 39.1077 22.4438C38.876 22.5392 38.6253 22.5794 38.3754 22.5614C38.2076 22.5591 38.0423 22.5218 37.8898 22.4518C37.7374 22.3818 37.6014 22.2806 37.4904 22.1549C37.3794 22.0291 37.296 21.8815 37.2455 21.7215C37.195 21.5616 37.1785 21.3928 37.1972 21.2261C37.1972 20.048 37.9828 19.3407 39.3964 19.3407H39.9461C40.0008 19.2452 40.0279 19.1365 40.0244 19.0265C40.0244 18.7122 39.7884 18.5551 39.2388 18.5551C38.7836 18.5582 38.3323 18.6378 37.9035 18.7906C37.9035 18.7122 38.0606 17.6907 38.0606 17.6907C38.5457 17.5476 39.0474 17.4684 39.553 17.4553C40.6527 17.4553 41.2025 17.9266 41.2025 18.8693C41.2095 19.1855 41.1833 19.5014 41.1242 19.8121C40.944 20.6945 40.8128 21.5862 40.7312 22.4831H40.7316ZM42.4599 22.4831H41.203L41.2818 22.1689C41.5177 20.6765 41.7532 19.1841 41.9103 17.6917H43.0884C43.0884 17.9276 43.0096 18.163 43.0096 18.399C43.4036 17.8488 43.7164 17.5351 44.2666 17.6134C44.0139 18.0472 43.8535 18.5284 43.7952 19.027C43.0091 18.9482 42.852 19.4978 42.4595 22.4831H42.4599ZM46.2303 22.4831L46.3086 22.0117C46.1706 22.191 45.9915 22.3344 45.7865 22.4301C45.5815 22.5258 45.3565 22.5708 45.1305 22.5614C44.1878 22.5614 43.5593 21.7758 43.5593 20.5188C43.5593 18.9481 44.502 17.5341 45.6014 17.5341C45.8331 17.5401 46.0602 17.6 46.2647 17.7091C46.4692 17.8182 46.6455 17.9735 46.7795 18.1626L47.0937 16.4343H48.3507L47.408 22.4038H46.2298L46.2303 22.4831Z" fill="#F6AC1D"/>
<path d="M22.1145 31.0448C19.7996 31.0472 17.5361 30.3623 15.6108 29.077C13.6855 27.7917 12.1851 25.9637 11.2996 23.8248C10.4142 21.6859 10.1837 19.3323 10.6372 17.0623C11.0908 14.7922 12.208 12.7079 13.8473 11.0734C14.9297 9.98258 16.2177 9.1172 17.6368 8.52734C19.0558 7.93749 20.5778 7.63488 22.1145 7.63701C24.8508 7.62206 27.5022 8.58582 29.5902 10.3543C27.7172 12.0942 26.4549 14.3913 25.9903 16.9051H25.0215C25.0215 16.9129 24.5511 19.7268 24.4718 20.2051C24.3965 20.6209 24.3441 21.0405 24.3147 21.462C24.2965 21.6039 24.3097 21.748 24.3534 21.8842C24.3971 22.0204 24.4702 22.1453 24.5675 22.2502C24.6648 22.355 24.784 22.4372 24.9165 22.4908C25.0491 22.5445 25.1919 22.5684 25.3347 22.5609C25.6434 22.5483 25.9495 22.4987 26.2464 22.4131C26.8757 24.6151 28.1236 26.5903 29.8419 28.1043C27.724 30.0156 24.9672 31.0646 22.1145 31.0448ZM21.0935 21.3044V21.3118C21.0674 21.4817 20.9373 22.3338 20.9373 22.4042L21.0137 22.4234C21.4242 22.5323 21.8488 22.5788 22.2731 22.5613C23.5946 22.5613 24.2368 22.0196 24.2368 20.9114C24.2544 20.6256 24.1799 20.3418 24.0244 20.1015C23.8688 19.8612 23.6403 19.677 23.3724 19.5761C22.8307 19.3441 22.7459 19.2678 22.6657 18.9481C22.6657 18.7058 22.9065 18.5541 23.2941 18.5541C23.6104 18.5413 23.927 18.5676 24.2368 18.6324L24.3935 17.533C24.2364 17.533 24.0369 17.5129 23.8438 17.4936C23.6507 17.4744 23.4498 17.4542 23.2941 17.4542C21.6535 17.4542 21.4087 18.4886 21.4087 19.1042C21.3914 19.4007 21.4753 19.6942 21.6465 19.9367C21.8178 20.1793 22.0663 20.3566 22.3514 20.4395C22.8932 20.671 22.9799 20.7483 22.9799 20.9897C22.9799 21.3024 22.742 21.461 22.2731 21.461C21.8737 21.486 21.4733 21.4326 21.0945 21.3039L21.0935 21.3044ZM19.2869 19.3407C17.889 19.3407 17.0872 20.0302 17.0872 21.2261C17.0678 21.393 17.0837 21.5621 17.1339 21.7224C17.1842 21.8827 17.2677 22.0307 17.3789 22.1566C17.4901 22.2825 17.6267 22.3836 17.7796 22.4532C17.9325 22.5229 18.0983 22.5596 18.2663 22.5609C18.5163 22.5792 18.7671 22.5391 18.9989 22.4437C19.2306 22.3483 19.437 22.2002 19.6016 22.0112V22.4825C19.6053 22.482 19.6092 22.482 19.6129 22.4825H19.6159C19.9532 22.4898 20.2905 22.4635 20.6226 22.4042C20.7044 21.993 20.9388 20.5001 21.0166 19.8125C21.0755 19.5018 21.1017 19.1859 21.095 18.8698C21.095 17.9315 20.5399 17.4557 19.445 17.4557C18.9393 17.469 18.4376 17.5483 17.9526 17.6916C17.9526 17.6995 17.796 18.7156 17.796 18.7915L17.8009 18.789C18.2284 18.6389 18.6777 18.5602 19.1307 18.556C19.6666 18.556 19.9163 18.7038 19.9163 19.0274C19.9196 19.1374 19.8925 19.2461 19.838 19.3416L19.2869 19.3407ZM16.0642 17.931L15.3584 22.4811H16.6168L17.6379 16.5115H15.6736L14.4167 20.2055L14.3384 16.5115H12.5322L11.5112 22.483H12.6888L13.4769 17.9266L13.5552 22.483H14.4167L16.0642 17.931ZM18.8155 21.46C18.7515 21.469 18.6863 21.4629 18.6251 21.4424C18.5638 21.4219 18.5082 21.3874 18.4625 21.3417C18.4168 21.296 18.3823 21.2404 18.3618 21.1791C18.3413 21.1179 18.3352 21.0527 18.3441 20.9887C18.3441 20.5262 18.7244 20.2814 19.4445 20.2814H19.7587C19.675 21.034 19.3312 21.462 18.816 21.462L18.8155 21.46ZM25.9986 21.366C25.8159 21.2954 25.6644 21.1617 25.5716 20.9892C25.5716 20.9045 25.6396 20.5459 25.7258 20.0952C25.7499 19.9686 25.775 19.8337 25.8016 19.6953C25.8284 20.2559 25.8942 20.814 25.9986 21.3655V21.366Z" fill="#E10220"/>
<rect opacity="0.3" x="0.25" y="0.25" width="60.2285" height="37.6722" rx="5.75" stroke="#19213E" stroke-width="0.5"/>
</svg>
