<svg width="175" height="107" viewBox="0 0 175 107" fill="none" xmlns="http://www.w3.org/2000/svg">
<rect width="175" height="107" rx="20" fill="#5CB531"/>
<mask id="mask0_1044_10" style="mask-type:alpha" maskUnits="userSpaceOnUse" x="0" y="0" width="175" height="107">
<rect width="175" height="107" rx="20" fill="#D9D9D9"/>
</mask>
<g mask="url(#mask0_1044_10)">
<path opacity="0.2" d="M25.0341 35.0909H34.1364L43.75 58.5455H44.1591L53.7727 35.0909H62.875V70H55.7159V47.2784H55.4261L46.392 69.8295H41.517L32.483 47.1932H32.1932V70H25.0341V35.0909ZM68.956 70V35.0909H82.9332C85.5014 35.0909 87.6435 35.4716 89.3594 36.233C91.0753 36.9943 92.3651 38.0511 93.2287 39.4034C94.0923 40.7443 94.5241 42.2898 94.5241 44.0398C94.5241 45.4034 94.2514 46.6023 93.706 47.6364C93.1605 48.6591 92.4105 49.5 91.456 50.1591C90.5128 50.8068 89.4332 51.267 88.2173 51.5398V51.8807C89.5469 51.9375 90.7912 52.3125 91.9503 53.0057C93.1207 53.6989 94.0696 54.6705 94.7969 55.9205C95.5241 57.1591 95.8878 58.6364 95.8878 60.3523C95.8878 62.2045 95.4276 63.858 94.5071 65.3125C93.598 66.7557 92.2514 67.8977 90.4673 68.7386C88.6832 69.5795 86.4844 70 83.8707 70H68.956ZM76.3366 63.9659H82.3537C84.4105 63.9659 85.9105 63.5739 86.8537 62.7898C87.7969 61.9943 88.2685 60.9375 88.2685 59.6193C88.2685 58.6534 88.0355 57.8011 87.5696 57.0625C87.1037 56.3239 86.4389 55.7443 85.5753 55.3239C84.723 54.9034 83.706 54.6932 82.5241 54.6932H76.3366V63.9659ZM76.3366 49.6989H81.8082C82.8196 49.6989 83.7173 49.5227 84.5014 49.1705C85.2969 48.8068 85.9219 48.2955 86.3764 47.6364C86.8423 46.9773 87.0753 46.1875 87.0753 45.267C87.0753 44.0057 86.6264 42.9886 85.7287 42.2159C84.8423 41.4432 83.581 41.0568 81.9446 41.0568H76.3366V49.6989ZM106.707 70H98.7983L110.849 35.0909H120.361L132.395 70H124.486L115.741 43.0682H115.469L106.707 70ZM106.213 56.2784H124.895V62.0398H106.213V56.2784Z" fill="white"/>
<path d="M26.0341 72.0909H35.1364L44.75 95.5455H45.1591L54.7727 72.0909H63.875V107H56.7159V84.2784H56.4261L47.392 106.83H42.517L33.483 84.1932H33.1932V107H26.0341V72.0909ZM69.956 107V72.0909H83.9332C86.5014 72.0909 88.6435 72.4716 90.3594 73.233C92.0753 73.9943 93.3651 75.0511 94.2287 76.4034C95.0923 77.7443 95.5241 79.2898 95.5241 81.0398C95.5241 82.4034 95.2514 83.6023 94.706 84.6364C94.1605 85.6591 93.4105 86.5 92.456 87.1591C91.5128 87.8068 90.4332 88.267 89.2173 88.5398V88.8807C90.5469 88.9375 91.7912 89.3125 92.9503 90.0057C94.1207 90.6989 95.0696 91.6705 95.7969 92.9205C96.5241 94.1591 96.8878 95.6364 96.8878 97.3523C96.8878 99.2045 96.4276 100.858 95.5071 102.312C94.598 103.756 93.2514 104.898 91.4673 105.739C89.6832 106.58 87.4844 107 84.8707 107H69.956ZM77.3366 100.966H83.3537C85.4105 100.966 86.9105 100.574 87.8537 99.7898C88.7969 98.9943 89.2685 97.9375 89.2685 96.6193C89.2685 95.6534 89.0355 94.8011 88.5696 94.0625C88.1037 93.3239 87.4389 92.7443 86.5753 92.3239C85.723 91.9034 84.706 91.6932 83.5241 91.6932H77.3366V100.966ZM77.3366 86.6989H82.8082C83.8196 86.6989 84.7173 86.5227 85.5014 86.1705C86.2969 85.8068 86.9219 85.2955 87.3764 84.6364C87.8423 83.9773 88.0753 83.1875 88.0753 82.267C88.0753 81.0057 87.6264 79.9886 86.7287 79.2159C85.8423 78.4432 84.581 78.0568 82.9446 78.0568H77.3366V86.6989ZM107.707 107H99.7983L111.849 72.0909H121.361L133.395 107H125.486L116.741 80.0682H116.469L107.707 107ZM107.213 93.2784H125.895V99.0398H107.213V93.2784Z" fill="white"/>
<path opacity="0.2" d="M26.0341 -1.90909H35.1364L44.75 21.5455H45.1591L54.7727 -1.90909H63.875V33H56.7159V10.2784H56.4261L47.392 32.8295H42.517L33.483 10.1932H33.1932V33H26.0341V-1.90909ZM69.956 33V-1.90909H83.9332C86.5014 -1.90909 88.6435 -1.52841 90.3594 -0.767046C92.0753 -0.00568199 93.3651 1.05114 94.2287 2.40341C95.0923 3.74432 95.5241 5.28977 95.5241 7.03977C95.5241 8.40341 95.2514 9.60227 94.706 10.6364C94.1605 11.6591 93.4105 12.5 92.456 13.1591C91.5128 13.8068 90.4332 14.267 89.2173 14.5398V14.8807C90.5469 14.9375 91.7912 15.3125 92.9503 16.0057C94.1207 16.6989 95.0696 17.6705 95.7969 18.9205C96.5241 20.1591 96.8878 21.6364 96.8878 23.3523C96.8878 25.2045 96.4276 26.858 95.5071 28.3125C94.598 29.7557 93.2514 30.8977 91.4673 31.7386C89.6832 32.5795 87.4844 33 84.8707 33H69.956ZM77.3366 26.9659H83.3537C85.4105 26.9659 86.9105 26.5739 87.8537 25.7898C88.7969 24.9943 89.2685 23.9375 89.2685 22.6193C89.2685 21.6534 89.0355 20.8011 88.5696 20.0625C88.1037 19.3239 87.4389 18.7443 86.5753 18.3239C85.723 17.9034 84.706 17.6932 83.5241 17.6932H77.3366V26.9659ZM77.3366 12.6989H82.8082C83.8196 12.6989 84.7173 12.5227 85.5014 12.1705C86.2969 11.8068 86.9219 11.2955 87.3764 10.6364C87.8423 9.97727 88.0753 9.1875 88.0753 8.26705C88.0753 7.00568 87.6264 5.98864 86.7287 5.21591C85.8423 4.44318 84.581 4.05682 82.9446 4.05682H77.3366V12.6989ZM107.707 33H99.7983L111.849 -1.90909H121.361L133.395 33H125.486L116.741 6.06818H116.469L107.707 33ZM107.213 19.2784H125.895V25.0398H107.213V19.2784Z" fill="white"/>
</g>
</svg>
