<svg width="13" height="13" viewBox="0 0 13 13" fill="none" xmlns="http://www.w3.org/2000/svg">
<path d="M7.2101 12.21L12.2101 7.21C12.3011 7.1149 12.3725 7.00275 12.4201 6.88C12.5201 6.63654 12.5201 6.36346 12.4201 6.12C12.3725 5.99725 12.3011 5.88511 12.2101 5.79L7.2101 0.790002C7.11687 0.696764 7.00618 0.622803 6.88435 0.572343C6.76253 0.521882 6.63196 0.49591 6.5001 0.49591C6.2338 0.49591 5.97841 0.601698 5.7901 0.790002C5.6018 0.978306 5.49601 1.2337 5.49601 1.5C5.49601 1.7663 5.6018 2.0217 5.7901 2.21L9.0901 5.5L1.5001 5.5C1.23489 5.5 0.980532 5.60536 0.792996 5.7929C0.60546 5.98043 0.500104 6.23479 0.500104 6.5C0.500104 6.76522 0.60546 7.01957 0.792996 7.20711C0.980532 7.39464 1.23489 7.5 1.5001 7.5L9.0901 7.5L5.7901 10.79C5.69637 10.883 5.62198 10.9936 5.57121 11.1154C5.52044 11.2373 5.4943 11.368 5.4943 11.5C5.4943 11.632 5.52044 11.7627 5.57121 11.8846C5.62198 12.0064 5.69637 12.117 5.7901 12.21C5.88307 12.3037 5.99367 12.3781 6.11553 12.4289C6.23739 12.4797 6.36809 12.5058 6.5001 12.5058C6.63211 12.5058 6.76282 12.4797 6.88468 12.4289C7.00654 12.3781 7.11714 12.3037 7.2101 12.21Z" fill="white"/>
</svg>
