<svg width="21" height="15" viewBox="0 0 21 15" fill="none" xmlns="http://www.w3.org/2000/svg">
<path d="M0.556478 1.26181C0.84949 0.933737 1.24685 0.749435 1.66117 0.749435C2.07548 0.749435 2.47284 0.933737 2.76585 1.26181L10.5002 9.92431L18.2346 1.26181C18.5293 0.943035 18.924 0.766644 19.3337 0.770632C19.7434 0.774619 20.1352 0.958665 20.4249 1.28313C20.7146 1.60759 20.879 2.04652 20.8825 2.50536C20.8861 2.9642 20.7286 3.40626 20.444 3.73631L11.6049 13.6361C11.3119 13.9641 10.9145 14.1484 10.5002 14.1484C10.0859 14.1484 9.68855 13.9641 9.39554 13.6361L0.556478 3.73631C0.263554 3.40814 0.098999 2.9631 0.098999 2.49906C0.098999 2.03502 0.263554 1.58998 0.556478 1.26181Z" fill="white"/>
</svg>
