<svg width="35" height="19" viewBox="0 0 35 19" fill="none" xmlns="http://www.w3.org/2000/svg">
<path fill-rule="evenodd" clip-rule="evenodd" d="M14.1182 1.81287H3.81564C2.6604 1.81287 1.72395 2.74936 1.72395 3.9046C1.72395 5.05984 2.6604 5.99629 3.81564 5.99629H9.06845L0.612741 14.4521C-0.204247 15.2688 -0.204247 16.5932 0.612741 17.4102C1.42955 18.227 2.75396 18.227 3.57077 17.4102L12.0265 8.95445V14.2071C12.0265 15.3624 12.963 16.2989 14.1182 16.2989C15.2735 16.2989 16.2099 15.3624 16.2099 14.2071V3.9046C16.2099 2.74936 15.2735 1.81287 14.1182 1.81287Z" fill="black"/>
<path fill-rule="evenodd" clip-rule="evenodd" d="M20.1392 16.2099H30.4418C31.597 16.2099 32.5335 15.2735 32.5335 14.1182C32.5335 12.963 31.597 12.0265 30.4418 12.0265H25.189L33.6447 3.57077C34.4617 2.75396 34.4617 1.42955 33.6447 0.612741C32.8279 -0.204247 31.5035 -0.204247 30.6867 0.612741L22.2309 9.06845V3.81564C22.2309 2.6604 21.2945 1.72395 20.1392 1.72395C18.984 1.72395 18.0475 2.6604 18.0475 3.81564V14.1182C18.0475 15.2735 18.984 16.2099 20.1392 16.2099Z" fill="#FF7900"/>
</svg>
