<svg width="22" height="23" viewBox="0 0 22 23" fill="none" xmlns="http://www.w3.org/2000/svg">
<path d="M19.9009 8.48414C21.0467 7.33831 20.5242 5.99998 19.9009 5.34914L17.1509 2.59914C15.9959 1.45331 14.6667 1.97581 14.0159 2.59914L12.4575 4.16664H10.0834C8.3417 4.16664 7.33337 5.08331 6.82004 6.13748L2.75004 10.2075V13.8741L2.0992 14.5158C0.95337 15.6708 1.47587 17 2.0992 17.6508L4.8492 20.4008C5.3442 20.8958 5.87587 21.0791 6.38004 21.0791C7.03087 21.0791 7.6267 20.7583 7.9842 20.4008L10.4592 17.9166H13.75C15.3084 17.9166 16.0967 16.945 16.3809 15.9916C17.4167 15.7166 17.985 14.9283 18.2142 14.1583C19.635 13.7916 20.1667 12.4441 20.1667 11.5V8.74998H19.6259L19.9009 8.48414ZM18.3334 11.5C18.3334 11.9125 18.1592 12.4166 17.4167 12.4166H16.5V13.3333C16.5 13.7458 16.3259 14.25 15.5834 14.25H14.6667V15.1666C14.6667 15.5791 14.4925 16.0833 13.75 16.0833H9.70754L6.70087 19.09C6.4167 19.3558 6.2517 19.2 6.15087 19.0991L3.41004 16.3675C3.1442 16.0833 3.30004 15.9183 3.40087 15.8175L4.58337 14.6258V10.9591L6.4167 9.12581V10.5833C6.4167 11.6925 7.15004 13.3333 9.1667 13.3333C11.1834 13.3333 11.9167 11.6925 11.9167 10.5833H18.3334V11.5ZM18.5992 7.18248L17.0409 8.74998H10.0834V10.5833C10.0834 10.9958 9.9092 11.5 9.1667 11.5C8.4242 11.5 8.25004 10.9958 8.25004 10.5833V7.83331C8.25004 7.41164 8.40587 5.99998 10.0834 5.99998H13.2092L15.2992 3.90998C15.5834 3.64414 15.7484 3.79998 15.8492 3.90081L18.59 6.63248C18.8559 6.91664 18.7 7.08164 18.5992 7.18248Z" fill="white"/>
</svg>
