<svg width="31" height="30" viewBox="0 0 31 30" fill="none" xmlns="http://www.w3.org/2000/svg">
<path fill-rule="evenodd" clip-rule="evenodd" d="M10.5 8.75C10.5 7.42392 11.0268 6.15215 11.9645 5.21447C12.9021 4.27678 14.1739 3.75 15.5 3.75C16.8261 3.75 18.0979 4.27678 19.0355 5.21447C19.9732 6.15215 20.5 7.42392 20.5 8.75C20.5 10.0761 19.9732 11.3479 19.0355 12.2855C18.0979 13.2232 16.8261 13.75 15.5 13.75C14.1739 13.75 12.9021 13.2232 11.9645 12.2855C11.0268 11.3479 10.5 10.0761 10.5 8.75ZM10.5 16.25C8.8424 16.25 7.25269 16.9085 6.08058 18.0806C4.90848 19.2527 4.25 20.8424 4.25 22.5C4.25 23.4946 4.64509 24.4484 5.34835 25.1517C6.05161 25.8549 7.00544 26.25 8 26.25H23C23.9946 26.25 24.9484 25.8549 25.6517 25.1517C26.3549 24.4484 26.75 23.4946 26.75 22.5C26.75 20.8424 26.0915 19.2527 24.9194 18.0806C23.7473 16.9085 22.1576 16.25 20.5 16.25H10.5Z" fill="#001462"/>
</svg>
