<svg width="53" height="52" viewBox="0 0 53 52" fill="none" xmlns="http://www.w3.org/2000/svg">
<g clip-path="url(#clip0_329_83)">
<path d="M49.0736 33.8724L48.5767 31.4557H43.025L42.1416 33.8552L37.6918 33.8638C40.5516 27.1765 42.676 22.225 44.0607 19.0049C44.4228 18.1628 45.0655 17.7332 46.0128 17.7396C46.7372 17.7461 47.9186 17.7461 49.5594 17.7418L53 33.8659L49.0736 33.8724ZM44.2727 28.1453H47.8524L46.5163 22.0875L44.2727 28.1453ZM15.5952 17.7375L20.0693 17.7418L13.1528 33.8745L8.62354 33.8702C7.4846 29.6089 6.35981 25.3441 5.24921 21.0757C5.02838 20.2251 4.59112 19.63 3.74975 19.3486C2.50544 18.9443 1.2554 18.5569 0 18.1864L0 17.7418H7.14837C8.38504 17.7418 9.10717 18.3239 9.33904 19.5183C9.57312 20.7148 10.1605 23.7631 11.1057 28.6566L15.5952 17.7375ZM26.2173 17.7418L22.6818 33.8724L18.4219 33.8659L21.9508 17.7375L26.2173 17.7418ZM34.8519 17.4432C36.1261 17.4432 37.7316 17.8298 38.6547 18.1864L37.9082 21.529C37.0735 21.2025 35.6999 20.7621 34.545 20.7771C32.8666 20.8051 31.8287 21.4903 31.8287 22.1477C31.8287 23.2175 33.6307 23.7566 35.4857 24.9252C37.6013 26.2571 37.8817 27.4536 37.8552 28.7554C37.8265 31.4514 35.4857 34.113 30.5479 34.113C28.2954 34.0807 27.4827 33.8981 25.6454 33.2623L26.4227 29.7737C28.2932 30.5341 29.086 30.7768 30.6848 30.7768C32.1489 30.7768 33.4055 30.2011 33.4165 29.1979C33.4253 28.4848 32.9748 28.1303 31.3318 27.2496C29.6888 26.3667 27.3833 25.1465 27.4142 22.6911C27.4518 19.5505 30.5103 17.4432 34.8519 17.4432Z" fill="#231C35"/>
</g>
<defs>
<clipPath id="clip0_329_83">
<rect width="53" height="51.556" fill="white"/>
</clipPath>
</defs>
</svg>
