<svg width="13" height="21" viewBox="0 0 13 21" fill="none" xmlns="http://www.w3.org/2000/svg">
<path d="M0.497118 20.5378C0.178813 20.2417 -9.02978e-07 19.8402 -8.84679e-07 19.4216C-8.6638e-07 19.0029 0.178813 18.6014 0.497118 18.3054L8.90166 10.4905L0.497119 2.67556C0.187836 2.3778 0.0166978 1.979 0.0205659 1.56505C0.024435 1.1511 0.202999 0.755126 0.517801 0.462409C0.832603 0.169692 1.25846 0.00365778 1.70364 6.05414e-05C2.14882 -0.0035367 2.57771 0.155595 2.89793 0.44318L12.5029 9.37428C12.8212 9.67034 13 10.0718 13 10.4905C13 10.9091 12.8212 11.3106 12.5029 11.6067L2.89793 20.5378C2.57953 20.8337 2.14774 21 1.69752 21C1.24731 21 0.815519 20.8337 0.497118 20.5378Z" fill="white"/>
</svg>
