<svg width="17" height="21" viewBox="0 0 17 21" fill="none" xmlns="http://www.w3.org/2000/svg">
<path d="M8.5 0.875L16.8125 5.6875V15.3125L8.5 20.125L0.1875 15.3125V5.6875L8.5 0.875ZM8.5 13.125C9.19619 13.125 9.86387 12.8484 10.3562 12.3562C10.8484 11.8639 11.125 11.1962 11.125 10.5C11.125 9.80381 10.8484 9.13613 10.3562 8.64384C9.86387 8.15156 9.19619 7.875 8.5 7.875C7.80381 7.875 7.13613 8.15156 6.64384 8.64384C6.15156 9.13613 5.875 9.80381 5.875 10.5C5.875 11.1962 6.15156 11.8639 6.64384 12.3562C7.13613 12.8484 7.80381 13.125 8.5 13.125Z" fill="#19213E"/>
</svg>
