<svg width="62" height="39" viewBox="0 0 62 39" fill="none" xmlns="http://www.w3.org/2000/svg">
<path fill-rule="evenodd" clip-rule="evenodd" d="M26.1074 11.5611L23.6798 27.318H27.5619L29.9895 11.5611H26.1074ZM20.4151 11.5611L16.7138 22.3987L16.276 20.0649L16.1793 19.5417C15.3901 17.7658 14.213 16.1893 12.7346 14.9279C12.1885 14.4678 11.6113 14.0459 11.0072 13.6652L14.3711 27.3172H18.4144L24.5914 11.5602L20.4151 11.5611ZM35.5668 15.9354C35.5668 14.154 39.3476 14.383 41.008 15.3494L41.5617 11.9654C40.4443 11.5428 39.264 11.3105 38.0697 11.2781C36.1444 11.2781 31.5679 12.1684 31.5679 16.4946C31.5679 20.5659 36.9375 20.6165 36.9375 22.7537C36.9375 24.8908 32.1212 24.5091 30.5337 23.1609L29.956 26.6981C31.335 27.3095 32.8305 27.6133 34.3387 27.5884C36.9878 27.5884 40.985 26.1385 40.985 22.1941C40.9841 18.0981 35.5664 17.7164 35.5664 15.9354H35.5668ZM51.4091 11.5611H48.2875C47.9023 11.5389 47.5203 11.6411 47.1976 11.8525C46.8749 12.064 46.6287 12.3735 46.4953 12.7355L40.7054 27.3184H44.752L45.5615 24.9779H50.4967L50.952 27.3184H54.5169L51.4091 11.5611ZM46.6794 21.7441L48.7195 15.8475L49.8671 21.7441H46.6794Z" fill="#2A3480"/>
<path fill-rule="evenodd" clip-rule="evenodd" d="M15.0606 12.9657C15.0606 12.9657 14.8982 11.6071 13.1666 11.6071H6.8753L6.80164 11.8624C8.96322 12.4031 10.9838 13.4009 12.7271 14.7885C14.3727 16.0844 15.6421 17.7965 16.4041 19.7475L15.0606 12.9657Z" fill="#F6AC1D"/>
<rect opacity="0.3" x="0.978516" y="0.25" width="60.2285" height="37.6722" rx="5.75" stroke="#19213E" stroke-width="0.5"/>
</svg>
