<svg width="21" height="21" viewBox="0 0 21 21" fill="none" xmlns="http://www.w3.org/2000/svg">
<g clip-path="url(#clip0_329_115)">
<path d="M6.71819 1.02219C9.29656 -5.48959e-05 12.2999 0.0706236 14.8096 1.25795C14.0944 1.14988 13.3671 1.23136 12.6592 1.3504C10.7367 1.71158 8.90973 2.61138 7.48168 3.94816C6.1124 5.287 5.15286 7.06342 4.88185 8.96396C4.70259 10.3106 4.86876 11.7231 5.47624 12.9489C6.10224 14.2349 7.20415 15.2897 8.53226 15.834C9.81201 16.3728 11.2965 16.3668 12.5928 15.886C14.5378 15.1759 15.9352 13.2588 16.095 11.2104C16.1956 9.86797 15.8673 8.43987 14.9607 7.41022C14.0951 6.40235 12.8292 5.84719 11.5624 5.53119C11.4945 4.28837 12.0831 3.06057 13.0165 2.25231C13.5349 1.78733 14.1783 1.49095 14.8435 1.30128L14.8941 1.28394C16.7985 2.19238 18.4166 3.69063 19.4477 5.52994C20.331 7.09589 20.7917 8.90041 20.7461 10.6979C20.7374 13.0223 19.864 15.3237 18.3668 17.101C16.951 18.7959 14.9708 20.0151 12.8126 20.5033C10.6487 20.9999 8.32051 20.7857 6.2953 19.8709C4.31365 18.9905 2.63479 17.46 1.56678 15.5774C0.67835 14.0129 0.208361 12.209 0.247364 10.4094C0.251601 8.16715 1.05203 5.94218 2.44956 4.18878C3.56586 2.78872 5.04677 1.67548 6.71819 1.02219Z" fill="#E60000"/>
<path d="M12.6591 1.35046C13.3669 1.23142 14.0943 1.14999 14.8095 1.25806L14.9122 1.27535L14.8434 1.30129C14.1782 1.49106 13.5348 1.78739 13.0164 2.25242C12.083 3.06063 11.4944 4.28848 11.5623 5.5313C12.829 5.84724 14.095 6.40235 14.9606 7.41028C15.8672 8.43992 16.1955 9.86803 16.095 11.2105C15.9351 13.2588 14.5377 15.176 12.5927 15.886C11.2964 16.3669 9.81192 16.3728 8.53216 15.8341C7.204 15.2897 6.10214 14.235 5.47614 12.9489C4.86866 11.7232 4.70249 10.3107 4.88181 8.96401C5.15277 7.06348 6.1123 5.28706 7.48163 3.94822C8.90964 2.61143 10.7366 1.71163 12.6591 1.35046Z" fill="white"/>
</g>
<defs>
<clipPath id="clip0_329_115">
<rect width="21" height="21" fill="white"/>
</clipPath>
</defs>
</svg>
